<?xml version="1.0" encoding="utf-8"?>
<!-- Generator: Adobe Illustrator 25.0.1, SVG Export Plug-In . SVG Version: 6.00 Build 0)  -->
<svg version="1.1" xmlns="http://www.w3.org/2000/svg" xmlns:xlink="http://www.w3.org/1999/xlink" x="0px" y="0px"
	 width="283.46px" height="283.46px" viewBox="0 0 283.46 283.46" enable-background="new 0 0 283.46 283.46" xml:space="preserve">
<g id="guides">
	<rect fill="#E9C8E0" width="283.46" height="283.46"/>
</g>
<g id="logo">
	<path fill="none" stroke="#2B2E31" stroke-width="5" stroke-linecap="round" stroke-linejoin="round" stroke-miterlimit="10" d="
		M14.17,209.58c0-70.45,57.11-127.56,127.56-127.56s127.56,57.11,127.56,127.56"/>
	<path fill="none" stroke="#2B2E31" stroke-width="5" stroke-linecap="round" stroke-linejoin="round" stroke-miterlimit="10" d="
		M14.17,209.58c0-35.22,28.56-63.78,63.78-63.78s63.78,28.56,63.78,63.78"/>
	<path fill="none" stroke="#2B2E31" stroke-width="5" stroke-linecap="round" stroke-linejoin="round" stroke-miterlimit="10" d="
		M77.95,209.58c0-35.22,28.56-63.78,63.78-63.78s63.78,28.56,63.78,63.78"/>
	<path fill="none" stroke="#2B2E31" stroke-width="5" stroke-linecap="round" stroke-linejoin="round" stroke-miterlimit="10" d="
		M141.73,209.58c0-17.61,14.28-31.89,31.89-31.89s31.89,14.28,31.89,31.89"/>
	<path fill="none" stroke="#2B2E31" stroke-width="5" stroke-linecap="round" stroke-linejoin="round" stroke-miterlimit="10" d="
		M77.95,209.58c0-17.61,14.28-31.89,31.89-31.89s31.89,14.28,31.89,31.89"/>
	<path fill="none" stroke="#2B2E31" stroke-width="5" stroke-linecap="round" stroke-linejoin="round" stroke-miterlimit="10" d="
		M14.17,209.58c0-17.61,14.28-31.89,31.89-31.89s31.89,14.28,31.89,31.89"/>
	<path fill="none" stroke="#2B2E31" stroke-width="5" stroke-linecap="round" stroke-linejoin="round" stroke-miterlimit="10" d="
		M205.51,209.58c0-17.61,14.28-31.89,31.89-31.89s31.89,14.28,31.89,31.89"/>
	
		<line fill="none" stroke="#2B2E31" stroke-width="5" stroke-linecap="round" stroke-linejoin="round" stroke-miterlimit="10" x1="14.17" y1="209.58" x2="269.29" y2="209.58"/>
</g>
</svg>
