<?xml version="1.0" encoding="utf-8"?>
<!-- Generator: Adobe Illustrator 25.0.1, SVG Export Plug-In . SVG Version: 6.00 Build 0)  -->
<svg version="1.1" xmlns="http://www.w3.org/2000/svg" xmlns:xlink="http://www.w3.org/1999/xlink" x="0px" y="0px"
	 width="283.46px" height="283.46px" viewBox="0 0 283.46 283.46" enable-background="new 0 0 283.46 283.46" xml:space="preserve">
<g id="guides">
	<rect fill="#C6CAE4" width="283.46" height="283.46"/>
</g>
<g id="logo">
	<rect x="14.17" y="58.52" fill="#929092" width="70.87" height="105.38"/>
	<rect x="14.17" y="163.91" fill="#6B6A6B" width="70.87" height="105.38"/>
	<rect x="14.17" y="14.17" fill="#C0BEBF" width="70.87" height="44.35"/>
	<rect x="106.3" y="14.17" fill="#C0BEBF" width="70.87" height="64.38"/>
	<rect x="106.3" y="78.56" fill="#929092" width="70.87" height="71.6"/>
	<rect x="106.3" y="150.16" fill="#6B6A6B" width="70.87" height="119.13"/>
	<rect x="198.43" y="14.17" fill="#C0BEBF" width="70.87" height="47.89"/>
	<rect x="198.43" y="62.06" fill="#929092" width="70.87" height="76.58"/>
	<rect x="198.43" y="138.64" fill="#6B6A6B" width="70.87" height="130.65"/>
	<rect x="38.73" y="38.12" fill="#2B2E31" width="21.75" height="231.17"/>
	<rect x="130.86" y="93.65" fill="#2B2E31" width="21.75" height="175.64"/>
	<rect x="222.98" y="78.56" fill="#2B2E31" width="21.75" height="190.74"/>
	
		<line fill="none" stroke="#2B2E31" stroke-width="3" stroke-linecap="round" stroke-linejoin="round" stroke-miterlimit="10" x1="27.78" y1="71.59" x2="71.43" y2="71.59"/>
	
		<line fill="none" stroke="#2B2E31" stroke-width="3" stroke-linecap="round" stroke-linejoin="round" stroke-miterlimit="10" x1="119.91" y1="46.36" x2="163.56" y2="46.36"/>
	
		<line fill="none" stroke="#2B2E31" stroke-width="3" stroke-linecap="round" stroke-linejoin="round" stroke-miterlimit="10" x1="212.03" y1="82.85" x2="255.68" y2="82.85"/>
</g>
</svg>
