<?xml version="1.0" encoding="utf-8"?>
<!-- Generator: Adobe Illustrator 25.0.1, SVG Export Plug-In . SVG Version: 6.00 Build 0)  -->
<svg version="1.1" xmlns="http://www.w3.org/2000/svg" xmlns:xlink="http://www.w3.org/1999/xlink" x="0px" y="0px"
	 width="283.46px" height="283.46px" viewBox="0 0 283.46 283.46" enable-background="new 0 0 283.46 283.46" xml:space="preserve">
<g id="guides">
	<rect fill="#E1F2F0" width="283.46" height="283.46"/>
</g>
<g id="logo">
	<circle fill="#2B2E31" cx="141.73" cy="141.73" r="127.56"/>
	<circle fill="#6B6A6B" cx="88.68" cy="141.73" r="74.51"/>
	<circle fill="#929092" cx="56.69" cy="108.97" r="28.44"/>
	<circle fill="#929092" cx="24.65" cy="129.02" r="9.13"/>
	<circle fill="#929092" cx="45.92" cy="150.38" r="14.22"/>
	<circle fill="#929092" cx="23.12" cy="146.73" r="8.58"/>
	<circle fill="#929092" cx="116.86" cy="110.01" r="31.72"/>
	<circle fill="#929092" cx="128.43" cy="167.89" r="26.93"/>
	<circle fill="#929092" cx="83.7" cy="146.81" r="17.79"/>
	<circle fill="#929092" cx="86.89" cy="180.84" r="16.51"/>
	<circle fill="#929092" cx="57.37" cy="175.61" r="13.37"/>
	<circle fill="#929092" cx="32.57" cy="171.85" r="10.95"/>
	<circle fill="#929092" cx="40.96" cy="188.47" r="7.63"/>
	<circle fill="#929092" cx="99.21" cy="204.87" r="10.31"/>
	<circle fill="#929092" cx="60.14" cy="199.21" r="10.24"/>
	<circle fill="#929092" cx="79.22" cy="205.87" r="9.76"/>
	<circle fill="#6B6A6B" cx="216.24" cy="141.73" r="53.05"/>
	<circle fill="#929092" cx="189.34" cy="126.49" r="21.31"/>
	<circle fill="#929092" cx="233.87" cy="154.39" r="31.17"/>
</g>
</svg>
