<?xml version="1.0" encoding="utf-8"?>
<!-- Generator: Adobe Illustrator 25.0.1, SVG Export Plug-In . SVG Version: 6.00 Build 0)  -->
<svg version="1.1" xmlns="http://www.w3.org/2000/svg" xmlns:xlink="http://www.w3.org/1999/xlink" x="0px" y="0px"
	 width="283.46px" height="283.46px" viewBox="0 0 283.46 283.46" enable-background="new 0 0 283.46 283.46" xml:space="preserve">
<g id="guides">
	<rect fill="#C6CAE4" width="283.46" height="283.46"/>
</g>
<g id="logo">
	<g>
		<path fill="#2B2E31" d="M109.85,86.51L95.67,61.95C88.68,66,82.28,70.93,76.61,76.61l20.04,20.04
			C100.57,92.72,105.02,89.32,109.85,86.51z"/>
		<path fill="#49494B" d="M125.22,80.13l-7.34-27.39c-7.87,2.11-15.33,5.23-22.22,9.22l14.18,24.56
			C114.62,83.75,119.78,81.59,125.22,80.13z"/>
		<path fill="#2B2E31" d="M141.73,77.95V49.61c-8.25,0-16.24,1.09-23.85,3.13l7.34,27.39C130.49,78.71,136.02,77.95,141.73,77.95z"
			/>
		<path fill="#49494B" d="M158.24,80.12l7.34-27.39c-7.61-2.03-15.6-3.12-23.85-3.12v28.35C147.44,77.95,152.97,78.71,158.24,80.12z
			"/>
		<path fill="#49494B" d="M186.82,96.65l20.04-20.04c-5.67-5.67-12.08-10.61-19.07-14.65l-14.18,24.55
			C178.45,89.31,182.89,92.72,186.82,96.65z"/>
		<path fill="#6B6A6B" d="M203.34,125.22l27.39-7.34c-2.11-7.87-5.23-15.33-9.22-22.22l-24.56,14.18
			C199.71,114.62,201.88,119.78,203.34,125.22z"/>
		<path fill="#2B2E31" d="M203.34,125.22c1.41,5.26,2.17,10.8,2.17,16.51h28.35c0-8.25-1.09-16.24-3.13-23.85L203.34,125.22z"/>
		<path fill="#6B6A6B" d="M80.12,125.22l-27.39-7.34c-2.03,7.61-3.12,15.6-3.12,23.85h28.35C77.95,136.02,78.71,130.49,80.12,125.22
			z"/>
		<path fill="#49494B" d="M173.61,196.95l14.18,24.56c6.99-4.05,13.39-8.98,19.06-14.66l-20.04-20.04
			C182.89,190.74,178.45,194.15,173.61,196.95z"/>
		<path fill="#6B6A6B" d="M125.22,203.34l-7.34,27.39c7.61,2.03,15.6,3.12,23.85,3.12v-28.35
			C136.02,205.51,130.49,204.75,125.22,203.34z"/>
		<path fill="#49494B" d="M109.85,196.96l-14.18,24.55c6.89,3.99,14.34,7.12,22.21,9.23l7.34-27.39
			C119.77,201.89,114.62,199.72,109.85,196.96z"/>
		<path fill="#2B2E31" d="M96.65,186.82l-20.04,20.04c5.67,5.67,12.08,10.61,19.07,14.65l14.18-24.55
			C105.01,194.16,100.58,190.74,96.65,186.82z"/>
		<path fill="#2B2E31" d="M77.95,141.73H49.61c0,8.25,1.09,16.24,3.13,23.85l27.39-7.34C78.71,152.98,77.95,147.44,77.95,141.73z"/>
		<path fill="#49494B" d="M86.51,173.61l-24.56,14.18c4.05,6.99,8.98,13.39,14.66,19.06l20.04-20.04
			C92.72,182.89,89.32,178.45,86.51,173.61z"/>
		<path fill="#2B2E31" d="M186.82,186.82l20.04,20.04c5.67-5.67,10.61-12.08,14.65-19.07l-24.55-14.18
			C194.16,178.45,190.74,182.89,186.82,186.82z"/>
		<path fill="#6B6A6B" d="M100.66,130.73l-20.54-5.5c-1.41,5.27-2.17,10.8-2.17,16.51h21.26
			C99.21,137.93,99.72,134.24,100.66,130.73z"/>
		<path fill="#C0BEBF" d="M104.92,120.48l-18.41-10.63c-2.76,4.77-4.93,9.93-6.39,15.38l20.54,5.5
			C101.63,127.09,103.08,123.66,104.92,120.48z"/>
		<path fill="#2B2E31" d="M120.48,104.92l-10.63-18.41c-4.84,2.8-9.28,6.21-13.2,10.13l15.03,15.03
			C114.29,109.06,117.26,106.79,120.48,104.92z"/>
		<path fill="#49494B" d="M130.73,100.66l-5.5-20.54c-5.45,1.46-10.6,3.63-15.37,6.39l10.63,18.41
			C123.66,103.08,127.1,101.64,130.73,100.66z"/>
		<path fill="#2B2E31" d="M141.73,99.21V77.95c-5.71,0-11.24,0.76-16.51,2.17l5.5,20.54C134.24,99.72,137.92,99.21,141.73,99.21z"/>
		<path fill="#929092" d="M162.99,104.92l10.63-18.41c-4.77-2.76-9.93-4.93-15.38-6.39l-5.5,20.54
			C156.37,101.63,159.81,103.08,162.99,104.92z"/>
		<path fill="#49494B" d="M171.79,111.68l15.03-15.03c-3.93-3.92-8.36-7.34-13.2-10.14l-10.63,18.41
			C166.21,106.78,169.17,109.06,171.79,111.68z"/>
		<path fill="#2B2E31" d="M178.54,120.48l18.41-10.63c-2.8-4.84-6.21-9.28-10.13-13.2l-15.03,15.03
			C174.41,114.29,176.67,117.26,178.54,120.48z"/>
		<path fill="#6B6A6B" d="M178.54,120.48c1.84,3.18,3.28,6.62,4.26,10.25l20.54-5.5c-1.46-5.45-3.63-10.6-6.39-15.37L178.54,120.48z
			"/>
		<path fill="#2B2E31" d="M184.25,141.73h21.26c0-5.71-0.76-11.24-2.17-16.51l-20.54,5.5C183.74,134.24,184.25,137.92,184.25,141.73
			z"/>
		<path fill="#49494B" d="M152.74,100.66l5.5-20.54c-5.27-1.41-10.8-2.17-16.51-2.17v21.26C145.54,99.21,149.23,99.72,152.74,100.66
			z"/>
		<path fill="#929092" d="M111.68,111.68L96.65,96.65c-3.92,3.93-7.34,8.36-10.14,13.2l18.41,10.63
			C106.78,117.25,109.06,114.3,111.68,111.68z"/>
		<path fill="#929092" d="M178.55,162.99l18.41,10.63c2.76-4.77,4.93-9.93,6.39-15.38l-20.54-5.5
			C181.83,156.37,180.39,159.81,178.55,162.99z"/>
		<path fill="#2B2E31" d="M171.79,171.79l15.03,15.03c3.92-3.93,7.34-8.36,10.14-13.2l-18.41-10.63
			C176.68,166.21,174.4,169.17,171.79,171.79z"/>
		<path fill="#929092" d="M141.73,184.25v21.26c5.71,0,11.24-0.76,16.51-2.17l-5.5-20.54C149.23,183.74,145.54,184.25,141.73,184.25
			z"/>
		<path fill="#6B6A6B" d="M130.73,182.81l-5.5,20.54c5.27,1.41,10.8,2.17,16.51,2.17v-21.26
			C137.93,184.25,134.24,183.74,130.73,182.81z"/>
		<path fill="#49494B" d="M120.48,178.55l-10.63,18.41c4.77,2.76,9.93,4.93,15.38,6.39l5.5-20.54
			C127.09,181.83,123.66,180.39,120.48,178.55z"/>
		<path fill="#2B2E31" d="M99.21,141.73H77.95c0,5.71,0.76,11.24,2.17,16.51l20.54-5.5C99.72,149.23,99.21,145.54,99.21,141.73z"/>
		<path fill="#929092" d="M100.66,152.74l-20.54,5.5c1.46,5.45,3.63,10.6,6.39,15.37l18.41-10.63
			C103.08,159.81,101.64,156.37,100.66,152.74z"/>
		<path fill="#49494B" d="M104.92,162.98l-18.41,10.63c2.8,4.84,6.21,9.28,10.13,13.2l15.03-15.03
			C109.06,169.17,106.79,166.21,104.92,162.98z"/>
		<path fill="#2B2E31" d="M111.68,171.79l-15.03,15.03c3.93,3.92,8.36,7.34,13.2,10.14l10.63-18.41
			C117.25,176.68,114.3,174.4,111.68,171.79z"/>
		<path fill="#C0BEBF" d="M152.74,182.8l5.5,20.54c5.45-1.46,10.6-3.63,15.37-6.39l-10.63-18.41
			C159.81,180.39,156.37,181.82,152.74,182.8z"/>
		<path fill="#49494B" d="M162.98,178.54l10.63,18.41c4.84-2.8,9.28-6.21,13.2-10.13l-15.03-15.03
			C169.17,174.41,166.21,176.67,162.98,178.54z"/>
		<path fill="#C0BEBF" d="M182.81,152.74l20.54,5.5c1.41-5.27,2.17-10.8,2.17-16.51h-21.26
			C184.25,145.54,183.74,149.23,182.81,152.74z"/>
	</g>
	<path fill="#2B2E31" d="M230.74,117.91c2.03,7.6,3.12,15.58,3.12,23.82h35.43c0-11.41-1.51-22.47-4.32-33L230.74,117.91z"/>
	<g>
		<path fill="#2B2E31" d="M52.73,165.58l-34.21,9.17L52.73,165.58c-2.04-7.61-3.13-15.6-3.13-23.85H14.17
			c0,11.43,1.51,22.5,4.33,33.04l34.24-9.17C52.74,165.6,52.74,165.59,52.73,165.58z"/>
	</g>
	<g>
		<path fill="#2B2E31" d="M95.67,221.51L77.95,252.2L95.67,221.51c-6.99-4.04-13.39-8.98-19.07-14.65l-25.07,25.07
			c7.87,7.87,16.78,14.72,26.48,20.33l17.73-30.71C95.72,221.54,95.7,221.52,95.67,221.51z"/>
	</g>
	<path fill="#2B2E31" d="M141.73,49.61V14.17c-11.39,0-22.42,1.5-32.93,4.3l9.17,34.24C125.56,50.69,133.52,49.61,141.73,49.61z"/>
	<g>
		<path fill="#2B2E31" d="M78.02,31.21c-9.71,5.61-18.61,12.45-26.49,20.32l25.07,25.07C82.28,70.93,88.68,66,95.67,61.95
			L77.95,31.26l17.72,30.69c0.02-0.01,0.05-0.03,0.07-0.04L78.02,31.21z"/>
	</g>
	<g>
		<path fill="#2B2E31" d="M206.91,206.81l25.07,25.07c7.83-7.84,14.65-16.7,20.24-26.36l-30.71-17.73
			C217.48,194.76,212.56,201.15,206.91,206.81z"/>
	</g>
</g>
</svg>
