<?xml version="1.0" encoding="utf-8"?>
<!-- Generator: Adobe Illustrator 25.0.1, SVG Export Plug-In . SVG Version: 6.00 Build 0)  -->
<svg version="1.1" xmlns="http://www.w3.org/2000/svg" xmlns:xlink="http://www.w3.org/1999/xlink" x="0px" y="0px"
	 width="283.46px" height="283.46px" viewBox="0 0 283.46 283.46" enable-background="new 0 0 283.46 283.46" xml:space="preserve">
<g id="guides">
	<rect fill="#DAEDD6" width="283.46" height="283.46"/>
</g>
<g id="logo">
	<g id="adm1">
		<path fill="#C0BEBF" stroke="#C0BEBF" stroke-linecap="round" stroke-linejoin="round" stroke-miterlimit="10" d="M112.62,140.62
			l1.67,0.21l0.51,1.77l-0.62,1.64l-0.77,0.67l-1.34-0.38l-1.47-2.08l0.44-1.49L112.62,140.62z"/>
		<path fill="#C0BEBF" stroke="#C0BEBF" stroke-linecap="round" stroke-linejoin="round" stroke-miterlimit="10" d="M164.23,108.46
			l-1.23,0.26l-2.68,0.11l-3.23-0.07l-2.11,0.14l-0.62,1.6l-0.7,1.14l-1.93,1.96l0.17,1.37l-1.39,4.79l-0.52,2.76l-0.65,2.07
			l1.02,1.81l-2.54,2.35l-1.68,2.37l-0.85,2.02l-0.09,1.5l-0.58,0.68l-2.23,0.32l-0.98,0.52l-1.07,1.25l-1.38,2.15l-1.39,1.36
			l-0.13,1.32l-1.16,0.56l-1.28,1.74l-1.43,0.1l0.69-1.79l-0.28-0.56l-1.41-0.6l-0.56-0.65l-0.17-1.08l-1.56-0.08l-0.07-0.59
			l1.02-0.96l-0.22-1.36l-1.21,0.05l-0.6-0.86l1.15-1.07l1.06-3.29l-0.76-1.92l0.62-0.5l1.24,0.36l0.72-0.43l0.34-1.05l0.71-0.4
			l0.62-1.58l-0.97-1.02l-1.44,0.02l-0.34-1.64l1.13,0.22l2.37,0.1l0.43-0.33l-0.5-1.42l0.45-1.43l0.1-3.03l-0.89-4.91l-0.01-0.68
			l0.99-0.7l0.06-1.17l-0.79-1.09l1.07-1.49l0.43-1.42l-0.67-2.23l-1.2-1.31l-0.53-0.15l-0.28-2.76l-1.05-1.64l0.37-1.05l-1.55-0.94
			l-0.83-1.33l0.03-3.33l-0.6-1.35l-0.7-2.41l0.47-0.77l-0.17-1.42l-0.05-1.41l1.13-1.32l-0.3-0.8l-0.96-1.1l0.56-1.99l1.01-0.83
			l1.34-0.51l-1.25-2.2l-0.75-0.81l0.05-0.85l-0.51-1.17l-0.81-2.96l-1.12-0.54l0.41-1.61l-0.41-1.48l0.43-1.62l2.03,0.39l0.18-3.42
			l-0.69-1.22l-0.01-1.65l0.9-1.6l-0.71-0.65l-0.11-1.77l-1.2,0.24l-1.45-0.42l0.21-1.3l1.08-0.61l0.74-1.87l0.89,0.34l1.65,0.11
			l0.69-0.37l-0.11-0.86l1.21-0.93l1.44-0.19l1.41,0.33l3.78,1.96l3.51,2.28l3.17,2.47l4.09,3.5l2.94,2.82l1.08,1.4l3.7,3.35
			l1.37,1.46l4.54,4.39l1.6,1.81l1.32,2.38l3.27,3.87l0.64,1.01l1.2,0.66l0.83,0.81l-1.03,1.24l-0.53,1.51l-0.9,0.77l-2.18,2.94
			l-1.17,1.95l-1.87,2.71l-2.03,1.29l-1.18,3.96l0.58,2.16l0.31,2.09l-0.19,3.86L164.23,108.46z"/>
		<path fill="#C0BEBF" stroke="#C0BEBF" stroke-linecap="round" stroke-linejoin="round" stroke-miterlimit="10" d="M130.3,85.66
			l0.17,1.42L130,87.86l0.7,2.41l0.6,1.35l-0.03,3.33l0.83,1.33l1.55,0.94l-0.37,1.05l1.05,1.64l0.28,2.76l0.53,0.15l1.2,1.31
			l0.67,2.23l-0.43,1.42l-1.07,1.49l0.79,1.09l-0.06,1.17l-0.99,0.7l0.01,0.68l0.89,4.91l-0.1,3.03l-0.45,1.43l0.5,1.42l-0.43,0.33
			l-2.37-0.1l-1.13-0.22l0.34,1.64l1.44-0.02l0.97,1.02l-0.62,1.58l-0.71,0.4l-0.34,1.05l-0.72,0.43l-1.24-0.36l-0.62,0.5l0.76,1.92
			l-1.06,3.29l-1.15,1.07l0.6,0.86l1.21-0.05l0.22,1.36l-1.02,0.96l0.07,0.59l-1.28,0.77l0.09,3.08l-0.53,1.6l-1.7,0.5l-0.94-0.53
			l-0.17,0.84l-0.87,0.92l-0.88-0.64l-0.54-1.06l-0.67,0.4l-0.02,1.03l-1.81,0.11l0.03-1l-0.48-0.76l-0.05-1.04l0.95-2.8l0.86-0.19
			l-0.41-1.44l-1.25,0.22l-1.04-1.25l-0.18-1.05l0.95-0.38l0.87,0.27l0.14-1.22l1.08-0.34l1.25-1.1l-0.94-0.56l-1.02,0l-0.03-1.17
			l0.81-0.18l0.43-1.44l-0.37-1.2l-0.95-0.72l-0.99,0.67l-1.78,0.2l-1.3-1.01l-1.61-0.14l-1.11,0.89l-1.37-1.03l-0.65-1.93l0.1-1.45
			l-2.17-0.88l3.12-1.68l-0.29-1.83l0.44-0.89l-0.26-1.41l-1.83-0.42l-4.33,0.34l-0.5,2.02l-0.96,1.74l-1.09-0.12l-0.65,1.06
			l-0.93-0.23l-3.35,2.26l-2.78,0.82l-1.09,0.92l-1.96,0.52l-2.51-2.07l-0.4-0.64l-1.44-0.31l-0.79-0.54l-1.28,0.65l-0.45-0.76
			l-1.72-0.88l-0.47-1l0.24-1.33l-1.14-0.16l-2.29-1.08l-1.39,0.02l-0.49-0.47l-3.02-0.28l-0.11,0.68l-1.63-0.87l-0.85,0.07
			l-0.32-0.7l0.11-1.31l-2,0.47l-1.54-1.24l-0.62-1.3l0.72-0.97l-0.11-0.71l0.96-0.93l-1.56-0.77l1.42-2.41l3.12-3.27l-1.39-0.3
			l-0.01-1.86l1.62-0.91l0.02-0.68l-1.12-1.46l-1.5,0.51l0.58-1.34l-1.9-2.95l-0.06-2.22l-2.08,1.28l-0.72,0.74l-0.67-0.7
			l-0.35-1.65l-1.86-1.89l-1.01,0.1l-2.26,1.41l-2.33,0.21l-0.37,0.76l-1.16,0.24l-1.01,0.84l-1.62-0.19l-0.99-0.4l-1.13-0.92
			l-0.62-2.05l2.08-4.05l4.49-7.25l0.66-0.18l0.25-1.09L64.75,79l1.83-0.15l1.2,0.16l0.28-2.83l-0.41-0.75l0.57-1.1l-0.2-0.73
			l1.55-5.7l2.53-3.4l0.2-1.53l0.76-1.79l0.46,0.48l1.67,4.3l-0.16,0.97l0.68,0.85l2.6,0.02l1.29-1.2l1.14,0.96l2.29,0.63l2.48,1.17
			l2.32-0.25l0.74-1.07l2.6-0.11l2.03-0.81l0.97-1l0.56-1.55l0.71,0.01l0.68,0.74l0.13,0.95l0.84-0.2l0.64,0.48l1.77-0.91l0.87,0.57
			l0.95-0.46l0.51,0.38l2.97-0.52l0.68-0.87l0.79,0.23l1-0.48l1.51,0.29l-0.97,0.74l0.25,0.58l1.33-0.57l0.55,1.61l1.42,0.37
			l0.61,0.84l-0.2,1.2l2.27,1.02l1.51-0.48l1.55,1.39l-1.09,0.96l0.37,1.63l1.41,0.75l1.37,0.18l1.62,0.57l0.32,1.51l-0.17,0.93
			l0.22,1.42l-1.8,0.76l1.05,2.9l0.16,2.04l0.77,0.97l2.19-0.01l0.61-0.48l1.14-0.02l0.35,1.04l1.05-0.09l0.46-0.63l2.2,0.07
			L130.3,85.66z"/>
		<path fill="#C0BEBF" stroke="#C0BEBF" stroke-linecap="round" stroke-linejoin="round" stroke-miterlimit="10" d="M77.01,119.8
			l-1.27,0.99l-0.95-0.44l-0.66,0.77l-1.19-0.1l-1.29,1.43l-1.66,0.83l-0.22,0.59l-1.26,0.49l-1.1,1.5l0.55,1.62l-0.8,1.58
			l0.91,0.45l0.56,1l0.15,1.24l0.53,0.76l1.18,0.25l1.35,1.28l1.38-0.81l0.57,0.32l0.35,1.11l-0.91,1.48l-1.47-0.01l-0.95,0.89
			l-0.83-0.38l-0.75,0.96l0.04,0.73l-0.97,2.05l-0.21,1.49l-1.28-0.64l-0.95,0.04l0.43-1.08l-0.37-1.94l-1.4-0.27l-0.65-1.14
			l-1.94,0.12l-0.69-0.26l0.14-2.55l-0.92-0.23l-1.08-1.13l0.1-1.39l-1.57-0.97l-1.8,0.34l-1.3-1.59l-0.49-1.71l-0.89-0.96
			l-1.3-0.05l-1.04-0.39l-1.21-0.04l-1.17,0.37l-0.54-1.16l-1.54,1.96l-0.48,1.04l-0.65,0.3l-0.6,1.14l0.25,1.81l-0.47,1.31
			l-0.81,0.14l-1.75-0.73l-0.79-0.72l-0.63,0.01l-0.43,1.51l-0.42,0.46l0.24,1.13l-1.04-0.02l0.25,1.42l-0.45,2.56l-1.68,0.8
			l1.46,1.65l0.54-0.02l0.77,1.17l-1.24,0.62l-5.04,0.08l-0.83-10.05l0.92-3.49l1.14-2.5l0.4-2.09l1.57-1.52l0.43-2.06l-1.06-5.37
			l1.13-1.32l1.48-2.6l2.63-1.76l1.35,0.9l2.16,1.9l1.02-0.15l1.95-2.25l0.06-0.86l-0.77-0.7l1.23-3.71l-0.65-1.71l2.05-4.44
			L49.9,98l-0.42-0.81l-0.14-1.42l0.99-2.05l1.96-0.81l0.51-0.5l0.62,2.05l1.13,0.92l0.99,0.4l1.62,0.19l1.01-0.84l1.16-0.24
			l0.37-0.76l2.33-0.21l2.26-1.41l1.01-0.1l1.86,1.89l0.35,1.65l0.67,0.7l0.72-0.74l2.08-1.28l0.06,2.22l1.9,2.95l-0.58,1.34
			l1.5-0.51l1.12,1.46l-0.02,0.68l-1.62,0.91l0.01,1.86l1.39,0.3l-3.12,3.27l-1.42,2.41l1.56,0.77l-0.96,0.93l0.11,0.71l-0.72,0.97
			l0.62,1.3l1.54,1.24l2-0.47l-0.11,1.31l0.32,0.7l0.85-0.07L77.01,119.8z"/>
		<path fill="#C0BEBF" stroke="#C0BEBF" stroke-linecap="round" stroke-linejoin="round" stroke-miterlimit="10" d="M162.92,134.19
			l0.25-2.2l2.11-1.42l0.56,0.08l2.12,1.03l2.64-2.64l1.11-0.17l1.51,1.09l-1.38,1.16l-0.99-0.03l-1.29,0.66l0.47,0.99l-1.45,1.39
			l-1.45-0.57l-1.18,0.61l-2.39-0.32L162.92,134.19z"/>
		<path fill="#C0BEBF" stroke="#C0BEBF" stroke-linecap="round" stroke-linejoin="round" stroke-miterlimit="10" d="M50.31,165.27
			l0.86,0.51l0.1,1.4l-0.84,0.92l3.18-0.01l1.41,1.41l-0.33,2.81l-0.66,0.87l0.79,0.97l-1.37,0.12l-1.11-0.38l-0.51,0.65l-1.54-0.04
			l-1.03-1.4l-1.5-0.52l-1.15,0.52l-0.36,1.96l0.58,1.39l1.47,1.62l-1.09,1.64l2.49-0.25l1.7,1.42l0.31,0.8l-0.21,3.24l0.24,1.34
			l-1.16,0.26l-0.43,1.3l-2.06,0.34l-2.25-0.57l-0.05-0.59l-1.58-4.2l-0.89-1.09l-1.24-0.87l-1.76-0.31l-0.97-2.84l-1.89-0.76
			l-1.04-0.09l-1.09-0.94l-1.23-2.59l-2.32-1.3l0.01-2.22l-2.42-2.5l-2.94-2.26l-4.22-1.46l-6.26-0.63l-0.76-0.16l-0.63-0.94
			l-0.39-1.36l0.68-1.21l1.52-1.76l1.1-0.67l-0.43-3.68l0.18-0.74l1.57-1.05l2,0.4l2.17-0.48l2.14-0.02l1.38,1.57l0.95,0.12
			l1.38-0.99l2.01-0.2l2.29-2.05l0.32-1.59l1.11,0l1.12-0.87l0.96,0.35l0.56,1.4l0.2,1.7l-0.75,1.87l0.58,0.23l2.98-1.68l0.88,1.23
			l2.63,0.23l0.96,0.59l0.01,0.88l1.18,0.9l1.87,0.06l0.91,0.47l0.94-0.01l1.1,0.65l-0.58,1.13l0.63,1.59l-0.55,1.1L49.16,160
			l-0.68,0.53l-0.13,1.04l-0.85-0.48l-0.31,1.06l-0.01,1.7l1.08-0.34l1.39,0.29L50.31,165.27z"/>
		<path fill="#C0BEBF" stroke="#C0BEBF" stroke-linecap="round" stroke-linejoin="round" stroke-miterlimit="10" d="M171.48,135.67
			l0.55,0.4l-0.36,1.56l0.39,0.92l-0.65,0.51l-0.62-0.58l-0.83,0.23l-1.48-0.34l0.16-1.32l0.74-1.17l1.25,0.18L171.48,135.67z"/>
		<path fill="#C0BEBF" stroke="#C0BEBF" stroke-linecap="round" stroke-linejoin="round" stroke-miterlimit="10" d="M130.3,139.9
			l1.56,0.08l0.17,1.08l0.56,0.65l1.41,0.6l0.28,0.56l-0.69,1.79l1.43-0.1l1.28-1.74l1.16-0.56l0.13-1.32l1.39-1.36l1.38-2.15
			l1.07-1.25l0.98-0.52l2.23-0.32l0.58-0.68l2.53-0.33l0.81,0.25l0.64,0.74l-1.18,0.34l-1.03-0.17l0.25,1.44l1.95-0.21l1.48-0.58
			l0.72-0.58l1.51-0.57l1.6-1.26l1.18-0.07l3.1,0.78l0.84-0.72l1.74-0.26l0.2,0.58l1.37,0.17l0.65-0.33l2.39,0.32l1.18-0.61
			l1.45,0.57l1.45-1.39l-0.47-0.99l1.29-0.66l0.99,0.03l1.38-1.16l2.71-0.02l2.53-0.92l0.79,0.11l0.62,0.81l2.84,1.21l0.64-0.51
			l0.73,0.87l-0.16,0.62l-1.02,0.49l-0.49-0.37l-1.13,0.21l-0.44,0.84l-1.24,0.83l-1.26,0.46l-1.76,1.27l0.24,1.47l0.75,1.58
			l0.67,0.6l-0.6,0.89l0.77,0.56l1,1.57l2.76,3l-0.36,0.79l-0.09,1.59l1.03,1.05l0.23,1.37l-0.48,2.1l-1.98,0.6l-0.57,1.17
			l-0.57,1.95l-0.68,0.84l-0.77-0.5l-0.83-1.63l-0.63-3.39l-0.46-0.63l-3.05-0.76l-1.02-1.69l-0.81,0.42l-2.48,1.99l-0.74,1.16
			l0.02,1.75l-1.34,2.08l-0.38,2.05l-0.24,4.02l0.76,1.18l-1.53,4.12l0.49,2.07l5.15,2.04l0.18,0.47l-0.09,2.09l-0.8,1.53l0.09,0.75
			l-1.47,2.05l-0.35,2.35l-0.96,1.82l0.01,0.88l-1.07,0.62l-1.29,0.3l-0.7-0.6l-1.37,0.86l-0.83,1.54l-1.2,1.15l-1.56-1.76
			l-1.53-1.34l-1.35-0.37l-2.21-0.98l-1.66-1.16l-1.02,0.06l-2.91,3l-0.68,1.28l-0.06,0.86l0.39,2.03l-0.22,3.23l0.2,1.52
			l-0.06,3.06l0.81,2.12l-1.53,0.47l-1.35,1.05l-2.04,1.09l-1.7,2.03l-6.1,0.97l-1.3-0.2l-1.09-0.54l-1.55,1.9l-0.6,1.11l-2.42,6.34
			l-0.37,2.1l0.04,0.97l-3.04,6.84l-0.46,0.5l-0.19,1.16l-0.86,2.15l0.36,1.27l-1.7,2.89l-1.96,2.94l-1.09,0.35l-2.19,1.22
			l-3.03,0.29l-4.96-1.49l-1.79-0.43L107,234.1l-2.11-0.16l-3.45-0.05l-1.11-0.69l-0.99-1.3l-12.21-7.93l-2.56-1.56l-1.54-1.52
			l-2.59-1.01l-2.95,0.01l-0.97-2.49l0.4-0.41l-0.59-1.81l3.1,0.03l0.6-1.43L80,210.63l0.55-2.23l0.95-1.44l2.27,0.14l1.7-0.13
			l0.6-0.32l1.28,0.31l0.82,0.59l1.3-0.12l1.71-0.92l1.9-0.77l0.29-0.57l0.92-0.11l0.79,0.5l1.07,0.14l0.72,0.57l0.82-0.17
			l0.01-2.18l0.58-0.85l0.21-1.95l-0.3-1.34l2.47-1.23l0.23-0.96l-1.17-0.76L98.84,194l-1.1-0.08l-1.04-0.86l-0.67,0.3l-0.44-2.66
			l1.06-1.68l0.2-0.96l-0.21-1.26l-0.73-0.86l0.18-1.22l1.08-1.39l0.7-0.14l0.96,0.71l0.8-0.45l0.61,0.7l1.67,0.65l0.36,0.8
			l1.28-0.31l0.87,0.89l-0.14,0.95l-1.26,0.5l-0.71,1.27l0.44,0.83l-0.46,0.67l-1.43,0.1l-0.12,0.75l2.3,3.81l1.88,0.42l0.84-1.26
			l-0.8-0.21l-0.82-0.87l0.59-0.37l1.37-2.62l0.69-0.29l-0.12-3.18l0.81-0.76l1.55-0.17l2.39,0.82l1.09-0.12l1.75,1.68l1.47,2.41
			l1.26,0.37l1.34-0.67l-0.46-1.28l0.7-1.57l-1.07-4.33l-1.78-0.04l-0.17-0.73l-1.9-0.53l-0.34-0.49l-1.08,0.11l-0.83-0.77
			l-1.19-0.5l0.07-0.7l1.26-0.81l-0.42-2.39l-0.74-1.61l-1.06-0.52l-0.64,0.6l-1.12,0.01l-0.64-0.62l-1.1-0.05l-0.61-0.59
			l-1.49,1.78l-0.28,0.68l-2.06,0.67l-0.9-1.06l0.24-2.33l0.45-0.52l2.74-1.63l0.24-1.26l0.5-0.36l0.55-1.31l1.45-0.61l-0.44-1.37
			l0.2-1.47l0.55-1.33l0.81-0.61l0.35-0.91l0.62-0.37l1.33-2.77l-0.74-1.27l0.06-0.82l-0.76-1.18l0.87-0.58l0.71,2.18l0.84,0.17
			l-0.04-1.16l0.58-0.49l-1.11-1.12l0.28-1.11l-0.86-1.37l-1.53-0.45l-1,0.38l-0.65,2.32l-1.41,0.76l-0.69-0.77l0.08-1.2l-0.77-0.62
			l-1.47,0.23l-0.98-0.23l-0.95,0.52l-0.66-0.24l-0.68,0.52l-1.02-0.32l-1.11,0.72l-1.96-0.27l-0.74,0.25l-0.65-0.79l-0.92,0.5
			l-0.61-1.02l-1.09-0.05l-0.69,1.13l0.01,1.44l0.77,0.51l1.81,0.62l-0.55,2.14l0.19,1.86l-1.08,0.19l-0.82-1.08l-1.68,0.41
			l0.76,1.27l-0.54,1.55l-0.06,2.46l0.75,2.01l-0.64,1.23l-0.47,1.91L88,170.4l-1.59,0.53l-1.42,1.21l-0.84,0.28l-1.11-0.26
			l-1.27,0.26l-0.16-0.61l-1.3-1.18l-0.65,0.06l-0.85,1.25l-2.37-1.58l-2.86-1.21l-1.32,0.13l-0.98-0.63L69.17,168l-1.16-0.99
			l-1.61-0.25l-0.51-0.58l0.33-1.06l-0.93-1.55l-2.53-1.6l0.96-1.82l-0.75-2.23l-1.62-0.07l-0.73,1l1.31,1.53l-0.64,0.85l-1.16,0.31
			l-1.28,0.84l-1.08-0.09L57.2,161l-1.48,0.22l-0.56,0.9l-0.72-0.23l-0.29,1.13l-2.01,1.25l-0.18,0.88l-1.64,0.11l-0.66-1.46
			l-1.39-0.29l-1.08,0.34l0.01-1.7l0.31-1.06l0.85,0.48l0.13-1.04l0.68-0.53l1.02-0.05l0.55-1.1l-0.63-1.59l0.58-1.13l-1.1-0.65
			l-0.94,0.01l-0.91-0.47l-1.87-0.06l-1.18-0.9l-0.01-0.88l-0.96-0.59l-2.63-0.23l-0.88-1.23l-2.98,1.68l-0.58-0.23l0.75-1.87
			l-0.2-1.7l-0.56-1.4l-0.96-0.35l-1.12,0.87l-1.11,0l0.17-5.29l5.04-0.08l1.24-0.62l-0.77-1.17l-0.54,0.02l-1.46-1.65l1.68-0.8
			l0.45-2.56l-0.25-1.42l1.04,0.02l-0.24-1.13l0.42-0.46l0.43-1.51l0.63-0.01l0.79,0.72l1.75,0.73l0.81-0.14l0.47-1.31l-0.25-1.81
			l0.6-1.14l0.65-0.3l0.48-1.04l1.54-1.96l0.54,1.16l1.17-0.37l1.21,0.04l1.04,0.39l1.3,0.05l0.89,0.96l0.49,1.71l1.3,1.59l1.8-0.34
			l1.57,0.97l-0.1,1.39l1.08,1.13l0.92,0.23l-0.14,2.55l0.69,0.26l1.94-0.12l0.65,1.14l1.4,0.27l0.37,1.94l-0.43,1.08l0.95-0.04
			l1.28,0.64l0.21-1.49l0.97-2.05l-0.04-0.73l0.75-0.96l0.83,0.38l0.95-0.89l1.47,0.01l0.91-1.48l-0.35-1.11l-0.57-0.32l-1.38,0.81
			l-1.35-1.28l-1.18-0.25l-0.53-0.76l-0.15-1.24l-0.56-1l-0.91-0.45l0.8-1.58l-0.55-1.62l1.1-1.5l1.26-0.49l0.22-0.59l1.66-0.83
			l1.29-1.43l1.19,0.1l0.66-0.77l0.95,0.44l1.27-0.99l0.11-0.68l3.02,0.28l0.49,0.47l1.39-0.02l2.29,1.08l1.14,0.16l-0.24,1.33
			l0.47,1l1.72,0.88l0.45,0.76l1.28-0.65l0.79,0.54l1.44,0.31l0.4,0.64l2.51,2.07l1.96-0.52l1.09-0.92l2.78-0.82l3.35-2.26
			l0.93,0.23l0.65-1.06l1.09,0.12l0.96-1.74l0.5-2.02l4.33-0.34l1.83,0.42l0.26,1.41l-0.44,0.89l0.29,1.83l-3.12,1.68l2.17,0.88
			l-0.1,1.45l0.65,1.93l1.37,1.03l1.11-0.89l1.61,0.14l1.3,1.01l1.78-0.2l0.99-0.67l0.95,0.72l0.37,1.2l-0.43,1.44l-0.81,0.18
			l0.03,1.17l1.02,0l0.94,0.56l-1.25,1.1l-1.08,0.34l-0.14,1.22l-0.87-0.27l-0.95,0.38l0.18,1.05l1.04,1.25l1.25-0.22l0.41,1.44
			l-0.86,0.19l-0.95,2.8l0.05,1.04l0.48,0.76l-0.03,1l1.81-0.11l0.02-1.03l0.67-0.4l0.54,1.06l0.88,0.64l0.87-0.92l0.17-0.84
			l0.94,0.53l1.7-0.5l0.53-1.6l-0.09-3.08L130.3,139.9z M112.62,140.62l-1.58,0.35l-0.44,1.49l1.47,2.08l1.34,0.38l0.77-0.67
			l0.62-1.64l-0.51-1.77L112.62,140.62z M171.48,135.67l-0.86,0.4l-1.25-0.18l-0.74,1.17l-0.16,1.32l1.48,0.34l0.83-0.23l0.62,0.58
			l0.65-0.51l-0.39-0.92l0.36-1.56L171.48,135.67z"/>
		<path fill="#C0BEBF" stroke="#C0BEBF" stroke-linecap="round" stroke-linejoin="round" stroke-miterlimit="10" d="M77.5,219.9
			l-1.14-0.22l-6.39,0.13l-1.03-0.15l-2.82,0.02l-1.6-1.26l-0.06-1.84l-0.39-0.19l-2.56-2.69l0.09-4.83l0.74-0.92l-0.42-2.19
			l0.39-1.07l-5-1.67l-1.43,0.02l-1.55,1.27l-0.85-0.45l-0.56-1.04l0.33-1.18l-3.17-2.12l0.03-0.95l-2.03-3.23l-0.18-1.47l0.2-0.84
			l-0.31-1.23l-0.8-0.78l-1.07-2.3l-0.11-1.1l2.25,0.57l2.06-0.34l0.43-1.3l1.16-0.26l-0.24-1.34l0.21-3.24l-0.31-0.8l-1.7-1.42
			l-2.49,0.25l1.09-1.64l-1.47-1.62l-0.58-1.39l0.36-1.96l1.15-0.52l1.5,0.52l1.03,1.4l1.54,0.04l0.51-0.65l1.11,0.38l1.37-0.12
			l-0.79-0.97l0.66-0.87l0.33-2.81l-1.41-1.41l-3.18,0.01l0.84-0.92l-0.1-1.4l-0.86-0.51l1.64-0.11l0.18-0.88l2.01-1.25l0.29-1.13
			l0.72,0.23l0.56-0.9L57.2,161l0.58,1.28l1.08,0.09l1.28-0.84l1.16-0.31l0.64-0.85l-1.31-1.53l0.73-1l1.62,0.07l0.75,2.23
			l-0.96,1.82l2.53,1.6l0.93,1.55l-0.33,1.06l0.51,0.58l1.61,0.25l1.16,0.99l2.11,0.66l0.98,0.63l1.32-0.13l2.86,1.21l2.37,1.58
			l0.85-1.25l0.65-0.06l1.3,1.18l0.16,0.61l1.27-0.26l1.11,0.26l0.84-0.28l1.42-1.21L88,170.4l0.83-0.62l0.47-1.91l0.64-1.23
			l-0.75-2.01l0.06-2.46l0.54-1.55l-0.76-1.27l1.68-0.41l0.82,1.08l1.08-0.19l-0.19-1.86l0.55-2.14l-1.81-0.62l-0.77-0.51
			l-0.01-1.44l0.69-1.13l1.09,0.05l0.61,1.02l0.92-0.5l0.65,0.79l0.74-0.25l1.96,0.27l1.11-0.72l1.02,0.32l0.68-0.52l0.66,0.24
			l0.95-0.52l0.98,0.23l1.47-0.23l0.77,0.62l-0.08,1.2l0.69,0.77l1.41-0.76l0.65-2.32l1-0.38l1.53,0.45l0.86,1.37l-0.28,1.11
			l1.11,1.12l-0.58,0.49l0.04,1.16l-0.84-0.17l-0.71-2.18l-0.87,0.58l0.76,1.18l-0.06,0.82l0.74,1.27l-1.33,2.77l-0.62,0.37
			l-0.35,0.91l-0.81,0.61l-0.55,1.33l-0.2,1.47l0.44,1.37l-1.45,0.61l-0.55,1.31l-0.5,0.36l-0.24,1.26l-2.74,1.63l-0.45,0.52
			l-0.24,2.33l0.9,1.06l2.06-0.67l0.28-0.68l1.49-1.78l0.61,0.59l1.1,0.05l0.64,0.62l1.12-0.01l0.64-0.6l1.06,0.52l0.74,1.61
			l0.42,2.39l-1.26,0.81l-0.07,0.7l1.19,0.5l0.83,0.77l1.08-0.11l0.34,0.49l1.9,0.53l0.17,0.73l1.78,0.04l1.07,4.33l-0.7,1.57
			l0.46,1.28l-1.34,0.67l-1.26-0.37l-1.47-2.41l-1.75-1.68l-1.09,0.12l-2.39-0.82l-1.55,0.17l-0.81,0.76l0.12,3.18l-0.69,0.29
			l-1.37,2.62l-0.59,0.37l0.82,0.87l0.8,0.21l-0.84,1.26l-1.88-0.42l-2.3-3.81l0.12-0.75l1.43-0.1l0.46-0.67l-0.44-0.83l0.71-1.27
			l1.26-0.5l0.14-0.95l-0.87-0.89l-1.28,0.31l-0.36-0.8l-1.67-0.65l-0.61-0.7l-0.8,0.45l-0.96-0.71l-0.7,0.14l-1.08,1.39l-0.18,1.22
			l0.73,0.86l0.21,1.26l-0.2,0.96l-1.06,1.68l0.44,2.66l0.67-0.3l1.04,0.86l1.1,0.08l0.87,2.82l1.17,0.76l-0.23,0.96l-2.47,1.23
			l0.3,1.34l-0.21,1.95l-0.58,0.85l-0.01,2.18l-0.82,0.17l-0.72-0.57l-1.07-0.14l-0.79-0.5l-0.92,0.11l-0.29,0.57l-1.9,0.77
			l-1.71,0.92l-1.3,0.12l-0.82-0.59l-1.28-0.31l-0.6,0.32l-1.7,0.13l-2.27-0.14l-0.95,1.44L80,210.63l0.05,3.16l-0.6,1.43l-3.1-0.03
			l0.59,1.81l-0.4,0.41L77.5,219.9z"/>
		<path fill="#C0BEBF" stroke="#C0BEBF" stroke-linecap="round" stroke-linejoin="round" stroke-miterlimit="10" d="M117.95,235.27
			l2.19-1.22l1.09-0.35l1.96-2.94l1.7-2.89l-0.36-1.27l0.86-2.15l0.19-1.16l0.46-0.5l3.04-6.84l-0.04-0.97l0.37-2.1l2.42-6.34
			l0.6-1.11l1.55-1.9l1.09,0.54l1.3,0.2l6.1-0.97l1.7-2.03l2.04-1.09l1.35-1.05l1.53-0.47l-0.81-2.12l0.06-3.06l-0.2-1.52l0.22-3.23
			l-0.39-2.03l0.06-0.86l0.68-1.28l2.91-3l1.02-0.06l1.66,1.16l2.21,0.98l1.35,0.37l1.53,1.34l1.56,1.76l1.2-1.15l0.83-1.54
			l1.37-0.86l0.7,0.6l1.29-0.3l1.07-0.62l-0.01-0.88l0.96-1.82l0.35-2.35l1.47-2.05l-0.09-0.75l0.8-1.53l0.09-2.09l-0.18-0.47
			l-5.15-2.04l-0.49-2.07l1.53-4.12l-0.76-1.18l0.24-4.02l0.38-2.05l1.34-2.08l-0.02-1.75l0.74-1.16l2.48-1.99l0.81-0.42l1.02,1.69
			l3.05,0.76l0.46,0.63l0.63,3.39l0.83,1.63l0.77,0.5l0.68-0.84l0.57-1.95l0.57-1.17l1.98-0.6l0.48-2.1l-0.23-1.37l-1.03-1.05
			l0.09-1.59l0.36-0.79l-2.76-3l-1-1.57l-0.77-0.56l0.6-0.89l-0.67-0.6l-0.75-1.58l-0.24-1.47l1.76-1.27l1.26-0.46l1.24-0.83
			l0.44-0.84l1.13-0.21l0.49,0.37l1.02-0.49l0.16-0.62l-0.73-0.87l-0.64,0.51l-2.84-1.21l-0.62-0.81l-0.79-0.11l-2.53,0.92
			l-2.71,0.02l-1.51-1.09l-1.11,0.17l-2.64,2.64l-2.12-1.03l-0.56-0.08l-2.11,1.42l-0.25,2.2l-1.37-0.17l-0.2-0.58l-1.74,0.26
			l-0.84,0.72l-3.1-0.78l-1.18,0.07l-1.6,1.26l-1.51,0.57l-0.72,0.58l-1.48,0.58l-1.95,0.21l-0.25-1.44l1.03,0.17l1.18-0.34
			l-0.64-0.74l-0.81-0.25l-2.53,0.33l0.09-1.5l0.85-2.02l1.68-2.37l2.54-2.35l-1.02-1.81l0.65-2.07l0.52-2.76l1.39-4.79l-0.17-1.37
			l1.93-1.96l0.7-1.14l0.62-1.6l2.11-0.14l3.23,0.07l2.68-0.11l1.23-0.26l1.81,0.51l1.73,0.15l1.8-0.93l3.97-0.34l2.42-0.76
			l2.37-0.57l1.83,0.33l0.36,0.93l0.71,0.59l1.36,0.11l0.45,0.46l-2.61,2.97l-1.69,2.51l0.98,1.96l1.09,1.06l0.34,1.8l0.76,2.22
			l0.69,0.81l1.52,0.93l0.55,0.62l0.66,1.92l1,1.01l1.19,0.1l0.76,0.67l0.61,3.04l0.39,0.85l0.77,0.26l0.99,1.07l0.7,1.22l0.24,1.15
			l2.41,1.39l0.75-0.31l6.52,5.91l10.89,3.61l5.98,1.98l10.67,3.57l7.31,2.47l8.4,2.83l7.81,2.66l10.13-0.04l6.46,0.04l-7.34,6.96
			l-9.6,9.11l-7.32,7.44l-9.72,9.93l-4.65,5.05l-5.82,6.37l-7.21,7.85l-7.45-0.47l-9.03-0.56l-2.15,0.84l-2.88,0.37l-3.33,1.19
			l-2.87,1.25l-2.78,1.4l-2.93,2.4l-0.48,0.75l-0.4,1.57l-0.97,1.2l-2.31,0.77l-2.02,0.21l-4.29,0.99l-2.97-0.12l-2.07,0.56
			l-1.95,1.49l-0.35,1.12l-0.8,0.89l-0.88,0.36l-1.94-0.88l-3.25,0.41l-1.12,0.46l-4.9,0.13l-0.78-0.29l-1.22-1.24l-0.92-1.32
			l-3.84-3.05l-1.9,1.01l-4.65,1.8l-0.17,0.41l-3.51,1.3l-3.1,1.6l-2.27,1.01l-1.43,3.25l-3.19,3.02l-0.59,1.6l-1.03-0.74
			l-3.48-0.43l-1.67-0.06L117.95,235.27z"/>
		<path fill="#C0BEBF" stroke="#C0BEBF" stroke-linecap="round" stroke-linejoin="round" stroke-miterlimit="10" d="M133.14,49.79
			l0.11,0.86l-0.69,0.37l-1.65-0.11l-0.89-0.34l-0.74,1.87l-1.08,0.61l-0.21,1.3l1.45,0.42l1.2-0.24l0.11,1.77l0.71,0.65l-0.9,1.6
			l0.01,1.65l0.69,1.22l-0.18,3.42l-2.03-0.39l-0.43,1.62l0.41,1.48l-0.41,1.61l1.12,0.54l0.81,2.96l0.51,1.17l-0.05,0.85l0.75,0.81
			l1.25,2.2l-1.34,0.51l-1.01,0.83l-0.56,1.99l0.96,1.1l0.3,0.8l-1.13,1.32l0.05,1.41l-0.95,0.35l-2.2-0.07l-0.46,0.63l-1.05,0.09
			l-0.35-1.04l-1.14,0.02l-0.61,0.48l-2.19,0.01l-0.77-0.97l-0.16-2.04l-1.05-2.9l1.8-0.76l-0.22-1.42l0.17-0.93l-0.32-1.51
			l-1.62-0.57l-1.37-0.18l-1.41-0.75l-0.37-1.63l1.09-0.96l-1.55-1.39l-1.51,0.48l-2.27-1.02l0.2-1.2l-0.61-0.84l-1.42-0.37
			l-0.55-1.61l-1.33,0.57l-0.25-0.58l0.97-0.74l-1.51-0.29l-1,0.48l-0.79-0.23l-0.68,0.87l-2.97,0.52l-0.51-0.38l-0.95,0.46
			l-0.87-0.57l-1.77,0.91l-0.64-0.48l-0.84,0.2l-0.13-0.95l-0.68-0.74l-0.71-0.01l-0.56,1.55l-0.97,1l-2.03,0.81l-2.6,0.11
			l-0.74,1.07l-2.32,0.25l-2.48-1.17l-2.29-0.63l-1.14-0.96l-1.29,1.2l-2.6-0.02l-0.68-0.85l0.16-0.97l-1.67-4.3l-0.46-0.48
			l0.57-1.3l-0.69-2l1.81-5.48l1.42-0.49l0.84,0.2l1.03-0.37l1.99,0l1.8,0.52l0.66,0.64l1.38-0.31l0.17-1.11l0.58-1.23l1.33-0.54
			l1.63-0.1l0.49,0.54l1.13-1.02l1.46-0.03l1.02,0.46l2.07-0.99l0.9-2.03l1-0.51l-0.01-1.38l0.86-1.2l0.73,0.09l1.1-0.78l0.52,0.26
			l0.8,1.6l2.25,1.05l0.63-0.24l1.25,0.37l0.06,0.9l1.66,2.17l1,0.39l0.45,0.91l2.86-0.39l1.48-0.54l1.55,0.04l0.92-0.55l0.96-0.09
			l1.19-0.69l0.83-1.54l1.26-0.02l1.75,0.38l0.44,0.73l-0.09,1.95l0.49,1.05l0.87-0.33l0.22-1.15l0.86-0.94l2.19,0.43l-0.27-1.61
			l0.43-1.25l1.23,0.12l0.91,1.04l1.37,0.98l0.98,0.18l0.44,0.69l1.36,0.65l0.87,0.8L133.14,49.79z M125.02,64.66l-0.98,0.18
			l-0.26,1.01l1.03,0.62L125.02,64.66z"/>
	</g>
	<g id="Layer_3" display="none">
		<g id="eth_contour" display="inline">
			<path fill="none" stroke="#010101" stroke-width="0.75" stroke-linecap="round" stroke-linejoin="round" d="M96.83,168.87
				l0.47-0.32l0.41,0.3l-0.26,0.32L96.83,168.87"/>
			<path fill="none" stroke="#010101" stroke-width="0.75" stroke-linecap="round" stroke-linejoin="round" d="M153.13,136.92
				l0.83,0.02l-0.26,0.41L153.13,136.92"/>
			<path fill="none" stroke="#010101" stroke-width="0.75" stroke-linecap="round" stroke-linejoin="round" d="M135.93,121.1
				l-0.51-1.39l-0.77,0.31l0.69-1.15l-0.29-2.24l0.27,0.26l0.53-0.62l-0.72-0.7l-0.88-1.15l0.38-1.06l-0.37-0.3l-0.07-0.76"/>
			<path fill="none" stroke="#010101" stroke-width="0.75" stroke-linecap="round" stroke-linejoin="round" d="M108.27,137.04
				l-0.81-0.57l-1.07,0.01l0.66-0.29l-0.82-0.36l0.59-0.12l-0.06-0.5l0.87,0.02l0.1-0.39l-1.61-0.16l0.54-0.49l-1.35-0.31
				l-0.32-0.32l-0.84,0.29l0.64-0.58l0.7,0.19l0.8-0.1l-0.26-0.72l0.61,0.71l0.18-0.27l0.5,0.98l0.03-0.56"/>
			<path fill="none" stroke="#010101" stroke-width="0.75" stroke-linecap="round" stroke-linejoin="round" d="M112,135.23
				l1.26,0.27l-0.64,0.26l-0.85,0.03L111,136.3l1.33-0.16l0.65,0.13l0.31-0.53l0.97,0.08l0.97-0.99l0.6-0.21l0.28,0.44l0.67-0.16
				l-0.46,0.45l-0.46-0.03l-0.59,0.48l-0.16,0.54l0.35,0.06l-0.14,0.51l-0.7-0.41l-0.61,0.06l0.01,0.46l-0.46,0.07"/>
			<path fill="none" stroke="#010101" stroke-width="0.75" stroke-linecap="round" stroke-linejoin="round" d="M100.1,167.22
				l-0.7-0.17l-0.32,0.22l-0.13,0.68l0.94,0.41l-0.23-0.37l0.53-0.46l0.31,0.35l-0.34,0.44l1.17-0.12l-0.48-0.73L100.1,167.22"/>
			<path fill="none" stroke="#010101" stroke-width="0.75" stroke-linecap="round" stroke-linejoin="round" d="M108.68,136.52
				l0.38-0.11l0.41,0.83L108.68,136.52"/>
			<path fill="none" stroke="#010101" stroke-width="0.75" stroke-linecap="round" stroke-linejoin="round" d="M122.1,108.45
				l0.1,0.41l-0.38,0.3l0.03,0.67l0.39-0.18l0.33,0.41l0.04-0.86l0.64-0.57l-0.25,1.15l0.09,0.54l0.6-1.06l-0.14,1.19l0.4-0.57
				l0.3,0.09l0.03,0.94l0.35-0.39l0.54,0.26l0.15-0.34l0.76,0.98l-0.41,0.73l0.38,0.51l0.46-0.22l-0.13,0.7l0.56,0.18l0,0.44
				l0.49,0.38l-0.67-0.05l-0.47-0.59l-0.36,1.14l0.13,1.15l0.68,0.28l0.23,1.46l0.77,0.09l1.01,0.73l0.14,0.82l-0.91,0.48
				l-0.23-0.69l0.57-0.05l-0.02-0.59l-0.55,0.18l0.09-0.64l-0.65,0.75l0.03,0.26l-0.86,0.56l0.14-0.51l-0.56-0.15l0.92-0.53
				l-0.9-0.24l0.25-0.27l-0.6-0.06l-1.16,0.59l-0.08,0.7l-0.6,0.29l-0.32-0.41l-0.83,0.33l0.12,0.67l-0.95,0.54l0.42-0.61l-0.4,0.09
				"/>
			<path fill="none" stroke="#010101" stroke-width="0.75" stroke-linecap="round" stroke-linejoin="round" d="M165.95,120.63
				l-0.5-0.16l-0.49,0.23l-0.68-0.69l-0.62-0.99l0.03-0.54l-0.43-0.8l1.05,0.31l0.95,0.76l-0.29,0.3l-0.86-0.23l0.45,0.6l1.51,0.64"
				/>
			<path fill="none" stroke="#010101" stroke-width="0.75" stroke-linecap="round" stroke-linejoin="round" d="M71.3,119.18
				l-0.49-0.12l0.74-0.51l0.15-0.92l-0.87-0.24l0.12-0.56l-0.26-0.57l0.2-0.25l-0.19-0.72l-0.47-0.53l0.42-0.45l-0.24-0.87
				L70,113.49l0.46-0.51l1.1,0.99l-0.19,0.56l0.23,0.24l-0.18,0.61l0.45-0.52l0.39,0.1l-0.35-0.72l0.28-0.17l0-0.81l0.23-0.12
				l0.1,1.11l0.29-0.47l0.15,1.34l0.15-1.14l0.34,0.13l0.17,1.57l-0.63,0.58l-0.6,1.26l-0.12,0.67l0.27,0.63l0.47,0l-0.18,0.57
				l0.67,0.31l0.07-0.5l0.49,0.91"/>
			<path fill="none" stroke="#010101" stroke-width="0.75" stroke-linecap="round" stroke-linejoin="round" d="M49.25,136.1
				l0.43-0.14l0.05,0.55l-0.92,0.31L49.25,136.1"/>
			<path fill="none" stroke="#010101" stroke-width="0.75" stroke-linecap="round" stroke-linejoin="round" d="M112.65,149.53
				l-0.97,0.07l1.16,0.27l-0.59,0.14l-0.22,0.47l-0.35-0.38l-0.45,0.03l-0.08,0.64l0.96,0.61l-0.05,0.62l-0.36,0.15l1.1,0.31
				l1.01-1.34l-0.27-0.62l0.04-0.61l-0.56,0.47l0.1-0.54L112.65,149.53"/>
			<path fill="none" stroke="#010101" stroke-width="0.75" stroke-linecap="round" stroke-linejoin="round" d="M74.07,120.11
				l0.68-0.23l0.32,0.3l-0.21-0.76l0.5-0.1l-0.5-0.57l1.01-0.88l0.39,0.34l-0.54,0.55l0.31,0.57l0.4-0.59l0.41,0.49l-0.26-1.2
				l0.13-0.62l0.65-0.32l-0.89-0.11l1.17-0.56l-1.25,0.32l0.47-0.56l-0.55-0.25l0.81-0.24l0.09-0.4l-0.62-0.22l0.27-0.22l0.71,0.45
				l-0.25-1l0.8,0.42l-0.64-1.16l0.11-0.18l0.99,0.06l-1.27-0.58l-0.14-0.92l-0.62-0.21l-0.66-0.57l-1.03,0.32l0.03-0.39l-0.46-0.31
				l-0.28,0.45l-0.55-0.52l-0.5,0.28l0.31,0.43l-0.18,0.36l-0.56,0.07l-0.15-0.33l-0.5,0.13l-1.47-0.63l0.2-0.19"/>
			<path fill="none" stroke="#010101" stroke-width="0.75" stroke-linecap="round" stroke-linejoin="round" d="M41.61,135.84
				l-0.27-0.73l0.38-0.43l0.33,0.36l0.78-0.37l0.15-0.56l-0.39-0.49l0.31-0.25l0.04-0.7l0.35,0.55l0.01,1.19l-0.21,0.49l0.27,0.31
				l0.25-0.6l0.59-0.05l-0.01,1.52l0.81-0.62l1.14,0.48l-0.55,0.56"/>
			<path fill="none" stroke="#010101" stroke-width="0.75" stroke-linecap="round" stroke-linejoin="round" d="M121.82,119.86
				l-0.6-0.43l0.77-0.78l0.73-0.37l1.07-0.05l-0.4-0.34l0.01-1.32l-0.26,0.24l-0.2,0.98l-1.13,0.5l-0.42,0.41l-1.65,0.93"/>
			<path fill="none" stroke="#010101" stroke-width="0.75" stroke-linecap="round" stroke-linejoin="round" d="M102.47,136.29
				l0.1-0.7l0.3-0.25l0.72,0.35l0.21-0.28l-1.33-0.44l-0.04-0.37l-0.61,0.37l0.08-0.47l0.53-0.38l-0.58-0.3l0.23-0.46l-0.88,0.16
				l0.49-0.44l-0.37-0.22l-0.59,0.83l0-0.46l-0.53,0.37l0.29-0.71l-0.39,0.24l-0.37-0.37l-0.3,0.21l0.1,0.85l-0.73-0.69l0.3,0.83
				l-0.44,0.32l-0.8-0.99l-0.59,0.11"/>
			<path fill="none" stroke="#010101" stroke-width="0.75" stroke-linecap="round" stroke-linejoin="round" d="M119.75,119.62
				l-0.26-0.58l-1.06-0.94l-0.56-0.03l1.01-0.58l0.2-0.62l-0.58,0.01l0.61-0.38l0.23-0.81l0.86-0.24l0.76,0.22l0.82-0.38l0.41,0.08
				l1-0.55l-1.01-0.07l1.47-0.66l1.13-0.26l0.71,0.02l-0.46-0.35l0.15-0.34l-0.34-0.69l-0.16,0.73l-0.44-0.21l0.27-1.17l-0.76,0.37
				l-0.28-0.56l-0.21,1.08l-0.52-1l-0.12,0.85l-0.29-0.42l-0.56,1.23l-0.67,0.06l0.43-0.32l0.38-0.86l-0.5-1.07l-0.05,0.94
				l-0.44-0.21l-0.78,0.57l0.4-0.74l-0.19-0.33l-0.55-0.01l0.03-0.67"/>
			<path fill="none" stroke="#010101" stroke-width="0.75" stroke-linecap="round" stroke-linejoin="round" d="M101.74,166.45
				l0.49-0.16l0.35,0.5L101.74,166.45"/>
			<path fill="none" stroke="#010101" stroke-width="0.75" stroke-linecap="round" stroke-linejoin="round" d="M142.93,79.56
				l-0.12-0.51l-0.43,0.19L142.93,79.56"/>
			<path fill="none" stroke="#010101" stroke-width="0.75" stroke-linecap="round" stroke-linejoin="round" d="M131.92,136.19
				l-0.18-2l-0.53-0.21l0.54-0.92l-0.52,0.08l-0.3-0.63l-0.42-0.05l-0.14-0.8l0.69,0.18l-0.38-0.58l-0.2-0.81l0.44,0.41l0.39-0.26
				l-0.31-0.74l0.15-0.85l-0.45-0.14l0.45-1.33l0.41,0.24l0.27,0.71l0.91-0.4l-0.35-0.84l0.81,0.64"/>
			<path fill="none" stroke="#010101" stroke-width="0.75" stroke-linecap="round" stroke-linejoin="round" d="M126.49,97.93
				l0.44-0.26l1.44,0.52l0.03,0.29l-1.5,0.13L126.49,97.93"/>
			<path fill="none" stroke="#010101" stroke-width="0.75" stroke-linecap="round" stroke-linejoin="round" d="M142.79,118.46
				l0.63-0.17l-0.09,0.55l-0.43,0.14L142.79,118.46"/>
			<path fill="none" stroke="#010101" stroke-width="0.75" stroke-linecap="round" stroke-linejoin="round" d="M113.45,130.81
				l-0.82,0.31l-0.71-0.04l1.24,0.64l-0.42,0.3l-1.06-0.19l-0.03,0.24l0.73,0.24l-0.37,0.43l0.85-0.37l0.72,0l-0.8,0.61l0.21,0.2
				l-0.6,0.71l-0.53-0.12l-0.37,0.33l2.09-0.27l-0.01,0.61l-1.28,0.09l0.22,0.37l-0.52,0.33"/>
			<path fill="none" stroke="#010101" stroke-width="0.75" stroke-linecap="round" stroke-linejoin="round" d="M135,133.15
				l-0.39-0.18l-0.49,0.5l0.43,0.43l0.1,0.57l0.49,0.8l0.33-0.15l-0.57-1.55L135,133.15"/>
			<path fill="none" stroke="#010101" stroke-width="0.75" stroke-linecap="round" stroke-linejoin="round" d="M59.79,135.03
				l0.61-0.72l-0.61-0.77l-0.25,0.01l-0.58-0.71l0.28-0.27l-0.2-0.48l0.47,0.01l0.12-0.58l0.49,0.06l0.34,0.74l0.24-0.4l0.83-0.24
				l0.47,0.9l0.79,0.62l0.45,0.08l0.36-0.39l0.39-1.27l0.29-0.06l0.37-0.73l-0.34-0.24l0.14-1.16l-0.24-0.4l0.57-0.08l0.02-0.64"/>
			<path fill="none" stroke="#010101" stroke-width="0.75" stroke-linecap="round" stroke-linejoin="round" d="M64.79,128.32
				l0.32-0.21l0.26,1.09l0.45-0.48l0.51,1.25l0.08,0.64l-0.61,0.01l-0.49,1.34l0.14,0.57l-0.34,0.3l0.22,0.33l0.06,1.89l0.28-0.4
				l-0.01-1.23l0.25-0.26l0.12,0.83l0.42,1.02l0.15-0.24"/>
			<path fill="none" stroke="#010101" stroke-width="0.75" stroke-linecap="round" stroke-linejoin="round" d="M109.62,135.13
				l0.43-0.3l-0.27-0.55l0.51-0.48l-1.37-0.53l0.22-0.66l0.8,0.23l-0.87-0.62l0.5-0.4l1.01,0.16l-0.28-0.5l-0.38,0.25l-0.65-0.1
				l-0.52,0.26l-0.6-0.05l0.71-0.26l-0.8-0.52l-0.08-0.51l0.55,0.27l0.87-0.08l-0.08-0.35l-0.91,0.01"/>
			<path fill="none" stroke="#010101" stroke-width="0.75" stroke-linecap="round" stroke-linejoin="round" d="M139.2,135.19
				l-0.16-0.61l0.42-0.05l-0.23-0.98l-0.21,0.26l-0.42-0.44l0.32-0.25l-0.02-0.62l-0.51,0.07l0.11-0.55l-0.9,0.24l0.28-0.51
				l-0.14-0.38l0.65-0.27l-1.36-0.52l1.57,0.02l0.18-0.51l0.58-0.47l-0.2-0.87l0.23-0.47l0.04-1.37l-0.77-0.16l-0.01-0.49l0.51-1.48
				l-0.34-0.25l0.63-0.29l-0.62-0.35l-0.37,0.26l-0.23-0.68l-0.21,0.33l-0.44-0.67l0.31-0.18l-1.19-1.48l-0.38,0.06l-0.42-0.41"/>
			<path fill="none" stroke="#010101" stroke-width="0.75" stroke-linecap="round" stroke-linejoin="round" d="M107.35,133.49
				l0.42,0.13l-0.22-0.63l0.4-0.09l0.23,0.44l0.63,0.32l-0.22,0.89l0.54,0.33l0-0.73l0.32-0.11l0.18,1.08"/>
			<path fill="none" stroke="#010101" stroke-width="0.75" stroke-linecap="round" stroke-linejoin="round" d="M136.03,200.98
				l-0.58,0.97l0.28,0.69l-0.42,0.45l-0.42-0.22l-0.34,0.52l-0.68,0.02l0.19,0.64l-0.53-0.02l-0.42-0.79l-0.43-0.34l-0.86,0.13
				l-0.33-0.55l0.05-0.48l-0.67,0.56l-0.38-0.06l-0.09-0.78l-0.64-0.86l-0.35,0.42l-1.08,0.4l-0.96-0.14l-0.23,0.36l0.35,1.02
				l-0.6-0.03l0.24,0.47"/>
			<path fill="none" stroke="#010101" stroke-width="0.75" stroke-linecap="round" stroke-linejoin="round" d="M66.6,134.75
				l0.29-0.9l-0.29-0.36l0.39-0.31l-0.1-0.38l0.4-0.36l0.03,1.19l0.57-0.32l-0.01-0.95l0.34-0.3l-0.14-0.62l0.46,0.07l-0.1,0.71
				l0.47,0.47l-0.12-1.13l0.45,0l0.42,0.75l0.19,1l0.57-0.55l-0.37-0.03l-0.45-1.02l0.29-0.43l-0.47-0.82l0.73,0.21l-0.16-0.57
				l0.55-0.08l1-1.05l0.19,1.67l0.28-0.79l-0.05-0.63l0.36-0.22l-0.18-1.17l0.81,0.38l0.33-0.56l-0.13-0.43l0.55,0.1l0.49-0.27
				l-0.65-0.16l0.81-0.79l-0.11-0.6"/>
			<path fill="none" stroke="#010101" stroke-width="0.75" stroke-linecap="round" stroke-linejoin="round" d="M128.5,97.58
				l-0.54-0.11l0.95,0.63l0.13-0.6L128.5,97.58"/>
			<path fill="none" stroke="#010101" stroke-width="0.75" stroke-linecap="round" stroke-linejoin="round" d="M123.32,134.3
				l-0.43-0.15"/>
			<path fill="none" stroke="#010101" stroke-width="0.75" stroke-linecap="round" stroke-linejoin="round" d="M129.57,117.52
				l-0.7,0.09l-0.26-0.72l0.84-0.33l0.89,0l-0.42-0.84l-1.81,1.26l-0.49-0.17"/>
			<path fill="none" stroke="#010101" stroke-width="0.75" stroke-linecap="round" stroke-linejoin="round" d="M122.89,134.15
				l-0.2-1.21l-0.43,1.01l0.26-1.57l-0.37-0.37l-0.28,1.23l-0.49,0.37l-0.11-0.39l-0.62-0.16l0.19-0.52l-0.57,0.03l-0.31,0.44
				l-0.59-0.06l-0.24-1.09l-0.21,0.99l-0.23-0.21l-0.25,0.65l-0.11-0.45l-0.64,0.22l-0.06-0.64l-0.57,0.81l0.3-1.01l-0.48,0.41
				l-0.73-0.43l-0.04,0.74l-0.24-0.44l-0.34,0.47l-0.19-0.43l-0.65-0.06l0.92-0.29l-0.14-0.19l-1.23-0.07l0.98-0.5l-0.33-0.76
				l0.92,1.04l0.47,0.1l-0.35-0.44l1.5,0.47l-0.51-0.33l-0.59-1.01l0.62,0.26l0.15-0.23l0.56,0.71l-0.22-1.04l1.27,0.47l-0.35-0.45
				l-0.78-0.43l-0.1-0.51l0.41-0.03l1.12,0.99l-0.45-0.61l0.67-0.04l0.6,0.96"/>
			<path fill="none" stroke="#010101" stroke-width="0.75" stroke-linecap="round" stroke-linejoin="round" d="M126.83,132.95
				l-0.34-0.49l-0.69-0.09l-0.11-0.47l-0.51,1.37l-0.25-0.98l-0.14,0.69l-0.6-0.16l0.58,0.55l-0.16,0.61l-1-0.91l0.09,1.02
				l-0.39,0.21"/>
			<path fill="none" stroke="#010101" stroke-width="0.75" stroke-linecap="round" stroke-linejoin="round" d="M123.13,203.04
				L123,203.2l-0.4-1.34l-0.69-0.07l0.18,0.47l-0.43,0.52l-0.29-0.64l-0.34,0.52L121,203.5l-0.66-0.18l0.55-0.64l-0.93,0l0.6-0.46"
				/>
			<path fill="none" stroke="#010101" stroke-width="0.75" stroke-linecap="round" stroke-linejoin="round" d="M112.28,202.68
				l-0.91,0.49l0.92,0.37l0.51-0.04l0.22-0.74L112.28,202.68"/>
			<path fill="none" stroke="#010101" stroke-width="0.75" stroke-linecap="round" stroke-linejoin="round" d="M127.1,203.32
				l-1.12-0.08l-1.06-1.23l-0.3,0.21l-0.63-0.23l-0.73,0.39l-0.29-0.11l0.15,0.78"/>
			<path fill="none" stroke="#010101" stroke-width="0.75" stroke-linecap="round" stroke-linejoin="round" d="M81.52,126.8
				L81,126.91l-0.69,0.58l-0.17,0.41l0.17,1.14l-0.61,0.28l0.84,0.16l0.1,0.69l-0.57,0.12l-0.48-0.24l0.46,0.93l-0.74-0.48
				l0.39,0.56l-0.58,0.16l0.54,0.36l-0.58,0.13l0.75,0.31l-1.62,0.42l-0.12-0.4l-0.51,0.13l0.36,0.35l-0.88,0.03l-0.35-0.24
				l0.3,0.91l-0.24,0.51l0.51,0"/>
			<path fill="none" stroke="#010101" stroke-width="0.75" stroke-linecap="round" stroke-linejoin="round" d="M126.09,132.91
				l-0.13-0.33l-0.54,1.13L126.09,132.91"/>
			<path fill="none" stroke="#010101" stroke-width="0.75" stroke-linecap="round" stroke-linejoin="round" d="M127.61,116.81
				l0.46-0.69l-0.57-0.03l0.4-0.35l-0.28-0.66l0.45-0.82l0.29-0.03l0.9,0.79l0.03-0.48l0.42-0.14l-0.31-0.57l-0.32,0.02l-0.15-0.78
				l0.37-0.92l-0.85,0.54l0.48-0.76l-0.9-0.26l-0.79,0.1l1.03-0.49l0.63,0.16l-0.12-0.41l-1.1-0.4l1-0.16l-0.63-0.4l0.03-0.64
				l-1.39,0.21l0.3-0.68l-0.66-0.07l0.7-0.44l-0.26-0.23l1.17-0.26l-0.16-0.65l-1.4,0.12l-0.06-0.46l0.67,0.15l-0.15-0.42l0.5,0.13
				l-0.31-0.63l0.56-0.03"/>
			<path fill="none" stroke="#010101" stroke-width="0.75" stroke-linecap="round" stroke-linejoin="round" d="M84.72,115.4
				l-0.51,0.54l-0.04,0.59l0.41,0.33l0.35-0.48L84.72,115.4"/>
			<path fill="none" stroke="#010101" stroke-width="0.75" stroke-linecap="round" stroke-linejoin="round" d="M118.34,115.63
				l-0.71-0.09l-0.48,1l-0.33-1.67l-0.51-0.1l0.13,1.06l-0.23,0.75l-0.1-1.45l-0.32-0.24l-0.63,0.65l0.2-0.71l-0.77,0.26l0.6-0.6
				l0.87,0.17l0.23-0.23l-0.78-0.45l0.61-0.44l-0.52-0.42l-0.4,0.74l-0.24-0.17l-0.2-1.11l-0.14,0.84l-0.56,0.01l0.4,0.7l-0.81-0.06
				l-0.06,1.27l-0.37-0.71l-0.97,0.7l0.32-0.98l-1.92,2.1l-0.87-0.14l0.08-0.34l0.59,0.17l0.78-0.78l0.4-0.92l-0.52-0.22l0.57-0.7
				l-0.18-0.43l-0.53,0.49l-0.2-1.35l-0.26,0.84l-0.41-1.14l-0.15,0.55"/>
			<path fill="none" stroke="#010101" stroke-width="0.75" stroke-linecap="round" stroke-linejoin="round" d="M140.43,132.8
				l0.09-0.23l0.76,0.77l-0.12,0.19l-0.68-0.42L140.43,132.8"/>
			<path fill="none" stroke="#010101" stroke-width="0.75" stroke-linecap="round" stroke-linejoin="round" d="M111.7,164.55
				l0.35-0.2l0.51,0.37l-0.72,0.32L111.7,164.55"/>
			<path fill="none" stroke="#010101" stroke-width="0.75" stroke-linecap="round" stroke-linejoin="round" d="M128.86,115.42
				l1-0.06l-0.48,0.41l-0.71,0.05L128.86,115.42"/>
			<path fill="none" stroke="#010101" stroke-width="0.75" stroke-linecap="round" stroke-linejoin="round" d="M125.75,74.92
				l0.03-0.72l0.28,0.45L125.75,74.92"/>
			<path fill="none" stroke="#010101" stroke-width="0.75" stroke-linecap="round" stroke-linejoin="round" d="M97.25,133.4
				l-0.65-0.46l-0.17,0.36l-0.59-0.49"/>
			<path fill="none" stroke="#010101" stroke-width="0.75" stroke-linecap="round" stroke-linejoin="round" d="M49.63,132.68
				l0.42-0.23l0.27,0.38l-0.47,0.32L49.63,132.68"/>
			<path fill="none" stroke="#010101" stroke-width="0.75" stroke-linecap="round" stroke-linejoin="round" d="M115.48,112.22
				l0.07-0.47l1.64-0.8l-0.43,0.72l0.17,0.26l1.27-1.15l-0.21,0.71l-0.43,0.32l0.32,0.45l0.56-0.4l0.61,0.29l-0.75,0.96l0.84,0.59
				l-1.6,0l-0.45-0.38l-0.32,0.99l0.67,0.29l0.86-0.44l0.8,0.05l-0.01,0.28l0.71,0.31l-0.2,0.21l-1.43-0.15l-0.48,0.25l0.63,0.5"/>
			<path fill="none" stroke="#010101" stroke-width="0.75" stroke-linecap="round" stroke-linejoin="round" d="M127.01,95.75
				l1.02,0.45l0.39-0.01l-0.17-0.46l0.86,0.24L129.3,97l-1.67-0.88l-1.29-0.21L127.01,95.75"/>
			<path fill="none" stroke="#010101" stroke-width="0.75" stroke-linecap="round" stroke-linejoin="round" d="M93.6,104.54
				l0.57,0.34l0.05,0.56l1.28,0.42l-0.23,0.43l-0.45,0l0.69,0.91l-0.67-0.03l0.42,1.08l0.3-0.48l0.33,0.48l0.43-0.23l0.09,0.59
				l-0.32,0.17l0.41,0.46l0.52-0.03l-0.04,0.52l0.6,0.19l-0.97,0.27l0.31,0.19l-0.19,0.46l0.53,0.26l0.9-0.32l0.53-0.52l-0.32,0.78
				l0.7-0.42l0.43,0.1l-0.23,0.66l0.47-0.28l0.31,0.24l0.64-0.51l0.43,0.03l0.6,0.62l0.75-0.29l0.26,0.31l-0.22,0.64l0.79,0.57
				l0.23,0.67l-0.5-0.39l-0.02,0.98l-0.2-0.53l-0.61,0.01l-0.02-0.79l-0.55-0.33l-0.55,0.06l-0.33,0.47l0.01,0.63l-0.32,0.04
				l-0.16,0.72l-1.14,0.06l-0.56,0.3l-0.63-0.17l0.42,0.56l-0.49,0.34l0.1,0.35l0.68-0.04"/>
			<path fill="none" stroke="#010101" stroke-width="0.75" stroke-linecap="round" stroke-linejoin="round" d="M83.35,114.78
				l1.22,0.15l0.11-0.29l-0.58-0.38l0.46-0.1l-0.07-0.6l0.4-0.51l-0.41-0.01l-0.12-0.5l0.42-0.26l0.28-1.27l-0.24-0.8l0.24-0.46
				l-0.2-0.68l0.42-0.63l0.32,0.01l0.44-1.15l-0.13-0.72l0.48-1.79l0.61-1.54l0.55-1.09l0.62-0.58l-0.07-0.95"/>
			<path fill="none" stroke="#010101" stroke-width="0.75" stroke-linecap="round" stroke-linejoin="round" d="M120.37,126.85l0.4,0
				l0.07,0.87l0.57-0.44l0.01,0.46l1.08,0.33l0.54-1.3l0.01,1.01l-0.38,1.03l1-0.91l0.32,1.55l-0.08,0.49l0.71-0.47l0.44,0.66
				l0.21-0.65l-0.36-0.84l0.41,0.24l0.17,0.82l0.19-1.03l-0.42-0.56l0.07-0.55l0.68,1.22l0.19-0.55l-0.5-1.05l0.51-0.53l0.29,0.43
				l-0.17,0.76l0.16,1.4l0.59,0.56l0.56,1.05l0.15-0.13l-0.75-1.3l0.69,0.24l0.61,0.73l0.14-0.82l0.24,0.95l0.2-0.38l0.29,0.68
				l-0.39,0.17l-0.56,1.59l-1.32,0.04l-0.08,0.29"/>
			<path fill="none" stroke="#010101" stroke-width="0.75" stroke-linecap="round" stroke-linejoin="round" d="M88.1,100.65
				l-0.02-0.38l-0.52,0.37l-0.16,1.18l-0.84,0.82l-0.88-0.19l0.74,0.46l-0.66,0.4l0.24,0.18l-0.59,0.72l0.4,0.07l-0.52,0.5
				l-0.28-0.24l-0.5,0.83l0.33,0.03l0.11,0.72l0.89,0.87l-0.22,0.89l-0.52,0.32l-0.34,0.56l-0.3-0.13l-0.12,1.91l-1.03-0.06
				l0.4,0.92l0.45,0.56l-0.77-0.48l-0.45,0.58l-0.44-0.57l-0.83-0.07l0.48,0.68l-0.64-0.19l-0.1,1.29l0.24,0.91l-0.62-0.18
				l0.86,0.94l-0.13,0.43l0.7,0l0.87-0.52"/>
			<path fill="none" stroke="#010101" stroke-width="0.75" stroke-linecap="round" stroke-linejoin="round" d="M101.44,183.6
				l-0.86-0.14l-0.03,0.87l0.74,0.56l0.35-0.41L101.44,183.6"/>
			<path fill="none" stroke="#010101" stroke-width="0.75" stroke-linecap="round" stroke-linejoin="round" d="M157.93,132.08
				l0.31-0.13l-0.18,0.74L157.93,132.08"/>
			<path fill="none" stroke="#010101" stroke-width="0.75" stroke-linecap="round" stroke-linejoin="round" d="M120.55,202.23
				l-0.43-0.89l0.15-0.83l0.54,0.03l-0.02-0.7l0.74,0.12l0.05,0.5l1.08,0.17l-0.13-0.37l0.33-0.52l0.27,0.28l0.4-0.25l0.24,0.88
				l0.23-0.45l0.6,0.13l0.33,1.06l0.68-0.21l0.09-0.7l1.12-0.15l-0.24-0.53l0.34-0.32"/>
			<path fill="none" stroke="#010101" stroke-width="0.75" stroke-linecap="round" stroke-linejoin="round" d="M145.72,74.01
				l0.43,0.36"/>
			<path fill="none" stroke="#010101" stroke-width="0.75" stroke-linecap="round" stroke-linejoin="round" d="M132.15,199.35
				l0.74-0.07l-0.48,0.51l0.51,0.58l0.6-0.42l0.13-0.45l0.36,0.63l-0.08,0.37l0.97,0.1l-0.12,0.44l-0.81,0.78l-0.57,0.07l-0.99-0.51
				l-1,0.01l-0.36-0.32l0.44-0.18l0.3-1.38L132.15,199.35"/>
			<path fill="none" stroke="#010101" stroke-width="0.75" stroke-linecap="round" stroke-linejoin="round" d="M109.93,112.5
				l-0.03,0.79l0.79,0.63l-0.6,0.88l-0.52,0.15l0.55-0.78l-0.49-0.66l-0.28,0.12l-0.42-0.58l0.08,0.58l-0.98,0.96l-1.06,0.4
				l0.89-0.58l0.57-0.8l-0.08-0.29l-0.91,0.16"/>
			<path fill="none" stroke="#010101" stroke-width="0.75" stroke-linecap="round" stroke-linejoin="round" d="M106.98,88.35
				l-0.59-0.23l-0.18,0.47l0.3,0.63l-0.17,0.53l-0.41,0.2l-0.55-0.36l-0.01,1.13l-0.23,0.56l-0.41-0.68l-0.73,0.02l-0.5,0.63
				l-0.1,0.53l-0.94,0l-0.44,0.54l-0.56-0.13l-0.38,0.79l0.53-0.4l-0.29,1.06l0.29,0.24l0.05-0.6l0.32,0.41l0.45-1.28l0.71-0.53
				l-0.13,0.64l0.36-0.26l1.17-0.14l-0.85,0.48l-0.37,0.83l0.44-0.31l0.82-0.12l-0.83,0.61l-0.36,0.69l0.98-0.16l0.27,0.67
				l0.23-0.31l-0.05,0.87l0.53-0.12l0.08-0.4l0.49-0.16l-0.09,0.77l0.88-0.62l-0.34-1.02l0.2-0.57l-0.11-1.12l0.78-1.14l0.25,0.2"/>
			<path fill="none" stroke="#010101" stroke-width="0.75" stroke-linecap="round" stroke-linejoin="round" d="M145.01,73.41
				l0.36,0.31"/>
			<path fill="none" stroke="#010101" stroke-width="0.75" stroke-linecap="round" stroke-linejoin="round" d="M125.86,183.04
				l-0.25,0.93l0.82-0.76l-0.59-0.61L125.86,183.04"/>
			<path fill="none" stroke="#010101" stroke-width="0.75" stroke-linecap="round" stroke-linejoin="round" d="M131.39,147.2
				l0.43-0.19l-0.46,0.93l-0.22-0.49L131.39,147.2"/>
			<path fill="none" stroke="#010101" stroke-width="0.75" stroke-linecap="round" stroke-linejoin="round" d="M75.28,112.97
				l-0.69-0.6l0.08,0.73l-0.42-0.56L74,113.39l1.17-0.06l0.29,0.52l0.94-0.35L75.28,112.97"/>
			<path fill="none" stroke="#010101" stroke-width="0.75" stroke-linecap="round" stroke-linejoin="round" d="M93.88,130.41
				l-0.29-0.2l0.13,0.96l0.55,0.66l0.26-0.16l-0.5-0.63l0.22-0.49L93.88,130.41"/>
			<path fill="none" stroke="#010101" stroke-width="0.75" stroke-linecap="round" stroke-linejoin="round" d="M107.45,113.48
				l0.71-1.18l-0.24-0.32l0.62-0.64l-0.25-0.54l-0.75,0.71l-0.13-0.45l0.58-0.38l0.15-0.57l-0.45-0.23l-0.22,0.88l-0.46,0.42
				l-0.85,0.23l0.97-0.67l-0.39-0.36l0.14-0.55l-0.98,0.21l0.26-0.43l1-0.39l-0.73-0.2l-0.94,0.81l0.39-0.71l-0.39-0.12l-0.7,0.54
				l0.4-0.6l-0.71,0.46"/>
			<path fill="none" stroke="#010101" stroke-width="0.75" stroke-linecap="round" stroke-linejoin="round" d="M107.49,91.22
				l-0.25,0.11l-0.26,0.9l0.52,2.44l0.52,0.31l1.2-0.88l0.52,0.14"/>
			<path fill="none" stroke="#010101" stroke-width="0.75" stroke-linecap="round" stroke-linejoin="round" d="M106.92,130.09
				l-0.66-0.06l-0.18,0.54l-0.43,0.15l0.31,0.64l0.69,0.25l0.85-0.5l-0.26-0.67l-0.3,0.26L106.92,130.09"/>
			<path fill="none" stroke="#010101" stroke-width="0.75" stroke-linecap="round" stroke-linejoin="round" d="M116.33,112.56
				l0.53,0.04l-0.45,0.42L116.33,112.56"/>
			<path fill="none" stroke="#010101" stroke-width="0.75" stroke-linecap="round" stroke-linejoin="round" d="M100.59,112.74
				l-0.93-0.1l0.35,0.42L100.59,112.74"/>
			<path fill="none" stroke="#010101" stroke-width="0.75" stroke-linecap="round" stroke-linejoin="round" d="M153.52,88.02
				l-0.99-0.15l-0.07,1.02l-0.26,0.25l0.22,0.76l-0.54,0.37l-0.35,0.67l0.5,0.37l0.07,1.82l-0.39,1.52l-0.4,0l0.14-0.73l-0.82-1.06
				l-0.92-0.29l-0.3,0.58l-0.37,0.04l-0.05,0.85l-0.6-0.31l-0.43-0.69l-0.49,0.03l-0.66-0.64l-0.41,0.06l-0.58-0.42l0.02-0.39
				l-0.77-0.27l-0.46,0.2l-0.22-1.03l-0.57,0.24l0.02-0.5l-0.58-0.01l-0.2-0.35"/>
			<path fill="none" stroke="#010101" stroke-width="0.75" stroke-linecap="round" stroke-linejoin="round" d="M101.78,162.57
				l0.44-0.06l-0.3,0.46L101.78,162.57"/>
			<path fill="none" stroke="#010101" stroke-width="0.75" stroke-linecap="round" stroke-linejoin="round" d="M116.13,162.1
				l-0.18,0.27l-1.02,0.02l1.05,0.63L116.13,162.1"/>
			<path fill="none" stroke="#010101" stroke-width="0.75" stroke-linecap="round" stroke-linejoin="round" d="M133.52,131.04
				l0.86-0.04l-0.92,0.32L133.52,131.04"/>
			<path fill="none" stroke="#010101" stroke-width="0.75" stroke-linecap="round" stroke-linejoin="round" d="M131.04,193.43
				l0.53-0.36l0.56,1.05l-0.17,0.4l0.34,0.52l-0.16,0.33l0.41,0.3l-0.47,0.68l0.5-0.1l0.82,0.42l0.96,1.26l-0.22,0.63l0.5-0.04
				l0.46,0.63l0.76,0.46l0.5-0.58l-0.32,0.75l0.37,0.18l-0.39,0.3l-0.01,0.74"/>
			<path fill="none" stroke="#010101" stroke-width="0.75" stroke-linecap="round" stroke-linejoin="round" d="M67.98,130.66
				l0.22-0.39l0.46,0.62l-0.55,0.26L67.98,130.66"/>
			<path fill="none" stroke="#010101" stroke-width="0.75" stroke-linecap="round" stroke-linejoin="round" d="M102.53,161.62
				l-0.24,0.71l1.05-0.38L102.53,161.62"/>
			<path fill="none" stroke="#010101" stroke-width="0.75" stroke-linecap="round" stroke-linejoin="round" d="M112.21,110.25
				l1.21-0.26l0.16,0.39l0.65-0.6l0.55,0.7l0.53-0.44l-0.25,0.77l0.46,0.32l-0.93-0.19l-0.35,0.29l-0.25-0.55l-0.44,0.95l1.02,0.13
				l0.87-0.18l0.05,0.65"/>
			<path fill="none" stroke="#010101" stroke-width="0.75" stroke-linecap="round" stroke-linejoin="round" d="M115.95,129.43
				l-0.84-0.58l-0.77-0.14l-0.18,0.28l-1.17-1.34l-0.53-0.4l-0.08,0.59l-0.79-0.04l0.43,0.47l-0.49-0.08l-0.41,0.3l0.55,0.62
				l0.91-0.84l0.58,0.12l0,0.56l0.52,0.65l1.32,0.34l-1.44-0.09l-1.16-0.66l0.37,0.38l-1.18,0.46l1.02-0.2l1.25,0.39l-0.74-0.04
				l-0.88,0.35l1.21,0.3"/>
			<path fill="none" stroke="#010101" stroke-width="0.75" stroke-linecap="round" stroke-linejoin="round" d="M134.19,112.3
				l-0.32-0.94l-0.44-0.1l0.31-0.62l0-1.38l0.51-0.08l0.19-0.5l-0.18-0.51l-0.45-0.09l0.29-0.55l-0.23-0.52l-0.38,0.19l-0.46-0.38
				l0.52-0.92l0-0.46l0.41,0.59l0.42-0.17l-0.5-0.48l-0.15-0.68l0.58,0.24l0.18,0.64l0.47-0.21l-0.03-1.63l-0.14-1.01l0.62-0.82
				l0.25,0.5l-0.07,0.58l0.38-0.45l0.6,0.25l0.36-0.18l0.14-1.07l0.56,0"/>
			<path fill="none" stroke="#010101" stroke-width="0.75" stroke-linecap="round" stroke-linejoin="round" d="M142.14,111.66
				l0.39-0.24l0.17,0.56l-0.4,0.37L142.14,111.66"/>
			<path fill="none" stroke="#010101" stroke-width="0.75" stroke-linecap="round" stroke-linejoin="round" d="M101.74,128.55
				l-0.24-0.15l-0.74,0.34l0.7-1.37l-0.91,0.33l-1.03-0.49l0.2,0.45l-0.47,0.21l-0.61,0.89l0.2,1.17l-0.57,0.96l0.14-1.3l-0.59-0.7
				l-1.33,1.18l-0.31,0.81l0.1-0.97l-0.28-0.12l0.87-0.56l-0.22-0.36l0.46-0.04"/>
			<path fill="none" stroke="#010101" stroke-width="0.75" stroke-linecap="round" stroke-linejoin="round" d="M109.76,94.25
				l0.33-0.09l-0.04-0.78l0.35,0.17l-0.44-1.1l0.72,0.13l0.58-0.26l0.05-0.52l-0.77-0.67l-1.09-0.24l0.83-0.38l0.78-1.4l-1.23,0.24
				l-0.16,0.55l-0.51-0.07l-0.44,1.09l-0.45-0.87l-0.13,0.58l-0.28-0.66l0.2-0.68l-0.57,0.33l0.05-0.41l-0.89,0.22l0.37-0.45
				l-0.42-0.61l0.4,0"/>
			<path fill="none" stroke="#010101" stroke-width="0.75" stroke-linecap="round" stroke-linejoin="round" d="M119.85,130.54
				l0.09-0.46l-0.26-1.37l-0.82-0.98l-0.11-0.58l0.66-0.04l0.57,1.09l-0.2-1.53l0.41,0.53l0.19-0.35"/>
			<path fill="none" stroke="#010101" stroke-width="0.75" stroke-linecap="round" stroke-linejoin="round" d="M70.72,110.84
				l-1.2,0.07l-0.79-0.12l-0.46,0.3l-0.31-0.7l0.55-0.36l0.65,0.63l-0.35-0.68l0.18-0.28l0.94,0.38"/>
			<path fill="none" stroke="#010101" stroke-width="0.75" stroke-linecap="round" stroke-linejoin="round" d="M133.09,128.61
				l-0.82,0.2l-0.53-0.12l0.51,1.8l0.47-0.38l-0.15-0.48l0.69-0.15l0.66-0.67l-1.58,0.48L133.09,128.61"/>
			<path fill="none" stroke="#010101" stroke-width="0.75" stroke-linecap="round" stroke-linejoin="round" d="M74.88,108.52
				l0.68-0.07l0.58-0.65l-0.09,0.54l-0.5,0.69l0.7-0.36l-1.05,1.28l0.44,0.66l0.26-0.22l0.4,0.42l0.41-0.22l-0.49-0.3"/>
			<path fill="none" stroke="#010101" stroke-width="0.75" stroke-linecap="round" stroke-linejoin="round" d="M134.4,130.03
				l-0.58-0.11l-0.19,0.28l0.91,0.02l0.4,0.5l0.05-0.6L134.4,130.03"/>
			<path fill="none" stroke="#010101" stroke-width="0.75" stroke-linecap="round" stroke-linejoin="round" d="M131.39,110.51
				l0-0.48l0.53,0.49l-0.24,0.8L131.39,110.51"/>
			<path fill="none" stroke="#010101" stroke-width="0.75" stroke-linecap="round" stroke-linejoin="round" d="M129.93,134.81
				l0.23-0.28l0.41,0.39l0.54-0.05l0.4,1.53l0.25,0.19l-0.1,1.38l0.34,0.14l0.24,0.88l0.19-0.42l0.45,1.88l-0.03,1.74l-0.71,1.23
				l0.05,0.98l-0.43,0.5l-0.07-0.52l-0.47,0.24l-0.12,0.68l-0.39,0.05l-0.42,0.52l-0.44-0.58l0.44-0.47l-0.54,0.1l-0.12-0.37
				l0.67-0.53l-0.68,0.17l0-0.67l1.07-0.23l-0.72-0.27l0.15-0.34l-0.7,0.18l0.33-0.95l-0.72,0.44l0.59-0.65l-0.41-0.6"/>
			<path fill="none" stroke="#010101" stroke-width="0.75" stroke-linecap="round" stroke-linejoin="round" d="M109.75,91.33
				l-0.67-0.22l-0.58,0.19l-0.62,0.54l-0.3,0.91l0.35,0.59l0.08-0.66l0.35,0.1l-0.07-0.63l0.54,0.28l0.36-0.3l-0.41-0.64l0.52,0.27
				L109.75,91.33"/>
			<path fill="none" stroke="#010101" stroke-width="0.75" stroke-linecap="round" stroke-linejoin="round" d="M108.42,130.41
				l0.3-0.47l-0.74,0.25l0.38-0.72l-0.82-0.16l0.2-0.38l-0.88,0.28l-0.19-0.74l-0.25,0.94l-0.65-0.39l-0.77-0.08l0.66,0.84
				l-0.19,0.41l-0.58-0.1l0.1-0.35l-0.72,0.2l-0.22,0.4l-0.04-1.51l-0.34,0.41l-0.78-0.15l-0.38,0.27l-0.02,0.98l-0.3-0.28
				l-0.51,0.17l0.56-0.61l-0.17-0.64l0.88-0.63l-0.26-0.22l-0.88,0.09l-0.06,0.34"/>
			<path fill="none" stroke="#010101" stroke-width="0.75" stroke-linecap="round" stroke-linejoin="round" d="M132.41,145.02
				l-0.25-0.11l-0.68,0.78l0.57,0.37L132.41,145.02"/>
			<path fill="none" stroke="#010101" stroke-width="0.75" stroke-linecap="round" stroke-linejoin="round" d="M109.33,172.64
				l0.52-0.19l-0.69,1.16l0.71-0.38l0.18,0.64l-0.7,0.7l-0.18,1.02l-0.49,0.1l0.13,0.69l-1.88,1.68l-0.54,1.12l0.21,1.07l-0.57,1.23
				l-0.89,0.1l-0.63-0.42l0.13-0.71l-0.87,0.84l0.43-2.17l1.1-1.14l-0.2-0.65"/>
			<path fill="none" stroke="#010101" stroke-width="0.75" stroke-linecap="round" stroke-linejoin="round" d="M102.55,160.85
				l0.37-0.17l0.31,0.45l0.56,0.08l0.32,0.53l-0.59,0.05L102.55,160.85"/>
			<path fill="none" stroke="#010101" stroke-width="0.75" stroke-linecap="round" stroke-linejoin="round" d="M117.35,158.82
				l-0.95,0l-0.21,0.77l-0.54,0.66l0.52,0.08l-0.19,1.31l0.46-0.1l-0.11-0.62l0.44,0.1l0.5-0.61l-0.93,0.14l0.11-0.36l0.7,0
				l0.54-0.43l-0.78,0.07l0.79-0.36l0.09-0.49l-0.47,0.39L117.35,158.82"/>
			<path fill="none" stroke="#010101" stroke-width="0.75" stroke-linecap="round" stroke-linejoin="round" d="M119.83,110.72
				l1.36-0.52l-0.14-0.77l0.38,0.24l-0.08-1.16l0.33,0.46l0.41-0.52"/>
			<path fill="none" stroke="#010101" stroke-width="0.75" stroke-linecap="round" stroke-linejoin="round" d="M82.02,110.53
				l0.34-0.35l0.51,0.31l-0.52,0.26L82.02,110.53"/>
			<path fill="none" stroke="#010101" stroke-width="0.75" stroke-linecap="round" stroke-linejoin="round" d="M80.46,212.43
				l-0.48-0.07l-0.2,1.08l-0.64-0.22l0.17,0.9l-0.7,0.17l-0.26,0.67l0.36,0.36l0.05,0.58l0.57-0.06l-0.16-0.6l0.62-1.11l0.75-0.31
				l-0.17-0.42L80.46,212.43"/>
			<path fill="none" stroke="#010101" stroke-width="0.75" stroke-linecap="round" stroke-linejoin="round" d="M112.21,109.44
				l-0.01,0.81"/>
			<path fill="none" stroke="#010101" stroke-width="0.75" stroke-linecap="round" stroke-linejoin="round" d="M76.22,110.27
				l-0.75-0.22l0.94-0.53l0.77,0.59l-0.12-0.64l0.73-0.15l-0.91-0.28l0.07-0.25l0.98,0.03l0-0.28l0.92,0.9l-0.3-0.86l1.05-0.01
				l-0.68-0.35l0.6-0.19l0.64,0.63l-0.43-1.04l-0.5,0.08l-0.3-0.67l-0.85-0.05l0.24-0.46l1.42,0.44l0.04,0.25l1.4-0.05l-1.48-0.79
				l0.37-0.15l0.84,0.29l0.25-0.28l1.55,0.64l0.59-0.61l-0.53-0.25l-0.08,0.4"/>
			<path fill="none" stroke="#010101" stroke-width="0.75" stroke-linecap="round" stroke-linejoin="round" d="M139.78,199.4
				l0.49-0.04l-0.61,0.41l-0.68-0.25L139.78,199.4"/>
			<path fill="none" stroke="#010101" stroke-width="0.75" stroke-linecap="round" stroke-linejoin="round" d="M90.22,214.86
				l-0.57,0.07l0.39,0.27l-0.08,0.56l0.72-0.11l0.01-1.14L90.22,214.86"/>
			<path fill="none" stroke="#010101" stroke-width="0.75" stroke-linecap="round" stroke-linejoin="round" d="M73.56,142.52
				l-0.28,0.72l-0.72,0.04l-0.3,1.2l-0.97,0.29l-0.15-0.51l-0.96-0.03l-0.08,0.3l-0.75-0.26l-0.19-0.63l-0.4,0.04l-0.22,0.65
				l-0.31-0.48l0.33-0.07l-0.27-1.19l0.23-0.38l-0.85-0.17l-0.5,0.51l0.64,0.13l-0.52,0.48l0.06,0.53l-0.78-0.19l0.71,1.04
				l-0.12,0.35l-0.67-0.11l-0.57,0.8"/>
			<path fill="none" stroke="#010101" stroke-width="0.75" stroke-linecap="round" stroke-linejoin="round" d="M50.44,143.77
				l-0.47,0.26l0.65,0.19l-0.18,0.24l-1.21,0.29l-0.09,0.68l0.45-0.18l0.46,0.32l-0.06-0.43l0.43,0.09l0.18-0.39"/>
			<path fill="none" stroke="#010101" stroke-width="0.75" stroke-linecap="round" stroke-linejoin="round" d="M105.73,91.44
				l-0.48,0.78l0.55-0.32l-0.31,1.07l0.38-0.35l0.23-1.24L105.73,91.44"/>
			<path fill="none" stroke="#010101" stroke-width="0.75" stroke-linecap="round" stroke-linejoin="round" d="M113.12,141.69
				l-0.67-0.04l-0.67,0.28l-0.52-0.35l-0.62,0.59l-0.19,0.76l1.2-0.26l0.38-0.37l0.88-0.16l0.59,0.46l-0.71,0.19l-0.57,0.57
				l-1.01,0.04l-1.31,1.05l-0.29,0.79l0.61,0.34l0.56-0.62l0.3,0.67l0.49-0.31l0.07-0.44l1.57-1.18l0.8,0.22l1-0.65l0.18-0.66
				l-0.67-0.2l-0.37-0.54l-0.48,0.34L113.12,141.69"/>
			<path fill="none" stroke="#010101" stroke-width="0.75" stroke-linecap="round" stroke-linejoin="round" d="M126.93,199.49
				l0.32-0.4l0.67-0.28l-0.31-0.34l0.97,0.08l-0.33-0.36l0.89-0.02l-0.61-0.36l0.44-0.29l-0.59-0.07l0.08-0.78l0.54-0.51l0.65,0.69
				l-0.25-0.83L129,195.6l0.77,0.11l-0.09-0.36"/>
			<path fill="none" stroke="#010101" stroke-width="0.75" stroke-linecap="round" stroke-linejoin="round" d="M127.95,158
				l0.73-0.22l-0.03,0.52l0.35,0.02l-0.34,0.57l0.26,0.38l-0.13,0.51l-0.94-0.1l-0.19,0.37l0.41,0.55l-0.95,0.47l-0.29-0.27
				l-0.07-1.08l0.5-0.3l-0.25-0.74l0.66-0.11L127.95,158"/>
			<path fill="none" stroke="#010101" stroke-width="0.75" stroke-linecap="round" stroke-linejoin="round" d="M96.96,92.28
				l0.38-0.34l0.07,0.52L96.96,92.28"/>
			<path fill="none" stroke="#010101" stroke-width="0.75" stroke-linecap="round" stroke-linejoin="round" d="M120.09,159.6
				l-0.31-0.06l-0.93,0.55l-0.63,0.86l0.57,0.07l0.56-0.56l0.49,0.14l0.57-0.64L120.09,159.6"/>
			<path fill="none" stroke="#010101" stroke-width="0.75" stroke-linecap="round" stroke-linejoin="round" d="M121.24,92.23
				l0.62,0.03l-0.32,0.28L121.24,92.23"/>
			<path fill="none" stroke="#010101" stroke-width="0.75" stroke-linecap="round" stroke-linejoin="round" d="M110.53,159.74
				l-0.47,0.37l0.24,0.69l0.48,0.38l0.45-0.42l-0.47-0.14l0.53-0.45l-0.61,0.09L110.53,159.74"/>
			<path fill="none" stroke="#010101" stroke-width="0.75" stroke-linecap="round" stroke-linejoin="round" d="M118.26,91.52
				l-0.38-0.33l-0.16,0.37l0.49,0.11l-0.34,0.3l0.62,0.29L118.26,91.52"/>
			<path fill="none" stroke="#010101" stroke-width="0.75" stroke-linecap="round" stroke-linejoin="round" d="M74.22,125.49
				l-0.18,0.55l-0.67,0.71l-0.15-0.22l-0.55,0.78l-0.77,0.09l-0.33,1.2l-0.84,0.11l-0.2-0.26l-0.22,0.73l-0.33,0.22l-0.52-0.25
				l0.03-0.51l0.41-0.33l-0.48-0.4l0.79,0.09l0.41-0.69l0.24-0.85l-0.32-0.76l-0.67,0.12l-0.06,0.83l-0.57-0.13l0.02-0.66l-0.7-0.42
				l-0.2,0.47l-1.14,0.36l0.14-0.41"/>
			<path fill="none" stroke="#010101" stroke-width="0.75" stroke-linecap="round" stroke-linejoin="round" d="M115.29,126.71
				l-0.45-0.11l0.4,0.52l0.5,0.14l0.56,0.61l-0.63-0.25l0.13,0.97l0.65,0.17l-0.02,0.33l-1.12-0.58l-0.2-0.84l-0.75-0.43l0.21,0.36
				l-0.74-0.11l0.17,0.55l1.54,0.75l0.42,0.65"/>
			<path fill="none" stroke="#010101" stroke-width="0.75" stroke-linecap="round" stroke-linejoin="round" d="M75.9,144.28
				l0.24-0.19l0.43,0.62l-0.67,0.26L75.9,144.28"/>
			<path fill="none" stroke="#010101" stroke-width="0.75" stroke-linecap="round" stroke-linejoin="round" d="M182.31,128.35
				l0.77,0.83"/>
			<path fill="none" stroke="#010101" stroke-width="0.75" stroke-linecap="round" stroke-linejoin="round" d="M83.85,144.53
				l0.48-0.12l-0.02,0.53l-0.35,0.15L83.85,144.53"/>
			<path fill="none" stroke="#010101" stroke-width="0.75" stroke-linecap="round" stroke-linejoin="round" d="M88.7,145.18
				l-0.48-1.01l0.54-1.09l-0.75-0.45l-0.7-0.04l-0.98-0.57l0.68-0.44l-1.46,0.41l-0.23-0.25"/>
			<path fill="none" stroke="#010101" stroke-width="0.75" stroke-linecap="round" stroke-linejoin="round" d="M162.91,89.16
				l-0.61,0.05l0.36,0.83l-0.33,1.11l0.53,1l0.74-0.11l0.74-0.59l0.36-0.89"/>
			<path fill="none" stroke="#010101" stroke-width="0.75" stroke-linecap="round" stroke-linejoin="round" d="M118.49,123.63
				l0.86,0.26l0.14,0.29l0.45-0.36l0.77-0.07l0.06,0.42l1.52,0.63l-0.88,0.04l0.84,0.89l0.04,0.32l-0.82-0.82l-0.19,0.58l-0.17-0.71
				l-0.72-0.95l-0.22,0.93l-0.23-0.5l-0.87,0.6l-0.61-0.7l0.14,0.93l-0.79-1.09l-0.61,0.29l0.3,0.79l-0.38,0.11l-0.56-1.15
				l-0.22,0.52l-0.43-0.53l-0.96-0.65l0.19,0.69l-1.06-0.2l1.01,0.77l-0.8,0.04l0.44,0.97l0.87-0.19l0.7,0.08l-0.45,0.45l0.64,0.17
				l-0.1,0.39l0.78,0.44l0.53,0.67l0.3,0.01l0.83,0.61l-1.41-0.38l-0.61-0.71l-0.86-0.22l-0.03-0.41l-0.62-0.17"/>
			<path fill="none" stroke="#010101" stroke-width="0.75" stroke-linecap="round" stroke-linejoin="round" d="M72.91,143.91
				l0.23-0.18l0.43,0.79l-0.01-0.75l0.61-0.11"/>
			<path fill="none" stroke="#010101" stroke-width="0.75" stroke-linecap="round" stroke-linejoin="round" d="M93.3,85.52
				l0.61-0.06l0.18,0.57l0.6,0.24l-1.01-0.02l0.19,0.71l-0.54,1.73l0.25,0.4l-1.06,0.53l1.91,0.43L95,90.43l-0.06,0.35l-0.67-0.54
				l-0.46-0.03l-0.05,0.46l-0.46-0.26l-0.41,0.44l0.86,0.82l-0.8-0.38l-0.53,0.15l-1.26-1.77l-0.54-0.19l-1.21,0.21l-0.5-0.59
				l0.77,0.11l-0.15-0.59l1.08-0.02l-0.33-0.83l1.15,0.19l0.03-0.26l0.85-0.12l0.32,0.25l0.6-0.73l0.02-0.53l-0.49-0.26l-0.09-0.48
				l0.68,0.2L93.3,85.52"/>
			<path fill="none" stroke="#010101" stroke-width="0.75" stroke-linecap="round" stroke-linejoin="round" d="M91.53,127.71
				l0.23-0.3l0.59,0.5l0.05,0.52l0.37,0.05l0.42-0.5l0.43,0.33l-0.58,0.45l0.96,0.03l0.02,0.29l-1.61-0.35l-1.34-0.95l0.34-0.51
				L91.53,127.71"/>
			<path fill="none" stroke="#010101" stroke-width="0.75" stroke-linecap="round" stroke-linejoin="round" d="M87.49,85.11
				l-0.1,0.2l0.85,0.47l0.95,0.79l0.29-0.24l0.51,0.57l-0.92-0.01l-0.97,0.49l0.52,0.26l-0.16,0.44l-0.68-0.15l-0.51,0.22
				l-0.43-0.63l-0.86-0.2l0,0.38l-0.6,0.03l0.45,0.59l-0.06,0.47l0.94-0.15l0.31,0.16l0.43-0.36l0.55,0.51l-0.63,0.41l-0.61-0.01
				l0.51,0.68l1.84,1.11"/>
			<path fill="none" stroke="#010101" stroke-width="0.75" stroke-linecap="round" stroke-linejoin="round" d="M119.54,142.82
				l0.62,0.36l-1.5,0.88l1.19-0.25l0.62,0.31l0.28-0.59l1.25-0.12l0.15-0.48l0.99-0.68l-0.17,0.63l-0.39,0.15l-0.24,0.8l0.25,0.31
				l0.98-0.72"/>
			<path fill="none" stroke="#010101" stroke-width="0.75" stroke-linecap="round" stroke-linejoin="round" d="M97.1,128.84
				l-0.59-0.04l0.83-0.49l-0.65,0.07l0.41-0.52l-1.45-0.01l2.11-0.66l-0.43-0.74l1.14,0.37l-0.34-0.5l0.22-0.5l-0.82,0.28l-0.25-0.2
				l-0.71,0.19l0.1-0.4l-0.49-0.13l1.23-0.38l-0.55-0.2l-0.54,0.2l-0.69-0.34l0.78-0.44l-0.51-0.07l0.7-0.26l-0.41-0.16l-0.81,0.22
				l0.33-0.63l0.1-0.74l-0.4,0.18l-0.88,1l-0.17,0.64l-0.56-0.72"/>
			<path fill="none" stroke="#010101" stroke-width="0.75" stroke-linecap="round" stroke-linejoin="round" d="M181.27,128.55
				l0.05,0.25l0.68-0.4"/>
			<path fill="none" stroke="#010101" stroke-width="0.75" stroke-linecap="round" stroke-linejoin="round" d="M106.52,90.03
				l0.03,0.47l0.4-0.28l0.81,0.75l0.13-0.36l-0.57-0.18l-0.39-0.61L106.52,90.03"/>
			<path fill="none" stroke="#010101" stroke-width="0.75" stroke-linecap="round" stroke-linejoin="round" d="M136.09,174.98
				l-0.7,0.32l-0.54,0.86l-0.32,0.15l0.03,2.09l0.58,0.39l0.83-0.37l0.04-0.82l-0.44-1.16l0.12-0.78l0.66-0.56L136.09,174.98"/>
			<path fill="none" stroke="#010101" stroke-width="0.75" stroke-linecap="round" stroke-linejoin="round" d="M92.78,210.73
				l0.54-0.1l-0.16,1.13l-0.47-0.55l0.05,0.63l-0.46-0.43l-0.04,0.46l-0.59,0.24l-0.13,0.83l-0.5-0.5L89.87,214l-0.56-0.52l1.1-1.26
				L92.78,210.73"/>
			<path fill="none" stroke="#010101" stroke-width="0.75" stroke-linecap="round" stroke-linejoin="round" d="M92.13,137.92
				l-0.57,0.83l1.21-0.08l0.92-0.74l-0.82,0.92l-0.05,0.42l-0.38-0.4l-0.54,0.38l-1.29,0.22l-0.5,1.2l0.8-0.42l-1,1.19l0.36,0.21
				l-0.63,0.35l-1.52,0l1.15,0.18l0.49,0.28L90,143.5l0.58-0.01l0.89,0.64l0.12-0.46"/>
			<path fill="none" stroke="#010101" stroke-width="0.75" stroke-linecap="round" stroke-linejoin="round" d="M109.8,159.05
				l0.37,0.23l-0.26,0.59L109.8,159.05"/>
			<path fill="none" stroke="#010101" stroke-width="0.75" stroke-linecap="round" stroke-linejoin="round" d="M74.18,143.67
				l-0.33-0.18l0.09-0.69l0.41,0.43l0.01-0.45l0.49-0.12l-0.73-0.42l0.74-0.13l-0.19-0.52l0.56-0.39l1.43-0.13l-0.88-0.28l0.87-0.65
				l-0.68-0.25l0.61-0.61l0.35,1.19l0.29,0.4l0.33,1.5l0.34-0.87l0.66-0.31l0.46,0.41l0.73,0.09l0.55,0.95"/>
			<path fill="none" stroke="#010101" stroke-width="0.75" stroke-linecap="round" stroke-linejoin="round" d="M84.12,90.31
				l-0.25-0.26l-0.51,0.2l0.54,0.49l0.48,0.04L84.12,90.31"/>
			<path fill="none" stroke="#010101" stroke-width="0.75" stroke-linecap="round" stroke-linejoin="round" d="M165.7,159.25
				l-0.23-0.21l-0.39,0.87l0.54-0.18L165.7,159.25"/>
			<path fill="none" stroke="#010101" stroke-width="0.75" stroke-linecap="round" stroke-linejoin="round" d="M85.55,90.51
				l0.21-0.28l0.68,0.12l0.13,0.35L85.55,90.51"/>
			<path fill="none" stroke="#010101" stroke-width="0.75" stroke-linecap="round" stroke-linejoin="round" d="M88.5,143.12
				l-0.4,0.69"/>
			<path fill="none" stroke="#010101" stroke-width="0.75" stroke-linecap="round" stroke-linejoin="round" d="M45.59,136.5
				l-0.86,0.08l0.84,0.72l-0.47,0.41l0.01,0.89l0.55,0.85l0.15-0.46l0.78-0.25l-0.15,0.33l1.1,0.55l0.2-0.12l0.87,1.31l0.35-0.33
				l0.31,0.57l0.08-0.74l0.44,0.19l-0.5,0.83l0.16,0.52l0.35-0.23l1.02,0.33l0.49,0.53l-0.23,0.58l-0.46-0.19l-0.2,0.88"/>
			<path fill="none" stroke="#010101" stroke-width="0.75" stroke-linecap="round" stroke-linejoin="round" d="M123.56,143.44
				l0.34-0.88l0.68-0.9l0.3,0.15l0.74-0.91l0.45-1.09l-0.18,1.06l0.7-0.94l0.32-0.88l0.31-0.31l0.04-0.66l-0.29-0.49l0.61,0.14
				l-0.12,1.12l-0.47,0.7l0.69-0.12l1.46,0.05l-2.16,0.27l-0.84,1.8l-0.1,0.84"/>
			<path fill="none" stroke="#010101" stroke-width="0.75" stroke-linecap="round" stroke-linejoin="round" d="M120.69,105.9
				l-0.85-0.09l-0.23,0.48l0.06,0.93l1.07,0.16l0.19-0.62l-0.92-0.37L120.69,105.9"/>
			<path fill="none" stroke="#010101" stroke-width="0.75" stroke-linecap="round" stroke-linejoin="round" d="M114.39,88.76
				l0.43,1.25l-0.18,0.25l-0.09-0.88l-1.75-3.74"/>
			<path fill="none" stroke="#010101" stroke-width="0.75" stroke-linecap="round" stroke-linejoin="round" d="M109,127.5l0.64-0.73
				l0.55,0.84l-0.24-0.83l0.38-0.05l-0.73-0.65"/>
			<path fill="none" stroke="#010101" stroke-width="0.75" stroke-linecap="round" stroke-linejoin="round" d="M69.68,142.42
				l-0.11,0.5l-0.43-0.34L69.68,142.42"/>
			<path fill="none" stroke="#010101" stroke-width="0.75" stroke-linecap="round" stroke-linejoin="round" d="M133.18,127.87
				l-0.05-1.04l0.46,0.46l0.74-0.57l-0.7-0.48l0.31-0.32l-0.6-0.64l0.21-0.43l-0.74,0.23l-0.43-0.23l0.69-0.64l0.42-0.02l0.35-0.47
				l-0.64-0.29l-0.78,0.23l-0.01-0.57l-0.48-0.18l-0.52,1.94l-0.75-0.09l0.11,0.58l-1.01-0.79l-0.37,0.01l0.12-1.12l-0.81-0.96
				l0.51-1.47l0.51-0.69l-0.42-0.2l0.27-0.31l-0.37-0.35l-0.12-0.8l0.3-0.63l0.44,0.05l-0.27-0.53"/>
			<path fill="none" stroke="#010101" stroke-width="0.75" stroke-linecap="round" stroke-linejoin="round" d="M136.02,89.83
				L135,89.58l0.11-1.43"/>
			<path fill="none" stroke="#010101" stroke-width="0.75" stroke-linecap="round" stroke-linejoin="round" d="M98.77,122.66
				l-0.1,0.61l-0.38,0.02l0.58,1.33l0.77,0l-0.25,0.6l0.84,0.79l0.24-0.58l0.66,0.11l-0.19,0.58l0.51-0.12l0.2-0.77l0.02-1.06
				l0.19,0.52l0.55-0.17l-0.02-1.1l-0.18-0.71l0.26-0.08l0.26,1.48l0.43-0.54l0.11-0.6l0.29,0.6l-0.39,0.95l0.48,0.23l-0.49,0.28
				l0.03,0.83l0.48-0.55l-0.27,0.79l0.5-0.26l0.6,0.86l-0.22-0.8l0.45-0.25l0.09-0.67l-0.55-0.84l-0.34-1.11l1.04,1.32l0.92,1.35
				l-0.47,0.6l-0.03,0.5l0.62-0.16l0.86,0.2l-0.35-0.72l0.16-0.48l0.18,0.62l0.75,0.67l0.08-1.28l0.45,1.43l0.52-0.84l0.17,1.64
				l0.15-0.42"/>
			<path fill="none" stroke="#010101" stroke-width="0.75" stroke-linecap="round" stroke-linejoin="round" d="M123.49,120.91
				l0.18-0.53l1.27-1.31l-0.23,0.71l1.61,0.22l-0.55,0.14l-1.25-0.07l-0.04,0.31l0.93,0.19l0.31,0.31l-1-0.22l-0.88,0.79l0.35-0.07
				l0.16,0.49l0.46-0.07l0.35,0.7l1.03,0.19l1.5,0.1l-1.58,0.09l0.59,0.97l-0.82-0.92l-0.62,0.01l0.41,0.4l0.35,1.5l0.75,0.76
				l0.35,1.28l-0.54-1.22l-0.6-0.54l-0.38-0.64l-0.3-1.03l-0.76,1.89l0.31,0.91l-0.38-0.51l0.01,1.49l-0.31-0.04l0.04-1.8l0.76-1.87
				l-0.22-1.01l-0.77-0.16l-0.67-0.41l0.27,0.62l-0.05,0.69l-0.24-0.65l-0.4-0.06l-0.13,0.64l-0.19-0.51l-0.93-0.08l0.77,1.2
				l-1.25-1.1l0.2,0.72l-0.5-0.42L120.4,123l-0.98,0.64l-0.93-0.01"/>
			<path fill="none" stroke="#010101" stroke-width="0.75" stroke-linecap="round" stroke-linejoin="round" d="M80.28,142.65
				l-0.06-1.67l0.9-0.15l1.3,1.22l-0.08-0.76l0.6,0l0.02,0.37l0.89,0.08l0.09,0.53l0.27-0.46l0.83,0.07l0.57,0.4l0.54-0.01
				l0.51,0.48l1.63,0.2l0.2,0.17"/>
			<path fill="none" stroke="#010101" stroke-width="0.75" stroke-linecap="round" stroke-linejoin="round" d="M143.07,89.97
				l-0.34-0.26l-0.13-0.74l-0.41-0.92l-0.41-0.26l-0.33-1.21l0.34-0.21l-0.14-0.59l-0.83-1.06l-0.4-1.95l0.16-1.2l-0.31-0.18
				l-0.46-0.85l0.27-0.85l-0.28-0.04l0.12-1.56l-0.35-0.33l0.05-1.64l-0.67-1.01l-1.08-2.78l-0.27-1.39l0.01-0.76l-0.41-0.69
				l-0.64,0.34"/>
			<path fill="none" stroke="#010101" stroke-width="0.75" stroke-linecap="round" stroke-linejoin="round" d="M77.13,194.6
				l-0.06-0.35l-0.63,0.66L76,195.07l0.57,0.34l-0.8-0.06l0.93,0.46l0.16,0.44l0.57-0.69L77.13,194.6"/>
			<path fill="none" stroke="#010101" stroke-width="0.75" stroke-linecap="round" stroke-linejoin="round" d="M119.44,142.71
				l0.11,0.11"/>
			<path fill="none" stroke="#010101" stroke-width="0.75" stroke-linecap="round" stroke-linejoin="round" d="M105.1,177.34
				l0.31-0.45l0.36,0.12l0.21-0.68l0.68,0.36l1.24-0.54l0.68-0.52l-0.73-0.48l-0.19,0.41l-0.49-0.08l0.19-0.96l0.66-0.06l0.41-1.06
				l0.91-0.77"/>
			<path fill="none" stroke="#010101" stroke-width="0.75" stroke-linecap="round" stroke-linejoin="round" d="M73.27,138.02
				l1.01-0.02l0.29,0.96l-1.04,0.03l1.67,0.35l-0.64,0.79l0.39-0.02l-0.35,0.59l-0.57-0.73l-0.81,0.38l-0.06-0.45l-0.63-0.11
				l0.34,0.63l0.45,0.23l0.05,0.57l0.29-0.31l0.52,0.2l-0.14,0.7l-0.48-0.38l0,1.06"/>
			<path fill="none" stroke="#010101" stroke-width="0.75" stroke-linecap="round" stroke-linejoin="round" d="M118.3,142.23
				l0.65-0.13l-0.53,0.39L118.3,142.23"/>
			<path fill="none" stroke="#010101" stroke-width="0.75" stroke-linecap="round" stroke-linejoin="round" d="M78.46,125.95
				l-0.36,0.12l0.43,0.79L78.46,125.95"/>
			<path fill="none" stroke="#010101" stroke-width="0.75" stroke-linecap="round" stroke-linejoin="round" d="M120.96,141.18
				l0.15-0.35l0.62,0.58l0.52-0.4l-0.41,0.8l-0.59-0.3l-0.33,0.22l0.1,0.84l-0.5-0.07l-0.08-0.53l-1,0.74"/>
			<path fill="none" stroke="#010101" stroke-width="0.75" stroke-linecap="round" stroke-linejoin="round" d="M145.18,81.13
				l-0.81-0.1l-0.72,0.29l-0.42,0.88l0.47,0.81l0.34,1.14l-0.1,0.71l0.2,0.69l1.48,2.99l1.48,0.61l1.06-0.12l0.48-0.53l-0.08-1.23
				l0.24-0.76l-0.02-0.84l-0.48-0.82l-0.12-1.03l-0.91-1.13l-0.59-0.24l-0.09-0.4l-0.6-0.19L145.18,81.13"/>
			<path fill="none" stroke="#010101" stroke-width="0.75" stroke-linecap="round" stroke-linejoin="round" d="M108.63,86.79
				l-0.45-0.02l-1.2,1.27l0.71,0.42l-0.35-0.58l0.8-0.84L108.63,86.79"/>
			<path fill="none" stroke="#010101" stroke-width="0.75" stroke-linecap="round" stroke-linejoin="round" d="M55.42,123.96
				l-0.15-0.25l-0.19,0.97l0.15,0.29l-0.27,0.72l0.05,0.71l0.29,0.21l1.28-0.63l-0.86-1.32l0.06-0.65L55.42,123.96"/>
			<path fill="none" stroke="#010101" stroke-width="0.75" stroke-linecap="round" stroke-linejoin="round" d="M99.23,80.07
				l0.59-0.28l0.47,0.2l-0.22-1.09l0.46-0.7l-0.44-0.14l0.02-0.78l0.7-0.18l-0.49,0.55l0.72,0.87l-0.41,0l-0.12,0.89l0.74-0.84
				l-0.47,1.26l-0.28-0.17l0.3,1.02l0.6-0.57l-0.12,0.97l0.42,0.22l-0.74,0.07l0.99,0.41l0.87,0.88l1.51,0.38l0.25-0.18l1.3,0.45
				l1.67-1.31l0.85,0.05l0.73,0.78l1.25,0.93l0.81,0.28l1.13,0.67l1.07,1.64l0.34,1.19l0.67,1.22"/>
			<path fill="none" stroke="#010101" stroke-width="0.75" stroke-linecap="round" stroke-linejoin="round" d="M84.78,118.14
				l-0.74-0.19l-0.09,1.15l-0.74-0.46l-0.28,1.01l-0.65-0.07l-0.53,0.22l0.15-0.8l-0.28,0.29l-0.36-0.51l-0.33,0.05l-0.03,0.8
				l-0.65,0.18l0.41,0.31l-0.12,1.05l0.53-0.47l0.81-0.09l-0.23,0.74l0.26,0.75l-0.56,0.93l-0.11,0.61l-0.92,0.62l0.12,1.24
				l-0.41,0.32l1.45,0.54l0.04,0.42"/>
			<path fill="none" stroke="#010101" stroke-width="0.75" stroke-linecap="round" stroke-linejoin="round" d="M139.63,142.17
				l-0.46-0.03l0.47-0.35l-0.17-0.35l-0.67,0.01l0.73-0.42l-0.54-0.05"/>
			<path fill="none" stroke="#010101" stroke-width="0.75" stroke-linecap="round" stroke-linejoin="round" d="M147.05,75.11
				l-0.4,0.05l0.03,0.57l0.75,0.98l0.17,0.64l0.61,0.72l0.1,0.61l0.67,1.34l-0.05,0.27l1.37,1.64l0.48,0.84l0.5,0.36l0.08,0.54
				l0.86,0.61l0.6,0.77l0.8,0.55l0.44,0.72l0.23,1.73l-0.76-0.04"/>
			<path fill="none" stroke="#010101" stroke-width="0.75" stroke-linecap="round" stroke-linejoin="round" d="M126.66,104.31
				l0.48,0.1l-0.45,1.07L126.66,104.31"/>
			<path fill="none" stroke="#010101" stroke-width="0.75" stroke-linecap="round" stroke-linejoin="round" d="M100.19,82.79
				l-0.04-1.14l-0.59-0.66l-1,0.49l0.74,0.22L99,82.55l0.48,0.25l-0.51,0.5l0.34,0.69l-0.35,0.16l-0.11,1.52l-0.24,0.59l0.53,0.32
				l-0.05,0.62l-0.84-0.86l0.36-0.77l-0.77,0.65l-0.67,1.31l0.59,0.64l-0.67-0.32l-0.53,0.31l0.13-0.84l0.34,0.09l0.53-1.22
				l-0.53-0.23l0.36-0.24l0.29,0.3l0.49-0.74l-0.29-0.76l-0.55-0.41L97,84.53l0.26,0.69l-0.29,0.5l-0.87-0.12L96.07,85l-0.94-0.27
				l-0.62,0.02l-0.27-1.35"/>
			<path fill="none" stroke="#010101" stroke-width="0.75" stroke-linecap="round" stroke-linejoin="round" d="M129.67,195.35
				l-0.5-0.2l-0.01-0.64l0.8-0.66l0.36,0.75l0-0.82l0.25-0.21l0.41,0.57l0.06-0.72"/>
			<path fill="none" stroke="#010101" stroke-width="0.75" stroke-linecap="round" stroke-linejoin="round" d="M85.78,125.7
				l-0.47-0.69l-0.4,0.03l-0.14-0.71l-0.58,1.15l0.24,0.49l-0.62,0.35l0.24-1.06"/>
			<path fill="none" stroke="#010101" stroke-width="0.75" stroke-linecap="round" stroke-linejoin="round" d="M85.31,141.74
				l-0.24-0.38l-0.61,0.14l-0.31-0.3l-0.74,0.26l-0.13-0.49l0.98-0.3l-1,0.05l0.11-0.76l-0.42,0.97l-0.67-0.24l-0.41,0.38
				l-0.51-0.41l0.31-0.35l-0.13-0.47l-0.45,0.68l-0.99,0.1l-0.25-0.44l-0.26,1.06l-0.79-0.73l-0.54-0.04l-0.52-0.5l-0.24,0.43
				l0-0.84l1.37-0.18l-0.35-0.71l-0.81,0.29l-0.21-0.27l0.49-0.51l0.88-0.37l-0.44-0.04l-0.87,0.37l-0.17-0.31l-0.31,0.53
				l-0.62-0.08l-0.22-0.83l-0.08,0.91l-0.49-0.06l-0.15,0.51l-0.41,0.04l-0.48-0.81l-0.14-0.76l-0.39-0.04l-0.33,0.59l-0.33-1.12
				l-0.63,0.87l0.42-0.09l0.04,0.53"/>
			<path fill="none" stroke="#010101" stroke-width="0.75" stroke-linecap="round" stroke-linejoin="round" d="M108.33,141.76
				l-0.5-0.19l-0.35-0.64l0.65,0.15l0.23-0.5l-0.38-0.43l0.31-0.12l0.96,0.73l0.18,0.39l-0.15-1.66l-0.6-0.27l0.64-0.26l-0.22-0.4
				l0.2-0.45l-1.33,0.11l-0.21,0.55l-0.78,0.31l-0.77-0.25l0.93-0.08l-0.33-0.52l-1,0.14l0.34-0.25l1.72-0.49l-1.4-0.23l1.14-0.43
				l0.63,0.06"/>
			<path fill="none" stroke="#010101" stroke-width="0.75" stroke-linecap="round" stroke-linejoin="round" d="M67.32,125.86
				l-0.11-0.47l-0.92-0.62l-0.61-0.92l0.53-0.56l-0.1-0.33l0.78-0.05l-0.25-0.46l0.31-0.67l0.44-0.16l0.43-0.94l0.37,0l0.04-0.56
				l0.39-0.45l-0.46-1.72l0.21-0.46l-0.26-0.73l0.21-0.23l-0.6-0.43l0.16-0.19l1.03,0.56l0.51,0.66l-0.14,1.21l-0.32,0.08l0.42,0.45
				l-0.64,0.97l0.5,0.44l-0.18,0.47l0.65-0.24l0.17,0.45"/>
			<path fill="none" stroke="#010101" stroke-width="0.75" stroke-linecap="round" stroke-linejoin="round" d="M135.11,88.15
				l0.01-0.64l0.41,0.03l0.45-0.41l0.19,0.54l0.47-0.56l-0.59-0.12l0.13-0.71l-0.5,0.32l-0.36-0.23l-1.08-0.13l-0.09-0.43l0.92,0.38
				l0.13-0.34l0.46,0.27l0.23-0.88l-0.44-0.21l0.52-0.18l-0.14-0.75l-0.5,0.42l-0.67,0.12l-0.74-0.46l-0.03,0.51l-0.35-0.52
				l0.47-0.68l-0.28-0.36l0.34-1.13l0.64,0.31l-0.08-2.07l0.66,0.44l0.32-0.52l-0.29-0.18l0.32-0.42l-1.54-0.32l0.04-0.87
				l-0.58,0.32l0.66-0.75l-0.05-0.59l0.54,0.02l-0.04-0.41l0.68,0.39l-0.33-0.5l0.43-0.02l-0.03-0.68l-0.72,0.52"/>
			<path fill="none" stroke="#010101" stroke-width="0.75" stroke-linecap="round" stroke-linejoin="round" d="M123.69,125l-0.05,1
				l-0.3-0.5L123.69,125"/>
			<path fill="none" stroke="#010101" stroke-width="0.75" stroke-linecap="round" stroke-linejoin="round" d="M161.29,87.68
				l0.06-0.03"/>
			<path fill="none" stroke="#010101" stroke-width="0.75" stroke-linecap="round" stroke-linejoin="round" d="M109.59,126.08
				l-0.87-1.36l-0.28-0.02l-0.17-0.67l-0.69-0.71l0.62,0.26l-0.82-1.76l1.31,1.35l0.03,0.66l1.24,1.15l-0.1-0.47l0.88,0.68
				l-0.77-1.03l0.77,0.26l0.37,0.52l0.49-0.45l-0.95-0.25l0.04-0.35l-0.77-0.84l0.33-0.01l0.25-1.13l-1.06,0.46l0.08-0.6l-0.82-0.15
				"/>
			<path fill="none" stroke="#010101" stroke-width="0.75" stroke-linecap="round" stroke-linejoin="round" d="M118.7,105.15
				l0.08-0.37l0.6,0.21l-0.43,0.44L118.7,105.15"/>
			<path fill="none" stroke="#010101" stroke-width="0.75" stroke-linecap="round" stroke-linejoin="round" d="M161.29,87.59l0,0.09
				"/>
			<path fill="none" stroke="#010101" stroke-width="0.75" stroke-linecap="round" stroke-linejoin="round" d="M53.48,124.72
				l-0.66-0.27l-0.46,0.11l0.33,0.87l0.73,0.05L53.48,124.72"/>
			<path fill="none" stroke="#010101" stroke-width="0.75" stroke-linecap="round" stroke-linejoin="round" d="M93.81,123.88
				l0.3-0.37l-0.26-0.26l0.63-0.57l-0.36-0.04l-0.82,0.45l0.05-0.92l-0.69,0.06l0.01-0.51l-0.75,0.91l-0.67-1.11l0.06,0.92
				l-0.38,0.63l-0.06-0.6l-0.46-0.32l-1.29,0.04l-0.79,0.38l-0.12,0.63l-0.63-0.49l-0.25,0.53l-0.3,1.63l0.15,0.71l-0.54-0.52
				l-0.39-0.03l-0.32-0.65l-0.32,0.14l0.18,1.17"/>
			<path fill="none" stroke="#010101" stroke-width="0.75" stroke-linecap="round" stroke-linejoin="round" d="M90.97,137.34
				l-0.89,0.38l-0.66,0.97l0.09,0.24l-0.87,0.61l-0.24,1.29l0.31,0.33l0.54-0.12l0.28-0.73l0.4-0.13l0.31-1.26l0.69-1.04
				L90.97,137.34"/>
			<path fill="none" stroke="#010101" stroke-width="0.75" stroke-linecap="round" stroke-linejoin="round" d="M119.1,135.74
				l-0.56,0.1l-0.57,0.68l0.1,0.44l-0.45,0.02l0.03,0.53l-0.49,0.82l-0.51-0.2l0.33,0.64l-0.52,0.27l-0.16,0.55l0.84-0.29l0.99-1.51
				l0.25,0.7l-0.35,0.66l1.08-1l0.48-0.72l-0.53,1.64l0.57-0.08l-0.33,0.8l0.35-0.26l0.56,0.44l0.32-0.48l0.19-1.54l0.29,1.31
				l0.55-1.17l-0.48-1.28l0.45,0.25l0.16-0.55l0.38,0.36L122,137.4l0.99-0.35l-0.03-0.9l0.28,0.72l0.65-0.94l-0.32,1.07l0.53,0.61
				l-0.75-0.39l-0.79,0.76l-0.73,1.32l-0.83,0.64l1.33,0.12l-1.64,0.79l0.26,0.33"/>
			<path fill="none" stroke="#010101" stroke-width="0.75" stroke-linecap="round" stroke-linejoin="round" d="M127.25,123.58
				l-0.15,0.38l0.67,1.03l0.91,0.28l-0.6-0.84l-0.8-0.3L127.25,123.58"/>
			<path fill="none" stroke="#010101" stroke-width="0.75" stroke-linecap="round" stroke-linejoin="round" d="M153.85,140.77
				l0.32-0.2l-0.19,0.75L153.85,140.77"/>
			<path fill="none" stroke="#010101" stroke-width="0.75" stroke-linecap="round" stroke-linejoin="round" d="M93.61,210.53
				l0.5-0.25l-0.24,0.72L93.61,210.53"/>
			<path fill="none" stroke="#010101" stroke-width="0.75" stroke-linecap="round" stroke-linejoin="round" d="M119.39,189.73
				l-0.38-0.16l-0.12,1.05l-0.83,0.75l0.42,1.06l1.16,1.16l0.31,0.56l0.36-0.25l0.87,0.03l0.77-0.34l0.32-0.48l0.79-0.39l0.07-0.37
				l0.48,0.03l-0.35-0.52l0.19-0.61l-1.35-0.57l-1.61-0.01l-0.61-0.28l0.33-0.19L119.39,189.73"/>
			<path fill="none" stroke="#010101" stroke-width="0.75" stroke-linecap="round" stroke-linejoin="round" d="M138.99,140.97
				l0.51-0.21l-0.6-0.24l0.15-0.61l-0.73-1.48l0.52,0.38l-0.07-1.3l1.09-0.64l-0.72,0.19l-0.16-0.84l-0.92-0.58l0.79-0.01l0.42,0.58
				l-0.05-1.04"/>
			<path fill="none" stroke="#010101" stroke-width="0.75" stroke-linecap="round" stroke-linejoin="round" d="M129.21,141.09
				l-0.08-0.5l0.49-0.17l-0.52-0.29l0.41-0.31l1.03,0.32l1.36-0.11l0.34-0.26l-0.76-0.08l0.05-0.33l-1,0.07l0.88-0.76l0.04-0.64
				l-0.42-0.12l-0.03-1.15l-0.25,0.79l-0.43,0.44l0.01-0.63l-0.89,0.83l-0.5-0.21l1.45-1.34l0.17-1.39l-0.55,0.73l0.14-0.65
				l-0.23-0.53"/>
			<path fill="none" stroke="#010101" stroke-width="0.75" stroke-linecap="round" stroke-linejoin="round" d="M84.06,125.25
				l0.1-0.64l0.38-0.21l-0.41-0.39l0.44-0.34l0.14-0.63l-0.6,0.23l-0.32,0.93l-0.64-0.54l0.53-0.6l-0.83,0.15l0.36-0.56l0.51-0.31
				l-0.32-0.45l0.2-0.35"/>
			<path fill="none" stroke="#010101" stroke-width="0.75" stroke-linecap="round" stroke-linejoin="round" d="M180.97,139.18
				l-0.78,0.47l0.23,1.05l0.49-0.32l0.42-0.73L180.97,139.18"/>
			<path fill="none" stroke="#010101" stroke-width="0.75" stroke-linecap="round" stroke-linejoin="round" d="M124.55,156.54
				l0.39-0.1l-0.07,0.74l-0.45-0.25L124.55,156.54"/>
			<path fill="none" stroke="#010101" stroke-width="0.75" stroke-linecap="round" stroke-linejoin="round" d="M85.8,138.75
				l-0.32,0.12l0.08,1.28l0.52,0.16l0.04-0.75L85.8,138.75"/>
			<path fill="none" stroke="#010101" stroke-width="0.75" stroke-linecap="round" stroke-linejoin="round" d="M54.54,123.05
				l-0.64,0.95l0.85,0.06l0.12,0.43l0.19-1.12L54.54,123.05"/>
			<path fill="none" stroke="#010101" stroke-width="0.75" stroke-linecap="round" stroke-linejoin="round" d="M67.35,123.51
				l-0.43-0.18l-0.15,0.39l0.81,0.69l0.39-0.97L67.35,123.51"/>
			<path fill="none" stroke="#010101" stroke-width="0.75" stroke-linecap="round" stroke-linejoin="round" d="M126.86,180.6
				l0.55-0.07l0.38,0.97l-0.25,1.83l-0.3,0.42l-0.25,1.22l-0.4,0.44l0.13,0.53l-0.23,0.78l-0.73,1.43l-0.14,1.13l-0.22,0.05
				l0.03,1.61l0.45,0.05l-0.29,0.49l0.16,0.42l-0.27,0.78l-0.38,0.28l-0.87-0.13l-0.66-0.98l-0.02-0.45l0.44-0.2l-0.6-0.22
				l0.53-0.69l-0.35-0.23l0.05-0.55l0.44-0.55l-0.15-0.65l0.8-1.62l0-0.91l-0.61-1.57l-1.84-0.37l-0.31-0.97l0.3-0.62l0.56-0.4
				l1.25-0.19l1.14,0.13l1.35-1.15L126.86,180.6"/>
			<path fill="none" stroke="#010101" stroke-width="0.75" stroke-linecap="round" stroke-linejoin="round" d="M61.46,140.07
				l-0.15-0.41l-0.76-0.71l0.08-1.08l0.23-0.47l-0.43,0.08l-0.31-0.4l-0.3,0.61l-1.04,0.72l0.31,0.56l-0.46,0.6l-0.64-1.1l0.37-0.53
				l-0.06-0.76l-0.28,0.33l-0.91,0.15l-0.02-0.4l0.78-0.22l0.33-0.59l0.26,0.26l0.72-0.03l-0.05-0.8l0.75,0.21l0.1-0.7l-0.21-0.37"
				/>
			<path fill="none" stroke="#010101" stroke-width="0.75" stroke-linecap="round" stroke-linejoin="round" d="M97.03,123.19
				l0.63,0.74l0.16,0.64l0.38-0.01l-0.23-0.89L97.17,123l0.14-0.3l0.51,0.46l-0.32-1.31l0.58,1l0.44,0.25l0.25-0.44"/>
			<path fill="none" stroke="#010101" stroke-width="0.75" stroke-linecap="round" stroke-linejoin="round" d="M178.2,140.27l0-0.49
				l-0.48-0.49l-0.52-0.01l0.39,0.6L178.2,140.27"/>
			<path fill="none" stroke="#010101" stroke-width="0.75" stroke-linecap="round" stroke-linejoin="round" d="M113.57,137.09
				l-1.1,0.19l-0.61-0.11l-0.79,0.15l-0.22,0.41l1.06-0.35l0.7,0.12l-0.42,0.37l1.52,0.39l-1.05,0.37l0.05,0.55l-0.37-0.35
				l-1.1-0.28l-0.07,0.23l0.75,0.17l0.27,0.57l0.92,0.05l0.46,0.33l0.08-0.59l0.67-0.17l0.02-0.27"/>
			<path fill="none" stroke="#010101" stroke-width="0.75" stroke-linecap="round" stroke-linejoin="round" d="M121.23,192.15
				l0.55-0.24l0.07,0.54L121.23,192.15"/>
			<path fill="none" stroke="#010101" stroke-width="0.75" stroke-linecap="round" stroke-linejoin="round" d="M130.93,123.39
				l0.6-0.1l-0.07,0.75L130.93,123.39"/>
			<path fill="none" stroke="#010101" stroke-width="0.75" stroke-linecap="round" stroke-linejoin="round" d="M61.34,133.39
				l-0.41-0.12l0.11,0.53l1.07,1.01l-0.14,0.69l-0.47,0.05l-0.67-0.5l1.18,1.51l0.03,0.97l-0.23,0.71l0.67,0.65l0.29-0.35
				l-0.65-0.27l-0.05-0.38l1.14-0.31l0.43,0.42l0.64-0.27l-0.19,0.41l0.6,1.16l0.56-0.8l-0.48-0.78l0.43-0.04l-0.21-1.18l-0.76-0.33
				l0.08-0.75l-0.23-0.62l-0.59-0.04l0.12-0.6l-0.44,0.1l-0.31,0.54l-0.62-0.85l-0.62-0.15L61.34,133.39"/>
			<path fill="none" stroke="#010101" stroke-width="0.75" stroke-linecap="round" stroke-linejoin="round" d="M182.2,137.87
				l-0.46-0.01l-0.01,0.53l1.24,0.8"/>
			<path fill="none" stroke="#010101" stroke-width="0.75" stroke-linecap="round" stroke-linejoin="round" d="M133.59,139.25
				l-0.62-0.17l0.51-0.72l-0.43-0.53l0.15-0.3l-0.54-0.82l-0.55,0.27l-0.19-0.79"/>
			<path fill="none" stroke="#010101" stroke-width="0.75" stroke-linecap="round" stroke-linejoin="round" d="M85.11,138.53
				l-0.94,0.3l0.39,0.37l0.65,0.12L85.11,138.53"/>
			<path fill="none" stroke="#010101" stroke-width="0.75" stroke-linecap="round" stroke-linejoin="round" d="M116.97,123.3
				l1.11,0.06l-0.2-0.36l0.76,0.16l-0.1-0.63l0.39,0.32l1.72-0.43l0.67-1.37l0.05,0.69l-0.23,0.54l0.46-0.31l0.76-0.03l-0.03-0.33
				l1.2-0.43l-0.06-0.26"/>
			<path fill="none" stroke="#010101" stroke-width="0.75" stroke-linecap="round" stroke-linejoin="round" d="M71.87,121.26
				l-0.72,0.17l-0.49,0.85l0.23,0.16l-0.34,1l1.1,0.24l0.72-0.48l-0.73-0.19l0.36-0.67l-0.31-0.27l0.51-0.18l0.65,0.38l-0.65-1.2
				L71.87,121.26"/>
			<path fill="none" stroke="#010101" stroke-width="0.75" stroke-linecap="round" stroke-linejoin="round" d="M41.83,139.05
				l0.09-0.59l0.69,0.14l-0.23-0.45l-0.72-0.17l0.18-0.34l-0.24-0.53l0.33-0.38l-0.38-0.32l1.13-0.3l-0.64-0.68l-0.42,0.42"/>
			<path fill="none" stroke="#010101" stroke-width="0.75" stroke-linecap="round" stroke-linejoin="round" d="M175.66,138.45
				l-0.83-0.06l0.71,0.63l0.74,0.03L175.66,138.45"/>
			<path fill="none" stroke="#010101" stroke-width="0.75" stroke-linecap="round" stroke-linejoin="round" d="M82.7,138.56
				l0.56,0.28l0.05-0.61l0.71,0.24l-0.39-0.82l0.49,0.2l0.3,0.6l0.31-0.32l-1.02-0.83l0.52-0.39l0.06,0.58l0.48,0.16L84.55,137
				l0.29-0.84l0.08,1.24l0.28-0.2l-0.23-0.55l0.15-0.58l0.27,0.5l0.51-0.36l-0.49,0.97l0.26,0.81l0.48-1.62l0.72-0.34l0.42-0.94
				l0.45-0.14l1.05,0.23l-0.04-0.4l0.94-0.17l0.15-0.3l0.4,0.63l0.14-0.62l0.32,0.3"/>
			<path fill="none" stroke="#010101" stroke-width="0.75" stroke-linecap="round" stroke-linejoin="round" d="M126.54,100.35
				l1.26,0.65l-0.22,0.7l-0.42,0.17l-0.28,0.62l-0.49-0.07l-0.41-0.52l0.89-0.3l-0.34-0.94l-0.92-0.36L126.54,100.35"/>
			<path fill="none" stroke="#010101" stroke-width="0.75" stroke-linecap="round" stroke-linejoin="round" d="M98.68,115.7
				l0.64-0.25l-0.67,0.79l1.33-0.69l-0.44,0.62l0.54-0.17l0.01,0.62l-0.61-0.08l0.37,0.51l1.24-0.1l-1.08,0.49l-1.27-0.22l0.97,0.46
				l-0.8-0.02l0.35,0.42l-0.57-0.16l-0.66,0.36l0.42-0.89l-0.94-0.26l-0.06,0.59L96.93,117l-0.77,0.03l0,0.38l-0.77,0.53l-0.47,0.7
				l-1.04-0.08l-0.29,0.34l-0.19,0.9l1.29-0.95l0.53,0.13l-0.41,0.34l-0.43,0.95l0.33,0.77l0.34-0.98l0.59-0.15l-0.14,0.65
				l0.53-0.57l0.09,0.61l-0.31,0.52l0.53,0.32l0.09,0.92l0.44,0.12l0.14,0.7"/>
			<path fill="none" stroke="#010101" stroke-width="0.75" stroke-linecap="round" stroke-linejoin="round" d="M52.86,122.71
				l0.45-0.26l0.59,0.49l-0.21,0.31L52.86,122.71"/>
			<path fill="none" stroke="#010101" stroke-width="0.75" stroke-linecap="round" stroke-linejoin="round" d="M112.45,118.85
				l0.24-0.76l-1.22-0.52l0.75-0.01l-0.21-0.45l0.99,0.73l0.62-0.62l-0.59,1.43l0.76,0.41l0.31-0.36l0.52,0.74l0.49-0.56l-0.12,0.56
				l0.81,0.39l0.2,0.53l0.99,0.27l0.04-0.45l0.37,0.55l0.94,0.33l1.38-0.56l0.86-0.98l0.27,0.01l-1.01,1.14l0.38,0.18l-1.27,0.15
				l-0.73,0.37l-1.29-0.37l-0.86-0.01l-0.66-0.71l-0.62,0.15l1.44,1.29l-1.66-0.3l0.03,0.47l0.48,0.36l-0.35,0.4l0.81,0.21
				l0.87-0.14l-0.16,0.36l0.63-0.2l0.11,0.44"/>
			<path fill="none" stroke="#010101" stroke-width="0.75" stroke-linecap="round" stroke-linejoin="round" d="M100.08,138.78
				l0.31-0.99l0.48,0.51l0.25-0.2l-0.48-1.39l-0.35-0.63l0.43-0.12l0.78,1.03l0.28-0.16l-0.5-0.78l0.36-0.26l0.7,0.68l0.12-0.16"/>
			<path fill="none" stroke="#010101" stroke-width="0.75" stroke-linecap="round" stroke-linejoin="round" d="M112.8,121.08
				l-0.65,0.1l-0.43-0.21l-0.24,0.4l0.83,0.05l0.06,0.66l0.51,0.06l-0.01,0.42l0.62-0.04l-0.47-0.35l0.52-1.03l-0.51,0.24
				L112.8,121.08"/>
			<path fill="none" stroke="#010101" stroke-width="0.75" stroke-linecap="round" stroke-linejoin="round" d="M95.84,132.81
				l-0.46,0.21l0.53,0.58l0.75,0.47l-0.06,0.52l1.28-0.24l-0.17,0.42l0.92,0.35l-1.43,0.55l1.05,0.1l-0.53,0.5l0.03,0.77l0.88-0.71
				l-0.44,1.01l0.2,0.39l0.75-0.62l-0.28,0.81l0.8-0.22l0.02,0.55l0.42,0.55"/>
			<path fill="none" stroke="#010101" stroke-width="0.75" stroke-linecap="round" stroke-linejoin="round" d="M114.34,138.85
				l0.56-0.4l0.25-1.27l0.56,0.24l0.98-0.63l0.27-1.09l1.22-0.4l-0.38-0.46l0.58,0.17l0.15,0.44l1.99-1.09l-0.24,0.63l-0.45,0.11
				l-0.73,0.63"/>
			<path fill="none" stroke="#010101" stroke-width="0.75" stroke-linecap="round" stroke-linejoin="round" d="M89.46,189.65
				l-0.7,0.01l-0.34-0.27l-0.3,0.73l0.15,1.1l0.67-0.08l-0.24-0.81L89.46,189.65"/>
			<path fill="none" stroke="#010101" stroke-width="0.75" stroke-linecap="round" stroke-linejoin="round" d="M77.27,133.73
				l0.55-0.15l0.01-0.34l0.85,0.52l0.46-0.58l0.69-0.19l0.02,0.42l-0.47,0.86l0.56-0.45l-0.32,0.85l0.41-0.36l-0.23,0.75l0.52-0.61
				l0.3,0.6l0.13-1.06l0.29-0.27l0.3,1.02l0.4-0.45l1.13,0.45l0.04,0.52l0.58,0.2l-0.91,1.54l0.23,0.14l-0.44,1.21l0.31,0.19"/>
			<path fill="none" stroke="#010101" stroke-width="0.75" stroke-linecap="round" stroke-linejoin="round" d="M128.47,120.37
				l0.45-0.12l-0.08,0.9l-0.68,0.4l-0.01,0.58l-0.76,0.13l-0.42-0.47l-0.13,0.41l-0.76-0.15l-0.66-0.37l0.3-0.32l0.64,0.42
				l0.14-0.64l1.4,0.81l-0.26-0.6l1-0.19l-0.24-0.41l-0.49,0.03l-0.99-0.35L128.47,120.37"/>
			<path fill="none" stroke="#010101" stroke-width="0.75" stroke-linecap="round" stroke-linejoin="round" d="M156.13,94.99
				l-0.34-0.26l-1.34,0.41l-0.18,0.92l-0.26,0.29l0.32,2.46l0.47,0.75l0.65-0.47l0.24,0.92l0.58,1.4l0.5,0.02l-0.37-1.63l0.23-0.69
				l-0.18-2.95l0.34-0.35l0.07-0.7L156.13,94.99"/>
			<path fill="none" stroke="#010101" stroke-width="0.75" stroke-linecap="round" stroke-linejoin="round" d="M90.7,134.61
				l0.06-0.57l0.6-0.61l0.02,0.52l0.55-0.12l0.18-0.43l-0.7-1.15l0.42,0.15l-0.32-1.21l-0.8-1.29l1.09,0.84l0.28,0.55l0,0.71
				l0.27,0.63l0.33-0.14l0.03-1.3l0.35,1.21l0.7-0.37l-0.99,1.17l0.22,0.16l-0.5,1.01l0.98-0.73l0.66,0.01l-0.77,0.42l-0.13,0.69
				l-0.73,0.91l0.4-0.1l0.55-0.64l-0.12,0.72l-0.73,0.63l0.25,0.24l-0.39,1.04l-0.32,0.36"/>
			<path fill="none" stroke="#010101" stroke-width="0.75" stroke-linecap="round" stroke-linejoin="round" d="M86.55,137.11
				l0.22,0.21l-0.42,0.55L86.55,137.11"/>
			<path fill="none" stroke="#010101" stroke-width="0.75" stroke-linecap="round" stroke-linejoin="round" d="M69.87,120.96
				l0.41-0.04l-0.18-0.71l1.22-0.35l-0.67-0.4l0.65-0.28"/>
			<path fill="none" stroke="#010101" stroke-width="0.75" stroke-linecap="round" stroke-linejoin="round" d="M130.91,148.79
				l0.68,0.15l0.21,0.64l-0.26,0.7l0.24,0.7l-0.27,0.49l0.46-0.07l0.35,0.55l-0.69,0.03l0.43,1.01l-0.26,0.03l-0.27,0.77l-0.09-0.51
				l-0.38,0.95l-0.06-0.43l-0.85,0.7l-0.66-0.03l0.11-1.85l0.71-0.41l0.07-1.27l0.24-0.78l0.66-0.28l-0.21-0.46l0.49-0.12
				L130.91,148.79"/>
			<path fill="none" stroke="#010101" stroke-width="0.75" stroke-linecap="round" stroke-linejoin="round" d="M83.59,121.55
				l-0.04-0.64l0.95-0.97l-0.17-0.23l1.06-0.26l-0.03-0.28l-1-0.03l-0.21-0.43l0.65-0.57"/>
			<path fill="none" stroke="#010101" stroke-width="0.75" stroke-linecap="round" stroke-linejoin="round" d="M108.72,121.61
				l0.79-0.31l-0.56-0.23l0.49-0.19l-0.95-0.24l0.07-0.27l-0.75-0.28l0.05-0.38l0.73,0.31l0.1-0.41l0.32,0.5l0.95,0.48l-0.09-0.49
				l0.46,0.28l0,0.51l0.79,0.3l0.37-0.37l-0.54-0.28l-0.25-0.53l1.03,0.61l1.14-0.13l-0.58-1.5l0.17-0.15"/>
			<path fill="none" stroke="#010101" stroke-width="0.75" stroke-linecap="round" stroke-linejoin="round" d="M130.05,121.31
				l0.8-0.09l-0.38,0.42L130.05,121.31"/>
			<path fill="none" stroke="#010101" stroke-width="0.75" stroke-linecap="round" stroke-linejoin="round" d="M107.48,116.47
				l-0.05-0.36l-1,0.48l-0.38-0.5l-0.43,0.55l-0.42-0.26l-0.11,0.8l-0.45-0.28l-0.46,0.47l0.26,0.62l0.7,0.49l-0.37,0.63l0.49-0.11
				l-0.19,0.87l0.62,0.24l-0.25,1.09l1.17,0.22l-0.78-0.8l0.39-0.93l0.53,0.55l-0.15-0.75l0.28-0.62l-0.22-0.3l0.9-1.07l0.83,0.55
				l0.24,0.39l-0.38,0.44l0.65-0.14l1.03,0.06l0.36-0.22l0.67,0.1l0.28-0.3l-0.66-0.37l-0.63,0.28l0.1-0.51l0.45-0.33l-0.34-0.33
				l-0.35,0.52l-0.35-0.07l-0.18-0.82l-0.21,0.48l-0.36-0.28l-0.48,0.32l0.36-0.63l-0.47,0.33l-0.93-0.12L107.48,116.47"/>
			<path fill="none" stroke="#010101" stroke-width="0.75" stroke-linecap="round" stroke-linejoin="round" d="M119.21,204.79
				l-0.95-0.1l0.75,0.49l-0.17,0.39l0.38,0.29L119.21,204.79"/>
		</g>
	</g>
	<g id="Layer_4">
		<path opacity="0.8" fill="#929092" d="M48.03,145.07c0.72-0.21,1.45-0.49,2.18-0.8c2.27-0.94,4.59-1.83,7.03-2.15
			s5.03-0.02,7.11,1.28c1.19,0.74,2.16,1.77,3.28,2.62c3.96,2.99,8.83-0.63,13.3-0.1c2.22,0.26,4.3,1.18,6.34,2.09
			c2.71,1.21,6.57,2.06,8.17,4.74c1.7,2.86,0.32,5.21,0.32,8.14c-0.67,2.33-2.77,5.78-2.06,8.27c1.21,4.26,33.96-6.25,36.76-7.53
			c19.45-8.88,14.03-35.23,12.75-52.09c-0.17-2.25-0.3-4.54-1-6.69c-1.76-5.43-7.57-7.14-11.88-10.07
			c-4.88-3.32-9.8-6.59-14.82-9.71c-4.65-2.9-11.8-8.69-17.61-8.69c-3.96,0-8.21-0.07-11.54,2.43c-6.22,4.68-4.73,14.04-3.75,20.64
			c0.07,0.49,0.14,1.01-0.04,1.47c-0.16,0.4-0.5,0.71-0.84,0.98c-5.36,4.31-13.74,1.7-18.71,5.91c-3.7,3.14,2.23,15.86-2.54,16.46
			c-4.77,0.59-9.28,0.88-10.65,3.78c-1.65,3.51-6.9,3.68-9.25,6.53c-0.83,1.01-1.2,2.35-1.24,3.67c-0.07,2.55,0.75,5.4,2.43,7.35
			C43.62,145.71,45.76,145.74,48.03,145.07z"/>
		<path opacity="0.8" fill="#6B6A6B" d="M101.4,164.95c0.06,0.16,0.14,0.31,0.24,0.45c1.71,2.35,10.73-3.67,12.68-4.71
			c3.96-2.12,7.84-4.38,11.85-6.4c5.81-2.93,10.71-9.11,12.08-15.54c0.55-2.6,0.43-5.27,0.37-7.92c-0.06-2.64,0.47-5.43,0.06-8.03
			c-0.63-3.93-0.88-7.9-1.18-11.86c-0.25-3.22,0.03-7.15-1.7-10c-0.81-1.32-2.05-2.32-3.39-3.1c-1.32-0.76-2.75-1.33-4.25-1.58
			c-1.34-0.23-2.71-0.21-4.05-0.45c-4.29-0.78-7.52-4-11.21-6.05c-1.83-1.01-3.83-1.59-5.71-2.5c-2.39-1.15-4.82-2.45-7.49-2.75
			c-3.35-0.37-6.88,2.03-6.55,5.69c0.22,2.48,2.17,4.62,2.09,7.1c-0.09,2.95-2.99,5.56-5.29,7.08c-4.36,2.88-9.94,2.99-14.92,4.59
			c-2.17,0.7-4.33,1.76-5.68,3.59c-3.1,4.23-0.38,13.11-6.01,15.47c-2.97,1.24-6.14,1.84-9.25,2.63c-2.27,0.57-7.07,1.32-8.14,3.74
			c-0.37,0.83-0.38,1.78-0.22,2.67c0.18,0.97,0.6,1.94,1.4,2.5c0.56,0.39,1.25,0.54,1.93,0.62c4.42,0.51,8.31-1.58,12.59-1.94
			c4.48-0.38,9.03,1.52,13.22,2.92c5.69,1.9,11.27,4.2,16.76,6.59c4.68,2.05,10.84,5.76,10.16,11.74c-0.14,1.26-0.48,2.5-0.57,3.76
			C101.17,163.83,101.19,164.43,101.4,164.95z"/>
		<path opacity="0.8" fill="#49494B" d="M104.05,140.62c13.12-4.46,8.54-0.3,12.9-0.94c4.35-0.63,15.45-6.16,17.26-11.79
			c1.3-4.03-1.23-9.12-5.33-11.94c-2.43-1.67-5.5-2.56-8.88-2.4c-1.77,0.09-3.35,0.69-5.07,0.58c-2.71-0.17-5.61-1.44-8.42-1.74
			c-0.93-0.1-1.97-0.15-2.7,0.27c-1.32,0.77-0.55,2.26-0.23,3.46c0.49,1.83-0.5,3.83-2.49,5.03c-3.62,2.18-8.09,0.88-9.69,4.57
			c-1,2.31-0.65,5.05,0.05,7.37C92.67,137.16,96.96,143.03,104.05,140.62z"/>
		<path opacity="0.8" fill="#2B2E31" d="M103.74,129.55c-0.48,4.97,4.9,3.29,8.22,4.64c4.2,2.37,11.45-0.53,11.45-3.62
			c0-3.09-3.98-2.07-2.88-5.34c1.1-3.27-1.04-8.42-7.53-6.96C106.51,119.73,102.18,124.29,103.74,129.55z"/>
		<path opacity="0.8" fill="#929092" d="M104.89,211.51c0.31,0.04,0.67,0.03,1.09-0.02c1.34-0.17,2.52-0.96,3.8-1.37
			c1.79-0.57,3.72-0.39,5.59-0.18c5.33,0.58,10.66,1.28,16.02,1.31c3.9,0.02,7.87-0.32,11.46-1.84c6.59-2.79,10.59-10.07,7.78-17.04
			c-2.76-6.83-10.13-5.01-15.19-8.64c-0.35-0.25-0.7-0.57-0.76-1c-0.12-0.87,0.95-1.33,1.72-1.76c3.15-1.76,3.17-7.26-0.28-8.67
			c-1.77-0.72-3.79-0.42-5.63,0.09c-6.28,1.71-11.99,5.59-16.31,10.42c-2.6,2.91-4.42,6.42-5.49,10.16
			c-1.09,3.85-1.95,7.41-3.68,11.02C104.25,205.55,101.53,211.1,104.89,211.51z"/>
		<path opacity="0.8" fill="#6B6A6B" d="M120.61,182.58c0.07,0.88,0.6,1.75,0.48,2.64c-0.19,1.37-1.76,2.05-3.13,2.29
			c-1.36,0.24-2.93,0.4-3.76,1.5c-0.76,1.01-0.61,2.41-0.91,3.64c-0.17,0.72-0.51,1.39-0.84,2.05c-1.48,2.98-2.92,6.06-3.39,9.36
			c-0.08,0.55-0.09,1.2,0.35,1.54c0.22,0.17,0.52,0.22,0.8,0.26c1.8,0.26,3.6,0.52,5.41,0.49c3.37-0.04,6.66-1.04,10.02-1.36
			c3.57-0.34,7.22,0.11,10.6,1.31c0.96,0.34,1.97,0.75,2.98,0.59c0.82-0.13,1.54-0.61,2.2-1.13c1.59-1.25,3.04-2.91,3.28-4.92
			c0.19-1.64-0.48-3.3-1.58-4.54c-1.1-1.23-2.58-2.07-4.13-2.64c-0.45-0.17-0.92-0.32-1.25-0.67c-0.64-0.68-0.46-1.77-0.67-2.68
			c-0.66-2.77-4.21-2.98-5.8-4.98c-2.25-2.82,2.1-6.41,2.95-8.98c0.09-0.27,0.16-0.56,0.08-0.83c-0.21-0.68-1.17-0.69-1.87-0.54
			c-3.88,0.88-7.54,2.72-10.56,5.32c-0.55,0.47-1.1,1.02-1.24,1.73C120.6,182.22,120.6,182.4,120.61,182.58z"/>
		<path opacity="0.8" fill="#929092" d="M124.98,72.84c0.02,0.1,0.03,0.19,0.05,0.29c0.25,1.19,0.88,2.26,1.52,3.3
			c4.53,7.47,9.43,14.83,15.31,21.33c2.41,2.66,8.63,9.62,12.73,8.67c3.18-0.74,6.35-6.55,7.59-9.19c3.43-7.3,3.75-17.01-2.22-23.12
			c-5.15-5.27-11.77-10.4-19.07-12.12c-5.56-1.31-10.92,0.69-14.3,5.29C125.41,68.89,124.67,70.9,124.98,72.84z"/>
		<path opacity="0.8" fill="#929092" d="M176.57,135.87c-5.78,2.6,0.93,11.88,5.21,10.46S182.36,133.26,176.57,135.87z"/>
		<path opacity="0.8" fill="#929092" d="M161.29,115.59c-5.09,6.93-15.63,28.3-7,28.81c8.63,0.51,22.07-23.69,17.77-29.48
			C167.77,109.13,161.29,115.59,161.29,115.59z"/>
		<path opacity="0.8" fill="#929092" d="M178.2,125.81c-2.28,4.14,5.27,13.41,5.87,5.71S180.48,121.67,178.2,125.81z"/>
		<path opacity="0.8" fill="#6B6A6B" d="M142.14,92.08c0.07,0.1,0.14,0.19,0.21,0.29c0.41,0.49,0.98,0.82,1.53,1.14
			c1.77,1.03,4.89,3.8,7.05,3.6c2.59,0.18,3.52-3,4.02-4.97c4.61-9.34-2.02-19.02-9.53-24.23c-3.25-2.25-12.61-3.44-11.99,2.53
			c0.74,7.12,5.61,13.5,8.02,20.13C141.65,91.09,141.84,91.62,142.14,92.08z"/>
		<path opacity="0.8" fill="#929092" d="M162.31,161.62c2.86,5.56,7.13-1.43,7.96-7.11S159.44,156.07,162.31,161.62z"/>
		<path opacity="0.8" fill="#2B2E31" d="M142.47,81.35c0.31,2.63,1.35,8.03,4.41,8.81c3.37,0.87,1.96-4.99,1.23-6.37
			C147,81.7,144.76,80.38,142.47,81.35z"/>
	</g>
</g>
</svg>
