<?xml version="1.0" encoding="utf-8"?>
<!-- Generator: Adobe Illustrator 25.0.1, SVG Export Plug-In . SVG Version: 6.00 Build 0)  -->
<svg version="1.1" xmlns="http://www.w3.org/2000/svg" xmlns:xlink="http://www.w3.org/1999/xlink" x="0px" y="0px"
	 width="283.46px" height="283.46px" viewBox="0 0 283.46 283.46" enable-background="new 0 0 283.46 283.46" xml:space="preserve">
<g id="guides">
	<rect fill="#E9C8E0" width="283.46" height="283.46"/>
</g>
<g id="logo">
	<rect x="14.17" y="80.43" fill="#2B2E31" width="66.99" height="35.89"/>
	<path fill="#2B2E31" d="M253.11,117.16h-34.64c-8.93,0-16.18-7.24-16.18-16.18v-3.54c0-8.93,7.24-16.18,16.18-16.18h34.64
		c8.93,0,16.18,7.24,16.18,16.18v3.54C269.29,109.91,262.05,117.16,253.11,117.16z"/>
	<path fill="#2B2E31" d="M253.12,202.2h-34.64c-8.93,0-16.18-7.24-16.18-16.18v-3.54c0-8.93,7.24-16.18,16.18-16.18h34.64
		c8.93,0,16.18,7.24,16.18,16.18v3.54C269.29,194.95,262.05,202.2,253.12,202.2z"/>
	<polygon fill="#2B2E31" points="180.42,184.25 142.33,211.22 104.23,184.25 142.33,157.29 	"/>
	<polygon fill="#2B2E31" points="180.42,99.21 142.33,126.18 104.23,99.21 142.33,72.25 	"/>
	<g>
		<g>
			<line fill="none" stroke="#2B2E31" stroke-width="2" stroke-miterlimit="10" x1="78.38" y1="99.21" x2="98.59" y2="99.21"/>
			<g>
				<polygon fill="#2B2E31" points="104.23,99.21 96.28,102.46 98.16,99.21 96.28,95.96 				"/>
			</g>
		</g>
	</g>
	<g>
		<g>
			<line fill="none" stroke="#2B2E31" stroke-width="2" stroke-miterlimit="10" x1="176.45" y1="99.21" x2="196.65" y2="99.21"/>
			<g>
				<polygon fill="#2B2E31" points="202.3,99.21 194.34,102.46 196.23,99.21 194.34,95.96 				"/>
			</g>
		</g>
	</g>
	<line fill="none" x1="180.42" y1="99.21" x2="202.3" y2="99.21"/>
	<line fill="none" x1="235.8" y1="117.16" x2="235.8" y2="166.31"/>
	<g>
		<g>
			<line fill="none" stroke="#2B2E31" stroke-width="2" stroke-miterlimit="10" x1="204.34" y1="184.25" x2="185.07" y2="184.25"/>
			<g>
				<polygon fill="#2B2E31" points="179.42,184.25 187.38,181 185.49,184.25 187.38,187.5 				"/>
			</g>
		</g>
	</g>
	<g>
		<g>
			<line fill="none" stroke="#2B2E31" stroke-width="2" stroke-miterlimit="10" x1="235.8" y1="114.37" x2="235.8" y2="160.66"/>
			<g>
				<polygon fill="#2B2E31" points="235.8,166.31 232.54,158.35 235.8,160.24 239.05,158.35 				"/>
			</g>
		</g>
	</g>
</g>
</svg>
