<?xml version="1.0" encoding="utf-8"?>
<!-- Generator: Adobe Illustrator 25.0.1, SVG Export Plug-In . SVG Version: 6.00 Build 0)  -->
<svg version="1.1" xmlns="http://www.w3.org/2000/svg" xmlns:xlink="http://www.w3.org/1999/xlink" x="0px" y="0px"
	 width="283.46px" height="283.46px" viewBox="0 0 283.46 283.46" enable-background="new 0 0 283.46 283.46" xml:space="preserve">
<g id="guides">
	<rect fill="#C0BEBF" width="283.46" height="283.46"/>
</g>
<g id="logo">
	
		<rect x="14.17" y="14.17" fill="#C0BEBF" stroke="#FFFFFF" stroke-width="4" stroke-miterlimit="10" width="51.02" height="51.02"/>
	<rect x="65.2" y="14.17" fill="#C0BEBF" stroke="#FFFFFF" stroke-width="4" stroke-miterlimit="10" width="51.02" height="51.02"/>
	
		<rect x="116.22" y="14.17" fill="#C0BEBF" stroke="#FFFFFF" stroke-width="4" stroke-miterlimit="10" width="51.02" height="51.02"/>
	
		<rect x="167.24" y="14.17" fill="#C0BEBF" stroke="#FFFFFF" stroke-width="4" stroke-miterlimit="10" width="51.02" height="51.02"/>
	
		<rect x="218.27" y="14.17" fill="#C0BEBF" stroke="#FFFFFF" stroke-width="4" stroke-miterlimit="10" width="51.02" height="51.02"/>
	<rect x="14.17" y="65.2" fill="#C0BEBF" stroke="#FFFFFF" stroke-width="4" stroke-miterlimit="10" width="51.02" height="51.02"/>
	<rect x="65.2" y="65.2" fill="#C0BEBF" stroke="#FFFFFF" stroke-width="4" stroke-miterlimit="10" width="51.02" height="51.02"/>
	
		<rect x="116.22" y="65.2" fill="#C0BEBF" stroke="#FFFFFF" stroke-width="4" stroke-miterlimit="10" width="51.02" height="51.02"/>
	
		<rect x="167.24" y="65.2" fill="#C0BEBF" stroke="#FFFFFF" stroke-width="4" stroke-miterlimit="10" width="51.02" height="51.02"/>
	
		<rect x="218.27" y="65.2" fill="#C0BEBF" stroke="#FFFFFF" stroke-width="4" stroke-miterlimit="10" width="51.02" height="51.02"/>
	
		<rect x="14.17" y="116.22" fill="#2B2E31" stroke="#FFFFFF" stroke-width="4" stroke-miterlimit="10" width="51.02" height="51.02"/>
	
		<rect x="65.2" y="116.22" fill="#2B2E31" stroke="#FFFFFF" stroke-width="4" stroke-miterlimit="10" width="51.02" height="51.02"/>
	
		<rect x="116.22" y="116.22" fill="#2B2E31" stroke="#FFFFFF" stroke-width="4" stroke-miterlimit="10" width="51.02" height="51.02"/>
	
		<rect x="167.24" y="116.22" fill="#C0BEBF" stroke="#FFFFFF" stroke-width="4" stroke-miterlimit="10" width="51.02" height="51.02"/>
	
		<rect x="218.27" y="116.22" fill="#C0BEBF" stroke="#FFFFFF" stroke-width="4" stroke-miterlimit="10" width="51.02" height="51.02"/>
	
		<rect x="14.17" y="167.24" fill="#2B2E31" stroke="#FFFFFF" stroke-width="4" stroke-miterlimit="10" width="51.02" height="51.02"/>
	
		<rect x="65.2" y="167.24" fill="#2B2E31" stroke="#FFFFFF" stroke-width="4" stroke-miterlimit="10" width="51.02" height="51.02"/>
	
		<rect x="116.22" y="167.24" fill="#2B2E31" stroke="#FFFFFF" stroke-width="4" stroke-miterlimit="10" width="51.02" height="51.02"/>
	
		<rect x="167.24" y="167.24" fill="#2B2E31" stroke="#FFFFFF" stroke-width="4" stroke-miterlimit="10" width="51.02" height="51.02"/>
	
		<rect x="218.27" y="167.24" fill="#2B2E31" stroke="#FFFFFF" stroke-width="4" stroke-miterlimit="10" width="51.02" height="51.02"/>
	
		<rect x="14.17" y="218.27" fill="#2B2E31" stroke="#FFFFFF" stroke-width="4" stroke-miterlimit="10" width="51.02" height="51.02"/>
	
		<rect x="65.2" y="218.27" fill="#2B2E31" stroke="#FFFFFF" stroke-width="4" stroke-miterlimit="10" width="51.02" height="51.02"/>
	
		<rect x="116.22" y="218.27" fill="#2B2E31" stroke="#FFFFFF" stroke-width="4" stroke-miterlimit="10" width="51.02" height="51.02"/>
	
		<rect x="167.24" y="218.27" fill="#2B2E31" stroke="#FFFFFF" stroke-width="4" stroke-miterlimit="10" width="51.02" height="51.02"/>
	
		<rect x="218.27" y="218.27" fill="#2B2E31" stroke="#FFFFFF" stroke-width="4" stroke-miterlimit="10" width="51.02" height="51.02"/>
</g>
</svg>
