<?xml version="1.0" encoding="utf-8"?>
<!-- Generator: Adobe Illustrator 25.0.1, SVG Export Plug-In . SVG Version: 6.00 Build 0)  -->
<svg version="1.1" xmlns="http://www.w3.org/2000/svg" xmlns:xlink="http://www.w3.org/1999/xlink" x="0px" y="0px"
	 width="283.46px" height="283.46px" viewBox="0 0 283.46 283.46" enable-background="new 0 0 283.46 283.46" xml:space="preserve">
<g id="guides">
	<rect fill="#C6CAE4" width="283.46" height="283.46"/>
</g>
<g id="logo">
	<g>
		<g>
			<path fill="#2B2E31" d="M35.65,30.71c-12.45,0-21.48,8.35-21.48,19.84c0,1.83,1.48,3.31,3.31,3.31s3.31-1.48,3.31-3.31
				c0-4.98,2.51-9.32,6.6-11.57v20.29v3.03v27.94c0,1.83,1.48,3.31,3.31,3.31c1.83,0,3.31-1.48,3.31-3.31v-24.8h3.31v24.8
				c0,1.83,1.48,3.31,3.31,3.31c1.83,0,3.31-1.48,3.31-3.31V62.3v-3.03v-20.3c4.1,2.25,6.61,6.59,6.61,11.58
				c0,1.83,1.48,3.31,3.31,3.31s3.31-1.48,3.31-3.31C57.14,39.05,48.1,30.71,35.65,30.71z"/>
			<circle fill="#2B2E31" cx="35.65" cy="20.79" r="6.61"/>
		</g>
		<g>
			<path fill="#2B2E31" d="M88.28,30.71c-12.45,0-21.48,8.35-21.48,19.84c0,1.83,1.48,3.31,3.31,3.31s3.31-1.48,3.31-3.31
				c0-4.98,2.51-9.32,6.6-11.57v20.29v3.03v27.94c0,1.83,1.48,3.31,3.31,3.31s3.31-1.48,3.31-3.31v-24.8h3.31v24.8
				c0,1.83,1.48,3.31,3.31,3.31s3.31-1.48,3.31-3.31V62.3v-3.03v-20.3c4.1,2.25,6.61,6.59,6.61,11.58c0,1.83,1.48,3.31,3.31,3.31
				c1.83,0,3.31-1.48,3.31-3.31C109.77,39.05,100.73,30.71,88.28,30.71z"/>
			<circle fill="#2B2E31" cx="88.28" cy="20.79" r="6.61"/>
		</g>
		<g>
			<path fill="#2B2E31" d="M140.91,30.71c-12.45,0-21.48,8.35-21.48,19.84c0,1.83,1.48,3.31,3.31,3.31s3.31-1.48,3.31-3.31
				c0-4.98,2.51-9.32,6.6-11.57v20.29v3.03v27.94c0,1.83,1.48,3.31,3.31,3.31s3.31-1.48,3.31-3.31v-24.8h3.31v24.8
				c0,1.83,1.48,3.31,3.31,3.31s3.31-1.48,3.31-3.31V62.3v-3.03v-20.3c4.1,2.25,6.61,6.59,6.61,11.58c0,1.83,1.48,3.31,3.31,3.31
				s3.31-1.48,3.31-3.31C162.4,39.05,153.36,30.71,140.91,30.71z"/>
			<circle fill="#2B2E31" cx="140.91" cy="20.79" r="6.61"/>
		</g>
		<g>
			<path fill="#2B2E31" d="M193.54,30.71c-12.45,0-21.48,8.35-21.48,19.84c0,1.83,1.48,3.31,3.31,3.31s3.31-1.48,3.31-3.31
				c0-4.98,2.51-9.32,6.6-11.57v20.29v3.03v27.94c0,1.83,1.48,3.31,3.31,3.31s3.31-1.48,3.31-3.31v-24.8h3.31v24.8
				c0,1.83,1.48,3.31,3.31,3.31s3.31-1.48,3.31-3.31V62.3v-3.03v-20.3c4.1,2.25,6.61,6.59,6.61,11.58c0,1.83,1.48,3.31,3.31,3.31
				s3.31-1.48,3.31-3.31C215.03,39.05,205.99,30.71,193.54,30.71z"/>
			<circle fill="#2B2E31" cx="193.54" cy="20.79" r="6.61"/>
		</g>
		<g>
			<path fill="#2B2E31" d="M246.17,30.54c-12.45,0-21.48,8.35-21.48,19.84c0,1.83,1.48,3.31,3.31,3.31s3.31-1.48,3.31-3.31
				c0-4.98,2.51-9.32,6.6-11.57V59.1v3.03v27.94c0,1.83,1.48,3.31,3.31,3.31s3.31-1.48,3.31-3.31v-24.8h3.31v24.8
				c0,1.83,1.48,3.31,3.31,3.31s3.31-1.48,3.31-3.31V62.13V59.1v-20.3c4.1,2.25,6.61,6.59,6.61,11.58c0,1.83,1.48,3.31,3.31,3.31
				s3.31-1.48,3.31-3.31C267.66,38.89,258.62,30.54,246.17,30.54z"/>
			<circle fill="#2B2E31" cx="246.17" cy="20.62" r="6.61"/>
		</g>
	</g>
	<g>
		<g>
			<path fill="#2B2E31" d="M35.65,118.54c-12.45,0-21.48,8.35-21.48,19.84c0,1.83,1.48,3.31,3.31,3.31s3.31-1.48,3.31-3.31
				c0-4.98,2.51-9.32,6.6-11.57v20.29v3.03v27.94c0,1.83,1.48,3.31,3.31,3.31c1.83,0,3.31-1.48,3.31-3.31v-24.8h3.31v24.8
				c0,1.83,1.48,3.31,3.31,3.31c1.83,0,3.31-1.48,3.31-3.31v-27.94v-3.03v-20.3c4.1,2.25,6.61,6.59,6.61,11.58
				c0,1.83,1.48,3.31,3.31,3.31s3.31-1.48,3.31-3.31C57.14,126.89,48.1,118.54,35.65,118.54z"/>
			<circle fill="#2B2E31" cx="35.65" cy="108.62" r="6.61"/>
		</g>
		<g>
			<path fill="#2B2E31" d="M88.28,118.54c-12.45,0-21.48,8.35-21.48,19.84c0,1.83,1.48,3.31,3.31,3.31s3.31-1.48,3.31-3.31
				c0-4.98,2.51-9.32,6.6-11.57v20.29v3.03v27.94c0,1.83,1.48,3.31,3.31,3.31s3.31-1.48,3.31-3.31v-24.8h3.31v24.8
				c0,1.83,1.48,3.31,3.31,3.31s3.31-1.48,3.31-3.31v-27.94v-3.03v-20.3c4.1,2.25,6.61,6.59,6.61,11.58c0,1.83,1.48,3.31,3.31,3.31
				c1.83,0,3.31-1.48,3.31-3.31C109.77,126.89,100.73,118.54,88.28,118.54z"/>
			<circle fill="#2B2E31" cx="88.28" cy="108.62" r="6.61"/>
		</g>
		<g>
			<path fill="#2B2E31" d="M140.91,118.54c-12.45,0-21.48,8.35-21.48,19.84c0,1.83,1.48,3.31,3.31,3.31s3.31-1.48,3.31-3.31
				c0-4.98,2.51-9.32,6.6-11.57v20.29v3.03v27.94c0,1.83,1.48,3.31,3.31,3.31s3.31-1.48,3.31-3.31v-24.8h3.31v24.8
				c0,1.83,1.48,3.31,3.31,3.31s3.31-1.48,3.31-3.31v-27.94v-3.03v-20.3c4.1,2.25,6.61,6.59,6.61,11.58c0,1.83,1.48,3.31,3.31,3.31
				s3.31-1.48,3.31-3.31C162.4,126.89,153.36,118.54,140.91,118.54z"/>
			<circle fill="#2B2E31" cx="140.91" cy="108.62" r="6.61"/>
		</g>
	</g>
	<g>
		<g>
			<path fill="#2B2E31" d="M35.65,206.46c-12.45,0-21.48,8.35-21.48,19.84c0,1.83,1.48,3.31,3.31,3.31s3.31-1.48,3.31-3.31
				c0-4.98,2.51-9.32,6.6-11.57v20.29v3.03v27.94c0,1.83,1.48,3.31,3.31,3.31c1.83,0,3.31-1.48,3.31-3.31v-24.8h3.31v24.8
				c0,1.83,1.48,3.31,3.31,3.31c1.83,0,3.31-1.48,3.31-3.31v-27.94v-3.03v-20.3c4.1,2.25,6.61,6.59,6.61,11.58
				c0,1.83,1.48,3.31,3.31,3.31s3.31-1.48,3.31-3.31C57.14,214.8,48.1,206.46,35.65,206.46z"/>
			<circle fill="#2B2E31" cx="35.65" cy="196.54" r="6.61"/>
		</g>
		<g>
			<path fill="#2B2E31" d="M88.28,206.46c-12.45,0-21.48,8.35-21.48,19.84c0,1.83,1.48,3.31,3.31,3.31s3.31-1.48,3.31-3.31
				c0-4.98,2.51-9.32,6.6-11.57v20.29v3.03v27.94c0,1.83,1.48,3.31,3.31,3.31s3.31-1.48,3.31-3.31v-24.8h3.31v24.8
				c0,1.83,1.48,3.31,3.31,3.31s3.31-1.48,3.31-3.31v-27.94v-3.03v-20.3c4.1,2.25,6.61,6.59,6.61,11.58c0,1.83,1.48,3.31,3.31,3.31
				c1.83,0,3.31-1.48,3.31-3.31C109.77,214.8,100.73,206.46,88.28,206.46z"/>
			<circle fill="#2B2E31" cx="88.28" cy="196.54" r="6.61"/>
		</g>
	</g>
</g>
</svg>
