<?xml version="1.0" encoding="utf-8"?>
<!-- Generator: Adobe Illustrator 25.0.1, SVG Export Plug-In . SVG Version: 6.00 Build 0)  -->
<svg version="1.1" xmlns="http://www.w3.org/2000/svg" xmlns:xlink="http://www.w3.org/1999/xlink" x="0px" y="0px"
	 width="283.46px" height="283.46px" viewBox="0 0 283.46 283.46" enable-background="new 0 0 283.46 283.46" xml:space="preserve">
<g id="guides">
	<rect fill="#C6CAE4" width="283.46" height="283.46"/>
</g>
<g id="logo">
	
		<line fill="none" stroke="#2B2E31" stroke-width="5" stroke-linecap="round" stroke-miterlimit="10" x1="15.17" y1="14.17" x2="15.17" y2="269.29"/>
	<g>
		<g>
			
				<line fill="none" stroke="#2B2E31" stroke-width="5" stroke-linecap="round" stroke-miterlimit="10" x1="15.17" y1="32.84" x2="256.25" y2="32.84"/>
			<g>
				<path fill="#2B2E31" d="M255.57,46.57c7.58,0,13.72-6.15,13.72-13.72s-6.15-13.72-13.72-13.72c-7.58,0-13.72,6.15-13.72,13.72
					S247.99,46.57,255.57,46.57z"/>
			</g>
		</g>
	</g>
	<g>
		<g>
			
				<line fill="none" stroke="#2B2E31" stroke-width="5" stroke-linecap="round" stroke-miterlimit="10" x1="15.17" y1="76.4" x2="235.82" y2="76.4"/>
			<g>
				<path fill="#2B2E31" d="M235.14,90.12c7.58,0,13.72-6.15,13.72-13.72s-6.15-13.72-13.72-13.72c-7.58,0-13.72,6.15-13.72,13.72
					S227.56,90.12,235.14,90.12z"/>
			</g>
		</g>
	</g>
	<g>
		<g>
			
				<line fill="none" stroke="#2B2E31" stroke-width="5" stroke-linecap="round" stroke-miterlimit="10" x1="15.17" y1="119.95" x2="198.67" y2="119.95"/>
			<g>
				<path fill="#2B2E31" d="M197.99,133.68c7.58,0,13.72-6.15,13.72-13.72c0-7.58-6.15-13.72-13.72-13.72
					c-7.58,0-13.72,6.15-13.72,13.72C184.26,127.53,190.41,133.68,197.99,133.68z"/>
			</g>
		</g>
	</g>
	<g>
		<g>
			
				<line fill="none" stroke="#2B2E31" stroke-width="5" stroke-linecap="round" stroke-miterlimit="10" x1="15.17" y1="163.51" x2="175.37" y2="163.51"/>
			<g>
				<path fill="#2B2E31" d="M174.68,177.23c7.58,0,13.72-6.15,13.72-13.72s-6.15-13.72-13.72-13.72c-7.58,0-13.72,6.15-13.72,13.72
					S167.1,177.23,174.68,177.23z"/>
			</g>
		</g>
	</g>
	<g>
		<g>
			
				<line fill="none" stroke="#2B2E31" stroke-width="5" stroke-linecap="round" stroke-miterlimit="10" x1="15.17" y1="207.06" x2="143.33" y2="207.06"/>
			<g>
				<path fill="#2B2E31" d="M142.64,220.79c7.58,0,13.72-6.15,13.72-13.72c0-7.58-6.15-13.72-13.72-13.72
					c-7.58,0-13.72,6.15-13.72,13.72C128.92,214.64,135.06,220.79,142.64,220.79z"/>
			</g>
		</g>
	</g>
	<g>
		<g>
			
				<line fill="none" stroke="#2B2E31" stroke-width="5" stroke-linecap="round" stroke-miterlimit="10" x1="15.17" y1="250.62" x2="96.94" y2="250.62"/>
			<g>
				<path fill="#2B2E31" d="M96.25,264.34c7.58,0,13.72-6.15,13.72-13.72s-6.15-13.72-13.72-13.72c-7.58,0-13.72,6.15-13.72,13.72
					S88.67,264.34,96.25,264.34z"/>
			</g>
		</g>
	</g>
</g>
</svg>
