<?xml version="1.0" encoding="utf-8"?>
<!-- Generator: Adobe Illustrator 25.0.1, SVG Export Plug-In . SVG Version: 6.00 Build 0)  -->
<svg version="1.1" xmlns="http://www.w3.org/2000/svg" xmlns:xlink="http://www.w3.org/1999/xlink" x="0px" y="0px"
	 width="283.46px" height="283.46px" viewBox="0 0 283.46 283.46" enable-background="new 0 0 283.46 283.46" xml:space="preserve">
<g id="guides">
	<rect fill="#E1F2F0" width="283.46" height="283.46"/>
</g>
<g id="logo">
	<circle fill="#2B2E31" cx="141.73" cy="96.01" r="19.25"/>
	<circle fill="#2B2E31" cx="179.81" cy="60.5" r="7.09"/>
	<circle fill="#2B2E31" cx="90.66" cy="56.69" r="7.09"/>
	<circle fill="#2B2E31" cx="38.86" cy="148.36" r="7.09"/>
	<circle fill="#2B2E31" cx="94.39" cy="120.65" r="15.06"/>
	<circle fill="#2B2E31" cx="136.55" cy="160.53" r="12.76"/>
	<circle fill="#2B2E31" cx="90.66" cy="175.59" r="11.34"/>
	<circle fill="#2B2E31" cx="182.44" cy="145.47" r="15.06"/>
	<circle fill="#2B2E31" cx="226.77" cy="184.25" r="7.09"/>
	<circle fill="#2B2E31" cx="229.81" cy="147.77" r="7.09"/>
	<circle fill="#2B2E31" cx="208.12" cy="102.74" r="11.34"/>
	<circle fill="#2B2E31" cx="173" cy="207.79" r="7.09"/>
	<circle fill="#2B2E31" cx="122.48" cy="226.77" r="7.09"/>
	<circle fill="#2B2E31" cx="193.98" cy="191.72" r="7.09"/>
	<circle fill="#2B2E31" cx="71.75" cy="226.77" r="7.09"/>
	<line fill="none" stroke="#2B2E31" stroke-width="2" stroke-miterlimit="10" x1="141.73" y1="96.01" x2="179.81" y2="60.5"/>
	<line fill="none" stroke="#2B2E31" stroke-width="2" stroke-miterlimit="10" x1="141.73" y1="96.01" x2="90.66" y2="56.69"/>
	<line fill="none" stroke="#2B2E31" stroke-width="2" stroke-miterlimit="10" x1="141.73" y1="96.01" x2="94.39" y2="120.65"/>
	<line fill="none" stroke="#2B2E31" stroke-width="2" stroke-miterlimit="10" x1="141.73" y1="96.01" x2="182.44" y2="145.47"/>
	<line fill="none" stroke="#2B2E31" stroke-width="2" stroke-miterlimit="10" x1="94.39" y1="120.65" x2="90.66" y2="175.59"/>
	<line fill="none" stroke="#2B2E31" stroke-width="2" stroke-miterlimit="10" x1="90.66" y1="175.59" x2="38.86" y2="148.36"/>
	<line fill="none" stroke="#2B2E31" stroke-width="2" stroke-miterlimit="10" x1="90.66" y1="175.59" x2="71.75" y2="226.77"/>
	<line fill="none" stroke="#2B2E31" stroke-width="2" stroke-miterlimit="10" x1="90.66" y1="175.59" x2="122.48" y2="226.77"/>
	<line fill="none" stroke="#2B2E31" stroke-width="2" stroke-miterlimit="10" x1="141.73" y1="96.01" x2="136.55" y2="160.53"/>
	<line fill="none" stroke="#2B2E31" stroke-width="2" stroke-miterlimit="10" x1="182.44" y1="145.47" x2="173" y2="207.79"/>
	<line fill="none" stroke="#2B2E31" stroke-width="2" stroke-miterlimit="10" x1="229.81" y1="147.77" x2="182.44" y2="145.47"/>
	<line fill="none" stroke="#2B2E31" stroke-width="2" stroke-miterlimit="10" x1="226.77" y1="184.25" x2="182.44" y2="145.47"/>
	<line fill="none" stroke="#2B2E31" stroke-width="2" stroke-miterlimit="10" x1="193.98" y1="191.72" x2="182.44" y2="145.47"/>
	<line fill="none" stroke="#2B2E31" stroke-width="2" stroke-miterlimit="10" x1="208.12" y1="102.74" x2="182.44" y2="145.47"/>
</g>
</svg>
