<?xml version="1.0" encoding="utf-8"?>
<!-- Generator: Adobe Illustrator 25.0.1, SVG Export Plug-In . SVG Version: 6.00 Build 0)  -->
<svg version="1.1" xmlns="http://www.w3.org/2000/svg" xmlns:xlink="http://www.w3.org/1999/xlink" x="0px" y="0px"
	 width="283.46px" height="283.46px" viewBox="0 0 283.46 283.46" enable-background="new 0 0 283.46 283.46" xml:space="preserve">
<g id="guides">
	<rect fill="#C6CAE4" width="283.46" height="283.46"/>
</g>
<g id="logo">
	<polyline fill="none" stroke="#6B6A6B" stroke-width="5" stroke-linecap="round" stroke-miterlimit="10" points="14.17,56.69 
		141.73,80.84 269.29,46.88 	"/>
	<polyline fill="none" stroke="#6B6A6B" stroke-width="5" stroke-linecap="round" stroke-miterlimit="10" points="14.17,141.73 
		141.73,152.54 269.29,105.1 	"/>
	<polyline fill="none" stroke="#6B6A6B" stroke-width="5" stroke-linecap="round" stroke-miterlimit="10" points="14.17,184.25 
		141.73,198.91 269.29,209.69 	"/>
	<polyline fill="none" stroke="#6B6A6B" stroke-width="5" stroke-linecap="round" stroke-miterlimit="10" points="14.17,226.77 
		141.73,226.77 269.29,182.19 	"/>
	<polyline fill="none" stroke="#2B2E31" stroke-width="5" stroke-linecap="round" stroke-miterlimit="10" points="14.17,99.21 
		143.17,108.87 269.29,160.63 	"/>
	<polyline fill="none" stroke="#6B6A6B" stroke-width="5" stroke-linecap="round" stroke-miterlimit="10" points="14.17,269.29 
		141.73,245.81 269.29,238.8 	"/>
	<polyline fill="none" stroke="#6B6A6B" stroke-width="5" stroke-linecap="round" stroke-miterlimit="10" points="269.29,132.59 
		141.73,53.88 14.17,14.17 	"/>
	
		<line fill="none" stroke="#2B2E31" stroke-width="6" stroke-linecap="round" stroke-linejoin="round" stroke-miterlimit="10" x1="14.17" y1="14.17" x2="14.17" y2="269.29"/>
	
		<line fill="none" stroke="#2B2E31" stroke-width="6" stroke-linecap="round" stroke-linejoin="round" stroke-miterlimit="10" x1="141.73" y1="14.17" x2="141.73" y2="269.29"/>
	
		<line fill="none" stroke="#2B2E31" stroke-width="6" stroke-linecap="round" stroke-linejoin="round" stroke-miterlimit="10" x1="269.29" y1="14.17" x2="269.29" y2="269.29"/>
</g>
</svg>
