<?xml version="1.0" encoding="utf-8"?>
<!-- Generator: Adobe Illustrator 25.0.1, SVG Export Plug-In . SVG Version: 6.00 Build 0)  -->
<svg version="1.1" xmlns="http://www.w3.org/2000/svg" xmlns:xlink="http://www.w3.org/1999/xlink" x="0px" y="0px"
	 width="283.46px" height="283.46px" viewBox="0 0 283.46 283.46" enable-background="new 0 0 283.46 283.46" xml:space="preserve">
<g id="guides">
	<rect fill="#C6CAE4" width="283.46" height="283.46"/>
</g>
<g id="logo">
	<g>
		<g>
			<path fill="#6B6A6B" d="M141.73,269.29c-70.34,0-127.56-57.22-127.56-127.56S71.4,14.17,141.73,14.17S269.29,71.4,269.29,141.73
				S212.07,269.29,141.73,269.29z M141.73,14.73c-70.03,0-127,56.97-127,127c0,70.03,56.97,127,127,127c70.03,0,127-56.97,127-127
				C268.73,71.7,211.76,14.73,141.73,14.73z"/>
		</g>
		<g>
			<rect x="141.27" y="14.45" fill="#6B6A6B" width="0.93" height="127.28"/>
		</g>
		<g>
			<path fill="#6B6A6B" d="M141.73,167.47c-14.19,0-25.73-11.54-25.73-25.73c0-14.19,11.54-25.73,25.73-25.73
				c14.19,0,25.73,11.54,25.73,25.73C167.47,155.92,155.92,167.47,141.73,167.47z M141.73,116.55c-13.88,0-25.18,11.3-25.18,25.18
				c0,13.88,11.3,25.18,25.18,25.18c13.88,0,25.18-11.29,25.18-25.18C166.91,127.85,155.61,116.55,141.73,116.55z"/>
		</g>
		<g>
			<path fill="#6B6A6B" d="M141.73,192.92c-28.23,0-51.19-22.97-51.19-51.19c0-28.23,22.96-51.19,51.19-51.19
				c28.23,0,51.19,22.96,51.19,51.19C192.92,169.96,169.96,192.92,141.73,192.92z M141.73,91.1c-27.92,0-50.63,22.71-50.63,50.63
				s22.71,50.63,50.63,50.63s50.63-22.71,50.63-50.63S169.65,91.1,141.73,91.1z"/>
		</g>
		<g>
			<path fill="#6B6A6B" d="M141.73,218.38c-42.26,0-76.65-34.38-76.65-76.65c0-42.26,34.38-76.65,76.65-76.65
				c42.26,0,76.65,34.38,76.65,76.65C218.38,183.99,183.99,218.38,141.73,218.38z M141.73,65.64c-41.96,0-76.09,34.13-76.09,76.09
				s34.13,76.09,76.09,76.09s76.09-34.13,76.09-76.09S183.69,65.64,141.73,65.64z"/>
		</g>
		<g>
			<path fill="#6B6A6B" d="M141.73,243.83c-56.3,0-102.1-45.8-102.1-102.1c0-56.3,45.8-102.1,102.1-102.1
				c56.3,0,102.1,45.8,102.1,102.1C243.83,198.03,198.03,243.83,141.73,243.83z M141.73,40.19c-55.99,0-101.55,45.55-101.55,101.55
				s45.55,101.54,101.55,101.54s101.54-45.55,101.54-101.54S197.72,40.19,141.73,40.19z"/>
		</g>
		<g>
			
				<rect x="138.62" y="121.6" transform="matrix(0.9512 -0.3086 0.3086 0.9512 -27.7978 68.3742)" fill="#6B6A6B" width="127.28" height="0.93"/>
		</g>
		<g>
			
				<rect x="178.67" y="129.58" transform="matrix(0.809 -0.5878 0.5878 0.809 -79.3583 142.1987)" fill="#6B6A6B" width="0.93" height="127.28"/>
		</g>
		<g>
			
				<rect x="40.69" y="192.75" transform="matrix(0.5868 -0.8097 0.8097 0.5868 -113.348 164.3194)" fill="#6B6A6B" width="127.28" height="0.93"/>
		</g>
		<g>
			
				<rect x="80.74" y="58.43" transform="matrix(0.309 -0.9511 0.9511 0.309 -59.9792 161.5775)" fill="#6B6A6B" width="0.93" height="127.28"/>
		</g>
		<g>
			<path fill="#2B2E31" d="M185.3,129.43c-0.7,0-1.37-0.39-1.68-1.07l-43.57-92.85c-0.44-0.93-0.04-2.03,0.89-2.47
				c0.93-0.43,2.03-0.04,2.47,0.89l43.57,92.85c0.44,0.93,0.04,2.03-0.89,2.47C185.83,129.38,185.56,129.43,185.3,129.43z"/>
		</g>
		<g>
			<path fill="#2B2E31" d="M170.17,182.73c-0.17,0-0.34-0.02-0.51-0.07c-0.99-0.28-1.56-1.31-1.28-2.29l15.13-53.3
				c0.28-0.99,1.3-1.56,2.29-1.28c0.99,0.28,1.56,1.31,1.28,2.29l-15.13,53.3C171.72,182.2,170.98,182.73,170.17,182.73z"/>
		</g>
		<g>
			<path fill="#2B2E31" d="M111.03,185.84c-0.98,0-1.8-0.77-1.85-1.76c-0.05-1.02,0.73-1.9,1.76-1.95l59.14-3.11
				c1.06-0.05,1.9,0.73,1.95,1.76c0.05,1.02-0.73,1.9-1.76,1.95l-59.14,3.11C111.1,185.84,111.06,185.84,111.03,185.84z"/>
		</g>
		<g>
			<path fill="#2B2E31" d="M111.03,185.84c-0.55,0-1.1-0.24-1.46-0.71l-55.02-70.1c-0.63-0.81-0.49-1.97,0.31-2.61
				c0.81-0.63,1.97-0.49,2.61,0.31l55.02,70.1c0.63,0.81,0.49,1.97-0.31,2.61C111.84,185.71,111.44,185.84,111.03,185.84z"/>
		</g>
		<g>
			<path fill="#2B2E31" d="M56.02,115.74c-0.5,0-1-0.2-1.37-0.6c-0.7-0.75-0.65-1.93,0.11-2.62l85.71-79.15
				c0.75-0.69,1.93-0.65,2.62,0.11c0.7,0.75,0.65,1.93-0.11,2.62l-85.71,79.15C56.92,115.58,56.47,115.74,56.02,115.74z"/>
		</g>
		<path fill="#2B2E31" d="M148,40.99h-12.53V28.46H148V40.99z"/>
		<path fill="#2B2E31" d="M191.57,133.84h-12.53v-12.53h12.53V133.84z"/>
		<path fill="#2B2E31" d="M176.44,187.14H163.9v-12.53h12.53V187.14z"/>
		<path fill="#2B2E31" d="M117.3,190.25h-12.53v-12.53h12.53V190.25z"/>
		<path fill="#2B2E31" d="M62.29,120.15H49.75v-12.53h12.53V120.15z"/>
	</g>
</g>
</svg>
