<?xml version="1.0" encoding="utf-8"?>
<!-- Generator: Adobe Illustrator 25.0.1, SVG Export Plug-In . SVG Version: 6.00 Build 0)  -->
<svg version="1.1" xmlns="http://www.w3.org/2000/svg" xmlns:xlink="http://www.w3.org/1999/xlink" x="0px" y="0px"
	 width="283.46px" height="283.46px" viewBox="0 0 283.46 283.46" enable-background="new 0 0 283.46 283.46" xml:space="preserve">
<g id="guides">
	<rect fill="#E9C8E0" width="283.46" height="283.46"/>
</g>
<g id="logo">
	<g>
		<path opacity="0.6" fill="#49494B" d="M260.39,102.47c-58.96,0-88.94-0.04-117.93-0.07c-28.96-0.04-58.91-0.07-117.81-0.07V14.18
			c58.96,0,88.94,0.04,117.93,0.07c28.96,0.04,58.91,0.07,117.81,0.07V102.47z"/>
		<path opacity="0.6" fill="#49494B" d="M260.39,263.39c-59.79,0-90.19-3.59-119.58-7.06c-29.87-3.53-58.08-6.86-116.16-6.86v-29.19
			c59.79,0,90.19,3.59,119.58,7.06c29.87,3.53,58.08,6.86,116.16,6.86V263.39z"/>
		<path opacity="0.6" fill="#49494B" d="M24.55,171.08v-43.17c58.48,0,88.21-1.33,116.95-2.62c29.22-1.31,59.44-2.66,118.89-2.66
			v43.17c-58.48,0-88.21,1.33-116.96,2.62C114.22,169.73,84,171.08,24.55,171.08z"/>
		<path opacity="0.6" fill="#49494B" d="M260.39,215.29c-59.56,0-89.83-3.35-119.11-6.59c-28.67-3.17-58.32-6.45-116.63-6.45v-22.53
			c59.56,0,89.83,3.35,119.11,6.59c28.67,3.17,58.32,6.45,116.63,6.45V215.29z"/>
		<path opacity="0.6" fill="#49494B" d="M260.39,193.65c-61.64,0-92.75-19.84-122.85-39.04c-29.14-18.58-56.66-36.13-112.89-36.13
			V99.97c61.64,0,92.75,19.84,122.85,39.04c29.14,18.58,56.66,36.13,112.89,36.13V193.65z"/>
		<path opacity="0.6" fill="#49494B" d="M24.65,269.54v-12.01c55.93,0,83.68-37.03,113.06-76.23
			c29.86-39.84,60.74-81.04,122.68-81.04v12.01c-55.93,0-83.68,37.03-113.06,76.23C117.47,228.35,86.59,269.54,24.65,269.54z"/>
		<path opacity="0.6" fill="#49494B" d="M260.39,233.98c-59.37,0-89.54-5.65-118.73-11.12c-28.77-5.39-58.51-10.96-117.01-10.96
			v-9.29c59.37,0,89.54,5.65,118.73,11.12c28.77,5.39,58.51,10.96,117.01,10.96V233.98z"/>
	</g>
	<g>
		<rect x="14.17" y="14.17" fill="#2B2E31" width="10.38" height="104.32"/>
		<rect x="260.39" y="175.12" fill="#2B2E31" width="8.9" height="40.17"/>
		<rect x="260.39" y="224.68" fill="#2B2E31" width="8.9" height="38.7"/>
		<rect x="14.17" y="127.8" fill="#2B2E31" width="10.38" height="43.28"/>
		<rect x="14.17" y="257.52" fill="#2B2E31" width="10.38" height="12.03"/>
		<rect x="14.17" y="220.28" fill="#2B2E31" width="10.38" height="29.24"/>
		<rect x="14.17" y="179.72" fill="#2B2E31" width="10.38" height="32.39"/>
		<rect x="260.39" y="14.18" fill="#2B2E31" width="8.9" height="98.14"/>
		<rect x="260.39" y="122.63" fill="#2B2E31" width="8.9" height="43.17"/>
	</g>
</g>
</svg>
