<?xml version="1.0" encoding="utf-8"?>
<!-- Generator: Adobe Illustrator 25.0.1, SVG Export Plug-In . SVG Version: 6.00 Build 0)  -->
<svg version="1.1" xmlns="http://www.w3.org/2000/svg" xmlns:xlink="http://www.w3.org/1999/xlink" x="0px" y="0px"
	 width="283.46px" height="283.46px" viewBox="0 0 283.46 283.46" enable-background="new 0 0 283.46 283.46" xml:space="preserve">
<g id="guides">
	<rect fill="#E1F2F0" width="283.46" height="283.46"/>
</g>
<g id="logo">
	<path fill="none" stroke="#2B2E31" stroke-width="4" stroke-linecap="round" stroke-miterlimit="10" d="M14.17,14.17v255.12
		c85.04,0,170.08,0,255.12,0"/>
	<circle fill="#2B2E31" cx="63.14" cy="210.85" r="6.92"/>
	<circle fill="#2B2E31" cx="70.06" cy="231.62" r="6.92"/>
	<circle fill="#2B2E31" cx="83.9" cy="191.17" r="6.92"/>
	<circle fill="#2B2E31" cx="83.9" cy="170.41" r="6.92"/>
	<circle fill="#2B2E31" cx="99.21" cy="177.33" r="6.92"/>
	<circle fill="#2B2E31" cx="92.29" cy="150.73" r="6.92"/>
	<circle fill="#2B2E31" cx="109.85" cy="170.41" r="6.92"/>
	<circle fill="#2B2E31" cx="112.77" cy="128.46" r="6.92"/>
	<circle fill="#2B2E31" cx="175.85" cy="104.73" r="6.92"/>
	<circle fill="#2B2E31" cx="155.09" cy="90.89" r="6.92"/>
	<circle fill="#2B2E31" cx="175.85" cy="71.53" r="6.92"/>
	<circle fill="#2B2E31" cx="148.04" cy="166.45" r="6.92"/>
	<circle fill="#2B2E31" cx="168.93" cy="156.64" r="6.92"/>
	<circle fill="#2B2E31" cx="162.01" cy="211.94" r="6.92"/>
	<circle fill="#2B2E31" cx="138.03" cy="141.73" r="6.92"/>
	<circle fill="#2B2E31" cx="141.24" cy="111.65" r="6.92"/>
	<circle fill="#2B2E31" cx="109.85" cy="71.53" r="6.92"/>
	<circle fill="#2B2E31" cx="175.85" cy="128.46" r="6.92"/>
	<circle fill="#2B2E31" cx="219.85" cy="141.73" r="6.92"/>
	<circle fill="#2B2E31" cx="99.21" cy="128.46" r="6.92"/>
	<circle fill="#2B2E31" cx="106.13" cy="141.73" r="6.92"/>
	<circle fill="#2B2E31" cx="115.54" cy="191.17" r="6.92"/>
	<circle fill="#2B2E31" cx="102.93" cy="205.01" r="6.92"/>
	<circle fill="#2B2E31" cx="127.15" cy="156.64" r="6.92"/>
</g>
</svg>
