<?xml version="1.0" encoding="utf-8"?>
<!-- Generator: Adobe Illustrator 25.0.1, SVG Export Plug-In . SVG Version: 6.00 Build 0)  -->
<svg version="1.1" xmlns="http://www.w3.org/2000/svg" xmlns:xlink="http://www.w3.org/1999/xlink" x="0px" y="0px"
	 width="498.89px" height="138.32px" viewBox="0 0 498.89 138.32" enable-background="new 0 0 498.89 138.32" xml:space="preserve">
<g id="guides">
</g>
<g id="logo">
	<rect x="-1222.43" y="16.03" fill="none" width="228.43" height="53.12"/>
	
		<text transform="matrix(1 0 0 1 -1222.4299 49.4029)" display="none" font-family="'Mukta-Light'" font-size="47px" letter-spacing="5">SHOWING</text>
	<rect x="-1227.1" y="60.86" fill="none" width="233.1" height="80.84"/>
	
		<text transform="matrix(1 0 0 1 -1227.0966 129.9224)" display="none" font-family="'Mukta-SemiBold'" font-size="97px" letter-spacing="4">DAT</text>
	<g>
		<g>
			<path fill="#2B2E31" d="M234.47,15.37c1.41,0,2.76,0.13,4.07,0.38c1.3,0.25,2.59,0.67,3.88,1.27l-0.85,2.77
				c-1.35-0.63-2.56-1.06-3.64-1.32c-1.08-0.25-2.19-0.38-3.31-0.38c-1.91,0-3.45,0.43-4.61,1.29c-1.16,0.86-1.74,2.08-1.74,3.64
				c0,1.38,0.44,2.47,1.32,3.27c0.88,0.8,2.24,1.5,4.09,2.09l3.15,1.03c2.41,0.82,4.17,1.92,5.29,3.31
				c1.11,1.39,1.67,2.98,1.67,4.77c0,1.29-0.24,2.44-0.73,3.45c-0.49,1.02-1.17,1.88-2.04,2.58c-0.88,0.71-1.93,1.25-3.15,1.64
				c-1.22,0.39-2.57,0.59-4.04,0.59c-1.5,0-3-0.14-4.49-0.42c-1.49-0.28-2.98-0.77-4.49-1.46l0.89-2.77
				c1.32,0.66,2.61,1.14,3.88,1.43c1.27,0.3,2.61,0.45,4.02,0.45c1.91,0,3.5-0.42,4.77-1.27c1.27-0.85,1.9-2.15,1.9-3.9
				c0-0.63-0.09-1.21-0.26-1.76c-0.17-0.55-0.48-1.06-0.92-1.53c-0.44-0.47-1.03-0.92-1.79-1.34s-1.71-0.82-2.87-1.2l-3.05-0.99
				c-1.97-0.63-3.57-1.54-4.79-2.75c-1.22-1.21-1.83-2.81-1.83-4.82c0-2.48,0.83-4.44,2.49-5.9S231.34,15.37,234.47,15.37z"/>
			<path fill="#2B2E31" d="M260.89,45.36V15.75h3.38v12.88h14.99V15.75h3.38v29.61h-3.38V31.45h-14.99v13.91H260.89z"/>
			<path fill="#2B2E31" d="M313.34,15.37c1.88,0,3.64,0.31,5.29,0.94c1.65,0.63,3.06,1.57,4.25,2.84c1.19,1.27,2.13,2.85,2.82,4.75
				c0.69,1.9,1.03,4.11,1.03,6.65c0,2.48-0.35,4.66-1.06,6.56c-0.7,1.9-1.67,3.49-2.89,4.77c-1.22,1.29-2.66,2.26-4.32,2.91
				c-1.66,0.66-3.43,0.99-5.31,0.99s-3.64-0.32-5.29-0.96c-1.65-0.64-3.06-1.6-4.25-2.87c-1.19-1.27-2.13-2.85-2.82-4.75
				c-0.69-1.9-1.03-4.11-1.03-6.65c0-2.47,0.35-4.65,1.06-6.53c0.7-1.88,1.67-3.46,2.89-4.75c1.22-1.28,2.66-2.26,4.3-2.91
				C309.65,15.7,311.43,15.37,313.34,15.37z M303.37,30.55c0,2.13,0.27,3.98,0.8,5.55c0.53,1.57,1.25,2.87,2.16,3.9
				c0.91,1.03,1.97,1.8,3.17,2.3c1.21,0.5,2.48,0.75,3.83,0.75c1.35,0,2.61-0.25,3.78-0.75c1.17-0.5,2.21-1.27,3.1-2.3
				c0.89-1.03,1.6-2.33,2.11-3.9c0.52-1.57,0.78-3.42,0.78-5.55c0-2.16-0.27-4.03-0.8-5.62c-0.53-1.58-1.25-2.87-2.16-3.88
				c-0.91-1-1.97-1.75-3.17-2.23c-1.21-0.49-2.48-0.73-3.83-0.73s-2.61,0.25-3.78,0.75c-1.17,0.5-2.21,1.27-3.1,2.3
				c-0.89,1.03-1.6,2.33-2.11,3.9C303.63,26.62,303.37,28.45,303.37,30.55z"/>
			<path fill="#2B2E31" d="M344.22,15.75l4.98,17.44c0.34,1.16,0.69,2.48,1.03,3.95c0.34,1.47,0.64,2.87,0.89,4.18h0.09
				c0.25-1.32,0.56-2.7,0.94-4.16s0.74-2.78,1.08-3.97l5.12-17.44h3.1l5.26,17.44c0.34,1.19,0.7,2.51,1.06,3.95
				c0.36,1.44,0.7,2.84,1.01,4.18h0.09c0.25-1.38,0.55-2.79,0.89-4.23c0.34-1.44,0.69-2.74,1.03-3.9l4.79-17.44h3.43l-8.51,29.61
				h-3.43l-5.12-17.77c-0.35-1.32-0.71-2.6-1.08-3.85c-0.38-1.25-0.71-2.47-0.99-3.67h-0.09c-0.25,1.07-0.52,2.12-0.8,3.15
				c-0.28,1.03-0.56,2.07-0.85,3.1l-5.31,19.04h-3.38l-8.74-29.61H344.22z"/>
			<path fill="#2B2E31" d="M397.8,15.75v29.61h-3.38V15.75H397.8z"/>
			<path fill="#2B2E31" d="M416.5,15.75h3.06l13.21,19.13c0.59,0.88,1.18,1.75,1.76,2.63c0.58,0.88,1.14,1.76,1.67,2.63h0.09
				c-0.06-1.16-0.1-2.31-0.12-3.45c-0.02-1.14-0.02-2.29-0.02-3.45V15.75h3.29v29.61h-3.06l-12.92-18.56
				c-0.66-0.94-1.31-1.95-1.95-3.03c-0.64-1.08-1.25-2.15-1.81-3.22h-0.09c0.06,1.41,0.11,2.8,0.14,4.16
				c0.03,1.36,0.05,2.75,0.05,4.16v16.5h-3.29V15.75z"/>
			<path fill="#2B2E31" d="M470.88,15.37c1.69,0,3.2,0.13,4.51,0.38c1.32,0.25,2.57,0.69,3.76,1.32l-0.85,2.68
				c-1.1-0.53-2.22-0.94-3.36-1.22c-1.14-0.28-2.33-0.42-3.55-0.42c-1.5,0-2.94,0.22-4.3,0.66c-1.36,0.44-2.56,1.15-3.6,2.14
				c-1.03,0.99-1.86,2.28-2.49,3.88s-0.94,3.54-0.94,5.83c0,1.97,0.27,3.74,0.8,5.29c0.53,1.55,1.29,2.85,2.28,3.9
				s2.15,1.85,3.5,2.4c1.35,0.55,2.85,0.82,4.51,0.82c1.19,0,2.23-0.08,3.12-0.23c0.89-0.16,1.65-0.36,2.28-0.61v-9.4h-5.97v-2.63
				h9.21v14.05c-1.16,0.47-2.42,0.85-3.78,1.15c-1.36,0.3-3.03,0.45-5.01,0.45c-2,0-3.89-0.33-5.64-0.99
				c-1.75-0.66-3.29-1.63-4.61-2.91c-1.32-1.28-2.36-2.87-3.12-4.75c-0.77-1.88-1.15-4.06-1.15-6.53c0-2.48,0.36-4.67,1.08-6.58
				c0.72-1.91,1.72-3.5,3.01-4.77c1.28-1.27,2.8-2.23,4.56-2.89C466.9,15.7,468.81,15.37,470.88,15.37z"/>
		</g>
		<g>
			<path fill="#2B2E31" d="M248.36,53.64c5.06,0,9.72,0.7,13.97,2.09c4.25,1.39,7.92,3.46,11,6.21s5.48,6.2,7.21,10.34
				c1.72,4.14,2.58,8.96,2.58,14.46c0,6.53-1.03,12.08-3.08,16.67c-2.05,4.58-4.82,8.32-8.3,11.22c-3.48,2.9-7.55,5-12.21,6.32
				c-4.66,1.32-9.55,1.98-14.68,1.98h-19.58v-69.3H248.36z M237.03,113.48h6.82c3.37,0,6.66-0.38,9.84-1.16
				c3.19-0.77,6.03-2.16,8.53-4.18c2.49-2.02,4.49-4.75,6-8.2c1.5-3.45,2.25-7.85,2.25-13.2c0-7.63-2.18-13.47-6.54-17.54
				c-4.36-4.07-10.21-6.1-17.54-6.1h-9.35V113.48z"/>
			<path fill="#2B2E31" d="M319.86,53.64h11.22l26.95,69.3h-12.32l-6.93-18.15h-27.17l-6.82,18.15h-12.21L319.86,53.64z
				 M314.58,95.77h21.01l-4.07-11.22c-1.25-3.08-2.33-5.96-3.24-8.64c-0.92-2.68-1.89-5.74-2.92-9.18h-0.22
				c-1.1,3.23-2.13,6.21-3.08,8.96c-0.95,2.75-2.05,5.74-3.3,8.96L314.58,95.77z"/>
			<path fill="#2B2E31" d="M412.92,53.64v9.68h-20.9v59.62h-11.77V63.32h-20.57v-9.68H412.92z"/>
			<path fill="#2B2E31" d="M441.96,53.64h11.22l26.95,69.3h-12.32l-6.93-18.15h-27.17l-6.82,18.15h-12.21L441.96,53.64z
				 M436.68,95.77h21.01l-4.07-11.22c-1.25-3.08-2.33-5.96-3.24-8.64c-0.92-2.68-1.89-5.74-2.92-9.18h-0.22
				c-1.1,3.23-2.13,6.21-3.08,8.96c-0.95,2.75-2.05,5.74-3.3,8.96L436.68,95.77z"/>
		</g>
	</g>
	<g>
		<g>
			
				<rect x="131.68" y="77.77" transform="matrix(-1 -4.478119e-11 4.478119e-11 -1 285.9491 178.1326)" fill="#98A0CC" width="22.58" height="22.58"/>
			
				<rect x="171.21" y="77.77" transform="matrix(-1 -4.478119e-11 4.478119e-11 -1 353.7029 166.8403)" fill="#C6CAE4" width="11.29" height="11.29"/>
			
				<rect x="80.87" y="77.77" transform="matrix(-1 -4.467372e-11 4.467372e-11 -1 195.6107 189.4249)" fill="#4663A8" width="33.88" height="33.88"/>
			
				<rect x="18.76" y="77.77" transform="matrix(-1 -4.494195e-11 4.494195e-11 -1 82.6876 200.7172)" fill="#084C9A" width="45.17" height="45.17"/>
		</g>
		<g>
			<rect x="46.99" y="37.96" fill="#98A0CC" width="22.58" height="22.58"/>
			<rect x="18.76" y="49.25" fill="#C6CAE4" width="11.29" height="11.29"/>
			<rect x="86.51" y="26.67" fill="#4663A8" width="33.88" height="33.88"/>
			<rect x="137.33" y="15.37" fill="#084C9A" width="45.17" height="45.17"/>
		</g>
	</g>
</g>
</svg>
