<?xml version="1.0" encoding="utf-8"?>
<!-- Generator: Adobe Illustrator 25.0.1, SVG Export Plug-In . SVG Version: 6.00 Build 0)  -->
<svg version="1.1" xmlns="http://www.w3.org/2000/svg" xmlns:xlink="http://www.w3.org/1999/xlink" x="0px" y="0px"
	 width="283.46px" height="283.46px" viewBox="0 0 283.46 283.46" enable-background="new 0 0 283.46 283.46" xml:space="preserve">
<g id="guides">
	<rect fill="#FFEED0" width="283.46" height="283.46"/>
</g>
<g id="logo">
	<g>
		<polygon fill="#6B6A6B" points="269.29,269.29 14.17,269.29 14.17,155.48 26.93,168.77 39.68,157.79 52.44,146.24 65.2,146.81 
			77.95,124.86 90.71,124.86 103.46,127.17 116.22,123.13 128.98,134.68 141.73,128.33 154.49,119.08 167.24,119.08 180,113.31 
			192.76,110.42 205.51,116.77 218.27,102.91 231.02,76.91 243.78,49.76 256.54,33.58 269.29,36.47 		"/>
		<polygon fill="#2B2E31" points="269.29,269.29 14.17,269.29 14.17,240.98 26.93,242.72 39.68,239.83 52.44,246.18 65.2,234.63 
			77.95,239.83 90.71,242.72 103.46,245.03 116.22,238.09 128.98,231.16 141.73,195.34 154.49,190.14 167.24,186.1 180,179.17 
			192.76,184.37 205.51,179.74 218.27,167.03 231.02,131.22 243.78,82.69 256.54,52.65 269.29,57.85 		"/>
	</g>
</g>
</svg>
