<?xml version="1.0" encoding="utf-8"?>
<!-- Generator: Adobe Illustrator 25.0.1, SVG Export Plug-In . SVG Version: 6.00 Build 0)  -->
<svg version="1.1" xmlns="http://www.w3.org/2000/svg" xmlns:xlink="http://www.w3.org/1999/xlink" x="0px" y="0px"
	 width="283.46px" height="283.46px" viewBox="0 0 283.46 283.46" enable-background="new 0 0 283.46 283.46" xml:space="preserve">
<g id="guides">
	<rect fill="#C6CAE4" width="283.46" height="283.46"/>
</g>
<g id="logo">
	
		<rect x="76.69" y="16.96" transform="matrix(-1.836970e-16 1 -1 -1.836970e-16 161.7297 -62.5171)" fill="#2B2E31" stroke="#FFFFFF" stroke-width="1.5" stroke-miterlimit="10" width="70.87" height="65.3"/>
	
		<rect x="11.39" y="16.96" transform="matrix(-1.836970e-16 1 -1 -1.836970e-16 96.4295 2.7831)" fill="#2B2E31" stroke="#FFFFFF" stroke-width="1.5" stroke-miterlimit="10" width="70.87" height="65.3"/>
	
		<rect x="123.08" y="35.87" transform="matrix(-1.836970e-16 1 -1 -1.836970e-16 208.1201 -108.9075)" fill="#2B2E31" stroke="#FFFFFF" stroke-width="1.5" stroke-miterlimit="10" width="70.87" height="27.48"/>
	
		<rect x="177.52" y="113.03" transform="matrix(-1.836970e-16 1 -1 -1.836970e-16 354.6893 -71.2247)" fill="#2B2E31" stroke="#FFFFFF" stroke-width="1.5" stroke-miterlimit="10" width="70.87" height="57.41"/>
	
		<rect x="116.89" y="109.81" transform="matrix(-1.836970e-16 1 -1 -1.836970e-16 294.0597 -10.5951)" fill="#2B2E31" stroke="#FFFFFF" stroke-width="1.5" stroke-miterlimit="10" width="70.87" height="63.85"/>
	
		<rect x="31.85" y="88.62" transform="matrix(-1.836970e-16 1 -1 -1.836970e-16 209.0202 74.4444)" fill="#2B2E31" stroke="#FFFFFF" stroke-width="1.5" stroke-miterlimit="10" width="70.87" height="106.23"/>
	
		<rect x="132.86" y="217.9" transform="matrix(-1.836970e-16 1 -1 -1.836970e-16 402.148 65.5685)" fill="#2B2E31" stroke="#FFFFFF" stroke-width="1.5" stroke-miterlimit="10" width="70.87" height="31.92"/>
	
		<rect x="91.37" y="208.33" transform="matrix(-1.836970e-16 1 -1 -1.836970e-16 360.6581 107.0585)" fill="#2B2E31" stroke="#FFFFFF" stroke-width="1.5" stroke-miterlimit="10" width="70.87" height="51.06"/>
	
		<rect x="22.29" y="190.31" transform="matrix(-1.836970e-16 1 -1 -1.836970e-16 291.5809 176.1356)" fill="#2B2E31" stroke="#FFFFFF" stroke-width="1.5" stroke-miterlimit="10" width="70.87" height="87.1"/>
</g>
</svg>
