<?xml version="1.0" encoding="utf-8"?>
<!-- Generator: Adobe Illustrator 25.0.1, SVG Export Plug-In . SVG Version: 6.00 Build 0)  -->
<svg version="1.1" xmlns="http://www.w3.org/2000/svg" xmlns:xlink="http://www.w3.org/1999/xlink" x="0px" y="0px"
	 width="283.46px" height="283.46px" viewBox="0 0 283.46 283.46" enable-background="new 0 0 283.46 283.46" xml:space="preserve">
<g id="guides">
	<rect fill="#FFEED0" width="283.46" height="283.46"/>
</g>
<g id="logo">
	<g>
		<g>
			<path fill="#C0BEBF" d="M269.3,137.83H14.15v49.2l31.89,10.37c0,0,21.6,8.42,31.89,8.42s21.92-21.77,31.89-21.77
				s20.95,23.62,31.89,23.62c10.94,0,21.26,7.19,31.89,7.19c10.63,0,16.35,36.36,31.89,36.36s24.39-43.55,31.89-43.55
				c7.5,0,31.89-20.13,31.89-20.13V137.83z"/>
		</g>
		<path fill="#6B6A6B" d="M269.3,137.83H14.15v44.06c0,0,11.46,8.32,31.89,8.32s20.43,8.42,31.89,8.42s21.69-20.75,31.89-20.75
			s19.44-2.74,31.89,4.11c12.45,6.85,22.81,8.22,31.89,8.22c9.09,0,15.88,14.79,31.89,14.79s13.87-20.95,31.89-20.95
			s31.89-8.83,31.89-8.83V137.83z"/>
		<path fill="#929092" d="M269.3,137.83H14.15v31.74l31.89,3.18c0,0,11.78,1.23,31.89,1.23s20.69-20.75,31.89-20.75
			s14.53,22.6,31.89,22.6s14.85-11.3,31.89-11.3s4.19,15.82,31.89,15.82s9.89,1.64,31.89,1.64s31.89-11.91,31.89-11.91V137.83z"/>
		<path fill="#6B6A6B" d="M269.3,137.83H14.15v19.41c0,0,23.29-7.48,31.89,1.13s15.29,14.58,31.89,14.58s22.16-24.85,31.89-24.85
			s19.85,21.47,31.89,14.38c12.04-7.09,15.24,4.62,31.89,1.03c16.65-3.59,18.22,8.63,31.89,8.63s23.74,0.17,31.89-7.6
			c8.16-7.77,31.89-8.83,31.89-8.83V137.83z"/>
	</g>
	<g>
		<path fill="#C0BEBF" d="M269.32,137.83H14.17v-49.2c0,0,25.13-3.61,31.89-10.37s13.43-8.42,31.89-8.42s22.88,21.77,31.89,21.77
			s21.79-13.52,31.89-23.62c10.1-10.1,13.94,0.64,31.89-7.19s23.85-36.36,31.89-36.36c8.05,0,29.55,35.64,31.89,43.55
			c2.34,7.9,31.89,20.13,31.89,20.13V137.83z"/>
		<path fill="#929092" d="M269.32,137.83H14.17V93.77c0,0,21.26-12.09,31.89-8.32c10.63,3.77,21.36-18.96,31.89-8.42
			s22.41,19.31,31.89,20.75s23.2,1.51,31.89-4.11c8.69-5.61,22.82-0.76,31.89-8.22c9.07-7.45,21.27-15.81,31.89-14.79
			c10.62,1.02,21.6,20.07,31.89,20.95c10.29,0.88,31.89,8.83,31.89,8.83V137.83z"/>
		<path fill="#6B6A6B" d="M269.32,137.83H14.17v-31.74c0,0,17.05-10.71,31.89-3.18s13.29-4.87,31.89-1.23s17.88,20.75,31.89,20.75
			s14.78-19.73,31.89-22.6s16.51,11.69,31.89,11.3s21.51-7.62,31.89-15.82c10.39-8.19,22.97-4.98,31.89-1.64
			c8.93,3.33,31.89,11.91,31.89,11.91V137.83z"/>
		<path fill="#C0BEBF" d="M269.32,137.83H14.17v-19.41c0,0,12.64-1.13,31.89-1.13s23.11-13.35,31.89-14.58
			c8.78-1.24,20,23.62,31.89,24.85c11.9,1.24,17.09-22.09,31.89-14.38c14.8,7.72,12.77-1.03,31.89-1.03s17.9-5.72,31.89-8.63
			c13.99-2.91,18.03-7.77,31.89,7.6s31.89,8.83,31.89,8.83V137.83z"/>
		<path fill="#2B2E31" d="M237.42,119.34c-30.17-16.42-10.65,5.14-31.89,5.14c-21.24,0-10.9,13.35-31.89,8.11
			c-21-5.24-21.56-17.42-31.89-10.17s-7.44,11.3-31.89,11.3c-24.45,0-20.68-6.18-31.89-16.43c-11.21-10.26-10.07-0.79-31.89,8.22
			c-21.83,9.01-31.89,7.29-31.89,7.29v5.03h-0.02v5.03c0,0,21.24-7.62,31.89,7.29s18.56,22.64,31.89,8.22
			c13.33-14.43,18.88-16.43,31.89-16.43c13.01,0,12.89,26.7,31.89,11.3c19-15.41,18.9,0.14,31.89-10.17s13.78,8.11,31.89,8.11
			c18.12,0,24.62,24.76,31.89,5.14c7.27-19.62,31.89-12.94,31.89-12.94v-5.55h0.02v-5.55C269.32,132.28,267.59,135.76,237.42,119.34
			z"/>
	</g>
</g>
</svg>
