<?xml version="1.0" encoding="utf-8"?>
<!-- Generator: Adobe Illustrator 25.0.1, SVG Export Plug-In . SVG Version: 6.00 Build 0)  -->
<svg version="1.1" xmlns="http://www.w3.org/2000/svg" xmlns:xlink="http://www.w3.org/1999/xlink" x="0px" y="0px"
	 width="283.46px" height="283.46px" viewBox="0 0 283.46 283.46" enable-background="new 0 0 283.46 283.46" xml:space="preserve">
<g id="guides">
	<rect fill="#FFEED0" width="283.46" height="283.46"/>
</g>
<g id="logo">
	<line fill="none" stroke="#929092" stroke-width="5" stroke-miterlimit="10" x1="202.81" y1="234.23" x2="202.81" y2="142.27"/>
	<line fill="none" stroke="#929092" stroke-width="5" stroke-miterlimit="10" x1="96.55" y1="234.23" x2="96.55" y2="142.27"/>
	<line fill="none" stroke="#929092" stroke-width="5" stroke-miterlimit="10" x1="173.81" y1="49.77" x2="173.81" y2="141.73"/>
	<line fill="none" stroke="#929092" stroke-width="5" stroke-miterlimit="10" x1="67.55" y1="49.77" x2="67.55" y2="141.73"/>
	<g>
		<g>
			<line fill="none" stroke="#2B2E31" stroke-width="5" stroke-miterlimit="10" x1="14.17" y1="141.73" x2="238.28" y2="141.73"/>
			<g>
				<polygon fill="#2B2E31" points="231.35,151.9 269.29,141.73 231.35,131.56 				"/>
			</g>
		</g>
	</g>
	<rect x="27.31" y="49.77" fill="#929092" width="34.5" height="14.17"/>
	<rect x="27.31" y="68.69" fill="#929092" width="34.5" height="14.17"/>
	<rect x="55.78" y="201.14" fill="#929092" width="34.5" height="14.17"/>
	<rect x="55.78" y="220.06" fill="#929092" width="34.5" height="14.17"/>
	<rect x="162.33" y="201.14" fill="#929092" width="34.5" height="14.17"/>
	<rect x="162.33" y="220.06" fill="#929092" width="34.5" height="14.17"/>
	<rect x="133.22" y="49.77" fill="#929092" width="34.5" height="14.17"/>
	<rect x="133.22" y="68.69" fill="#929092" width="34.5" height="14.17"/>
	<circle fill="#2B2E31" cx="67.55" cy="141.73" r="9.92"/>
	<circle fill="#2B2E31" cx="96.55" cy="141.73" r="9.92"/>
	<circle fill="#2B2E31" cx="173.81" cy="141.73" r="9.92"/>
	<circle fill="#2B2E31" cx="202.81" cy="141.73" r="9.92"/>
</g>
</svg>
