<?xml version="1.0" encoding="utf-8"?>
<!-- Generator: Adobe Illustrator 25.0.1, SVG Export Plug-In . SVG Version: 6.00 Build 0)  -->
<svg version="1.1" xmlns="http://www.w3.org/2000/svg" xmlns:xlink="http://www.w3.org/1999/xlink" x="0px" y="0px"
	 width="283.46px" height="283.46px" viewBox="0 0 283.46 283.46" enable-background="new 0 0 283.46 283.46" xml:space="preserve">
<g id="guides">
	<rect fill="#C0BEBF" width="283.46" height="283.46"/>
</g>
<g id="logo">
	<rect x="118.54" y="27.17" fill="#2B2E31" width="61.89" height="29.18"/>
	<rect x="55.31" y="94.31" fill="#2B2E31" width="61.89" height="29.18"/>
	<rect x="181.78" y="94.31" fill="#2B2E31" width="61.89" height="29.18"/>
	<g>
		<rect x="14.18" y="159.07" fill="#2B2E31" width="61.89" height="29.18"/>
		<rect x="96.44" y="159.07" fill="#2B2E31" width="61.89" height="29.18"/>
	</g>
	<rect x="181.78" y="159.07" fill="#2B2E31" width="61.89" height="29.18"/>
	<g>
		<rect x="14.18" y="223.84" fill="#2B2E31" width="61.89" height="29.18"/>
		<rect x="96.44" y="223.84" fill="#2B2E31" width="61.89" height="29.18"/>
	</g>
	<rect x="181.78" y="223.84" fill="#2B2E31" width="61.89" height="29.18"/>
	<polyline fill="none" stroke="#2B2E31" stroke-width="3" stroke-miterlimit="10" points="149.49,56.35 149.49,79.01 86.26,79.01 
		86.26,94.31 	"/>
	<polyline fill="none" stroke="#2B2E31" stroke-width="3" stroke-miterlimit="10" points="149.49,56.35 149.49,79.01 212.72,79.01 
		212.72,94.31 	"/>
	<line fill="none" stroke="#2B2E31" stroke-width="3" stroke-miterlimit="10" x1="86.26" y1="123.49" x2="86.26" y2="138.5"/>
	<line fill="none" stroke="#2B2E31" stroke-width="3" stroke-miterlimit="10" x1="212.72" y1="123.49" x2="212.72" y2="159.07"/>
	<line fill="none" stroke="#2B2E31" stroke-width="3" stroke-miterlimit="10" x1="212.72" y1="188.25" x2="212.72" y2="223.84"/>
	<line fill="none" stroke="#2B2E31" stroke-width="3" stroke-miterlimit="10" x1="127.39" y1="188.25" x2="127.39" y2="223.84"/>
	<line fill="none" stroke="#2B2E31" stroke-width="3" stroke-miterlimit="10" x1="45.12" y1="188.25" x2="45.12" y2="223.84"/>
	<polyline fill="none" stroke="#2B2E31" stroke-width="3" stroke-miterlimit="10" points="45.12,159.07 45.12,138.5 86.26,138.5 	
		"/>
	<polyline fill="none" stroke="#2B2E31" stroke-width="3" stroke-miterlimit="10" points="127.39,159.07 127.39,138.5 86.26,138.5 	
		"/>
</g>
</svg>
