<?xml version="1.0" encoding="utf-8"?>
<!-- Generator: Adobe Illustrator 25.0.1, SVG Export Plug-In . SVG Version: 6.00 Build 0)  -->
<svg version="1.1" xmlns="http://www.w3.org/2000/svg" xmlns:xlink="http://www.w3.org/1999/xlink" x="0px" y="0px"
	 width="283.46px" height="283.46px" viewBox="0 0 283.46 283.46" enable-background="new 0 0 283.46 283.46" xml:space="preserve">
<g id="guides">
	<rect fill="#FBD3C4" width="283.46" height="283.46"/>
</g>
<g id="logo">
	<path fill="#2B2E31" d="M233.11,141.73c0-12.59-55.97-18.38-68.86-42.52c-5.84-10.92-4.7-23.39-2-35.03
		c1.43-6.15,3.3-12.19,4.77-18.32c1.57-6.55,3.27-12.76,2.42-19.58c-0.51-4.05-1.87-9-5.96-10.85c-1.87-0.85-4.08-0.82-6.04-0.95
		c-5.39-0.36-10.8-0.31-16.2-0.31c-5.4,0-10.81-0.05-16.2,0.31c-1.97,0.13-4.17,0.1-6.04,0.95c-4.09,1.85-5.46,6.79-5.96,10.85
		c-0.85,6.82,0.85,13.02,2.42,19.58c1.47,6.14,3.35,12.17,4.77,18.32c2.7,11.65,3.83,24.11-2,35.03
		c-12.9,24.14-68.86,29.93-68.86,42.52c0,12.59,90.43,35.57,81.44,65.05c-2.61,8.55-8.23,14.42-16.63,17.54
		c-6.06,2.25-12.54,3.03-18.88,4.26c-10.57,2.06-30.61,9.06-18.25,22.25c3.86,4.12,9.48,6.01,14.9,7.57
		c15.99,4.59,32.43,7.79,48.8,10.71v0.18c0.17-0.03,0.33-0.06,0.5-0.09c0.17,0.03,0.33,0.06,0.5,0.09v-0.18
		c16.37-2.92,32.81-6.12,48.8-10.71c5.42-1.56,11.04-3.45,14.9-7.57c12.36-13.19-7.68-20.19-18.25-22.25
		c-6.34-1.23-12.82-2.01-18.88-4.26c-8.4-3.12-14.03-8.99-16.63-17.54C142.68,177.3,233.11,154.33,233.11,141.73z"/>
</g>
</svg>
