<?xml version="1.0" encoding="utf-8"?>
<!-- Generator: Adobe Illustrator 25.0.1, SVG Export Plug-In . SVG Version: 6.00 Build 0)  -->
<svg version="1.1" xmlns="http://www.w3.org/2000/svg" xmlns:xlink="http://www.w3.org/1999/xlink" x="0px" y="0px"
	 width="283.46px" height="283.46px" viewBox="0 0 283.46 283.46" enable-background="new 0 0 283.46 283.46" xml:space="preserve">
<g id="guides">
	<rect fill="#C0BEBF" width="283.46" height="283.46"/>
</g>
<g id="logo">
	<g>
		<path fill="#49494B" stroke="#FFFFFF" d="M207.44,14.91l61.18,43.85V14.91H207.44z"/>
		<path fill="#C0BEBF" stroke="#FFFFFF" d="M14.93,228.48l19.61-3.94l3.09-16.77l-22.7-51V228.48z"/>
		<path fill="#929092" stroke="#FFFFFF" d="M83.47,198.04l28.97,18.43l13.75-9.2L97.12,126.1L83.47,198.04z"/>
		<path fill="#6B6A6B" stroke="#FFFFFF" d="M128.25,264.98l0.29,3.62h71.11l-41.37-29l-5.3,1.55L128.25,264.98z"/>
		<path fill="#49494B" stroke="#FFFFFF" d="M148,102.55l21.05,81.61l4.16,4.34l3.6,0.26l53.7-20.7l11.23-40.96L148,102.55z"/>
		<path fill="#49494B" stroke="#FFFFFF" d="M14.93,124.49l51.48,76.83l11.14,1.21l5.91-4.49l13.65-71.94l0.28-66.44L66.95,14.91
			H14.93V124.49z"/>
		<path fill="#929092" stroke="#FFFFFF" d="M226.74,239.82l41.88-15.8v-7.86l-26.95-10.89L226.74,239.82z"/>
		<path fill="#929092" stroke="#FFFFFF" d="M107.72,244.56l20.53,20.42l24.73-23.83l-21.88-33.88h-4.9l-13.75,9.2L107.72,244.56z"/>
		<path fill="#929092" stroke="#FFFFFF" d="M158.27,239.59l41.37,29h8.85l0.76-12.86l-3.96-19.69l-30.48-21.85L158.27,239.59z"/>
		<path fill="#929092" stroke="#FFFFFF" d="M230.51,168.04l4.37,33.14l6.79,4.09l26.95,10.89v-96.01l-26.88,6.93L230.51,168.04z"/>
		<path fill="#49494B" stroke="#FFFFFF" d="M205.3,236.04l3.96,19.69l17.48-15.92l14.93-34.55l-6.79-4.09l-8.02,3.32l-21.22,30.87
			L205.3,236.04z"/>
		<path fill="#929092" stroke="#FFFFFF" d="M14.93,267.1l7.15-5.12l19.01-29.86l-6.55-7.58l-19.61,3.94V267.1z"/>
		<path fill="#929092" stroke="#FFFFFF" d="M97.12,126.1l29.07,81.17h4.9l37.96-23.11L148,102.55L97.4,59.66L97.12,126.1z"/>
		<path fill="#C0BEBF" stroke="#FFFFFF" d="M22.08,261.98l33.17-3.39l2.3-16.5l-16.45-9.97L22.08,261.98z"/>
		<path fill="#929092" stroke="#FFFFFF" d="M199.25,198.36l6.4,37.01l21.22-30.87L199.25,198.36z"/>
		<path fill="#49494B" stroke="#FFFFFF" d="M176.82,188.75l22.43,9.61l27.62,6.14l8.02-3.32l-4.37-33.14L176.82,188.75z"/>
		<path fill="#6B6A6B" stroke="#FFFFFF" d="M71.07,236.97l21.95,8.29l14.69-0.71l4.73-28.1l-28.97-18.43l-5.91,4.49L71.07,236.97z"
			/>
		<path fill="#929092" stroke="#FFFFFF" d="M14.93,156.76l22.7,51l28.78-6.45l-51.48-76.83V156.76z"/>
		<path fill="#C0BEBF" stroke="#FFFFFF" d="M34.55,224.54l6.55,7.58l16.45,9.97l13.52-5.11l6.49-34.45l-11.14-1.21l-28.78,6.45
			L34.55,224.54z"/>
		<path fill="#C0BEBF" stroke="#FFFFFF" d="M56.61,268.6l-1.36-10.01l-33.17,3.39l-7.15,5.12v1.5H56.61z"/>
		<path fill="#49494B" stroke="#FFFFFF" d="M131.09,207.26l21.88,33.88l5.3-1.55l16.55-25.4l-1.6-25.71l-4.16-4.34L131.09,207.26z"
			/>
		<path fill="#2B2E31" stroke="#FFFFFF" d="M66.95,14.91L97.4,59.66l50.6,42.89l93.74,24.54l26.88-6.93V58.77l-61.18-43.85H66.95z"
			/>
		<path fill="#929092" stroke="#FFFFFF" d="M173.22,188.49l1.6,25.71l30.48,21.85l0.35-0.68l-6.4-37.01l-22.43-9.61L173.22,188.49z"
			/>
		<path fill="#49494B" stroke="#FFFFFF" d="M268.62,224.02l-41.88,15.8l-17.48,15.92l-0.76,12.86h60.12V224.02z"/>
		<path fill="#C0BEBF" stroke="#FFFFFF" d="M55.25,258.59l1.36,10.01h25.52l10.89-23.33l-21.95-8.29l-13.52,5.11L55.25,258.59z"/>
		<path fill="#6B6A6B" stroke="#FFFFFF" d="M128.53,268.6l-0.29-3.62l-20.53-20.42l-14.69,0.71L82.13,268.6H128.53z"/>
	</g>
</g>
</svg>
